<svg fill="#0389c9" id="Capa_1" enable-background="new 0 0 511.962 511.962" height="512" viewBox="0 0 511.962 511.962" width="512" xmlns="http://www.w3.org/2000/svg"><g><path d="m503.097 51.845c-2.561-23.588-21.526-42.058-45.097-43.917-134.05-10.571-269.988-10.571-404.039 0-23.57 1.859-42.536 20.329-45.096 43.918-11.793 108.719-11.793 218.968 0 327.688 2.561 23.589 21.526 42.06 45.096 43.917 7.38.583 14.979 1.146 22.716 1.686l-31.381 31.381c-9.603 9.604-9.603 25.229 0 34.833 0 0 0 0 .001.001l13.396 13.395c4.652 4.652 10.838 7.214 17.417 7.214s12.764-2.562 17.417-7.214l74.855-74.855c28.997.994 58.125 1.502 87.316 1.502 56.136 0 112.465-1.835 168.305-5.495 4.134-.271 7.265-3.841 6.994-7.974-.271-4.134-3.871-7.263-7.975-6.994-79.702 5.223-160.385 6.704-240.099 4.42l121.517-121.518c4.653-4.652 7.215-10.838 7.215-17.417s-2.562-12.765-7.214-17.417l-13.396-13.396c-9.605-9.603-25.229-9.604-34.835 0l-165.448 165.449c-12.21-.792-24.179-1.649-35.622-2.553-16.39-1.292-29.58-14.154-31.363-30.582-9.178-84.615-11.138-170.166-5.887-255.182 10.217-.878 19.911-1.659 29.448-2.371 4.131-.308 7.229-3.906 6.922-8.037s-3.917-7.231-8.037-6.921c-8.878.662-17.885 1.383-27.318 2.187 1.3-18.075 2.918-36.123 4.871-54.128 1.784-16.429 14.974-29.291 31.365-30.583 133.268-10.509 268.412-10.509 401.68 0 16.391 1.292 29.581 14.154 31.364 30.582 1.953 18.007 3.572 36.057 4.872 54.135-137.275-11.67-276.365-13.19-413.57-4.498-4.134.262-7.272 3.825-7.011 7.959.263 4.134 3.799 7.281 7.96 7.011 137.226-8.693 276.355-7.115 413.636 4.671 5.25 85.013 3.291 170.563-5.887 255.174-1.783 16.429-14.974 29.291-31.399 30.586-.138.011-.276.025-.414.031-4.139.177-7.351 3.675-7.174 7.813.176 4.138 3.664 7.361 7.813 7.173.342-.015.684-.041.988-.067 23.571-1.857 42.537-20.328 45.098-43.918 11.793-108.719 11.793-218.969 0-327.689zm-420.178 442.295c-1.819 1.819-4.238 2.821-6.811 2.821s-4.991-1.002-6.811-2.821l-13.396-13.395c-3.755-3.756-3.755-9.866 0-13.621l136.836-136.836 27.016 27.016zm183.899-237.93c3.755-3.755 9.867-3.754 13.62 0l13.396 13.396c1.819 1.819 2.821 4.238 2.821 6.811 0 2.572-1.002 4.991-2.821 6.81l-63.472 63.472-27.016-27.016z"/><path d="m101.718 60.57c0-17.07-13.888-30.957-30.957-30.957s-30.957 13.887-30.957 30.957 13.888 30.957 30.957 30.957 30.957-13.888 30.957-30.957zm-30.957 15.957c-8.799 0-15.957-7.158-15.957-15.957s7.158-15.957 15.957-15.957 15.957 7.158 15.957 15.957-7.158 15.957-15.957 15.957z"/><path d="m242.46 60.57c0-17.07-13.888-30.957-30.957-30.957s-30.957 13.887-30.957 30.957 13.888 30.957 30.957 30.957 30.957-13.888 30.957-30.957zm-46.914 0c0-8.799 7.158-15.957 15.957-15.957s15.957 7.158 15.957 15.957-7.158 15.957-15.957 15.957-15.957-7.159-15.957-15.957z"/><path d="m172.089 60.57c0-17.07-13.888-30.957-30.957-30.957s-30.957 13.887-30.957 30.957 13.888 30.957 30.957 30.957 30.957-13.888 30.957-30.957zm-46.914 0c0-8.799 7.158-15.957 15.957-15.957s15.957 7.158 15.957 15.957-7.158 15.957-15.957 15.957-15.957-7.159-15.957-15.957z"/><path d="m358.847 312.442 27.68 6.063c.258.057.46.259.517.515l6.063 27.681c1.613 7.37 7.767 12.321 15.311 12.322h.001c7.544 0 13.698-4.951 15.313-12.321l6.063-27.683c.057-.256.259-.458.515-.514l27.683-6.063c7.369-1.614 12.32-7.768 12.32-15.313s-4.952-13.698-12.321-15.312l-27.681-6.063c-.257-.056-.459-.258-.516-.516l-6.063-27.681c-1.614-7.37-7.769-12.321-15.313-12.321s-13.697 4.952-15.311 12.321l-6.063 27.68c-.057.257-.259.46-.516.517l-27.681 6.063c-7.37 1.614-12.321 7.767-12.322 15.312s4.951 13.698 12.321 15.313zm3.209-15.972 27.682-6.063c5.958-1.305 10.651-5.999 11.958-11.958l6.063-27.682c.07-.319.116-.53.659-.53.544 0 .59.211.66.531l6.063 27.68c1.305 5.959 5.998 10.653 11.958 11.959l27.682 6.063c.319.07.53.116.53.66s-.211.59-.53.66l-27.682 6.063s0 0-.001 0c-5.959 1.306-10.652 6-11.957 11.958l-6.063 27.682c-.07.32-.116.531-.66.531-.543 0-.589-.211-.659-.531l-6.063-27.683c-1.307-5.958-6-10.651-11.959-11.957l-27.681-6.063c-.319-.07-.531-.117-.531-.66 0-.544.212-.59.531-.66z"/><path d="m236.255 186.982-37.893-8.3c-1.403-.308-2.508-1.413-2.815-2.815l-8.3-37.894c-1.925-8.788-9.263-14.691-18.258-14.691-8.996 0-16.334 5.904-18.259 14.692l-8.3 37.892c-.308 1.403-1.413 2.509-2.815 2.816l-37.894 8.3c-8.788 1.925-14.692 9.262-14.692 18.258s5.904 16.333 14.692 18.258l37.893 8.3c1.403.308 2.509 1.413 2.816 2.815l8.3 37.894c1.925 8.788 9.263 14.691 18.259 14.691 8.995 0 16.333-5.904 18.258-14.692l8.3-37.894c.308-1.402 1.412-2.507 2.815-2.815l37.894-8.3c8.788-1.925 14.691-9.262 14.691-18.258.001-8.995-5.904-16.332-14.692-18.257zm-3.208 21.864-37.894 8.3c-7.106 1.557-12.703 7.154-14.259 14.259l-8.3 37.893c-.553 2.524-2.497 2.901-3.605 2.901-1.109 0-3.054-.377-3.606-2.901l-8.3-37.894c-1.558-7.105-7.153-12.701-14.259-14.258l-37.894-8.3c-2.524-.553-2.901-2.497-2.901-3.605 0-1.109.377-3.053 2.901-3.606l37.895-8.3c7.104-1.557 12.7-7.153 14.258-14.259l8.3-37.893c.553-2.524 2.497-2.901 3.606-2.901 1.108 0 3.053.377 3.605 2.901l8.3 37.893c1.556 7.105 7.152 12.703 14.259 14.259l37.893 8.3c2.524.553 2.901 2.497 2.901 3.606s-.376 3.052-2.9 3.605z"/><path d="m347.979 173.098c4.143 0 7.5-3.358 7.5-7.5v-30.088c0-4.142-3.357-7.5-7.5-7.5s-7.5 3.358-7.5 7.5v30.087c0 4.143 3.357 7.501 7.5 7.501z"/><path d="m340.479 228.686c0 4.142 3.357 7.5 7.5 7.5s7.5-3.358 7.5-7.5v-30.087c0-4.142-3.357-7.5-7.5-7.5s-7.5 3.358-7.5 7.5z"/><path d="m364.479 189.598h30.087c4.143 0 7.5-3.358 7.5-7.5s-3.357-7.5-7.5-7.5h-30.087c-4.143 0-7.5 3.358-7.5 7.5s3.357 7.5 7.5 7.5z"/><path d="m301.391 174.598c-4.143 0-7.5 3.358-7.5 7.5s3.357 7.5 7.5 7.5h30.088c4.143 0 7.5-3.358 7.5-7.5s-3.357-7.5-7.5-7.5z"/></g></svg>