<svg xmlns="http://www.w3.org/2000/svg" viewBox="0 0 512 512" xmlns:v="https://vecta.io/nano"><circle cx="256" cy="256" r="256" fill="#ffd93b"/><path d="M512 256c0 141.44-114.64 256-256 256-80.48 0-152.32-37.12-199.28-95.28 43.92 35.52 99.84 56.72 160.72 56.72 141.36 0 256-114.56 256-256 0-60.88-21.2-116.8-56.72-160.72C474.8 103.68 512 175.52 512 256z" fill="#f4c534"/><path d="M264.144 421.696c-45.888-25.248-71.12-90.064-140.384-89.936 69.68-20.784 128.192 30.208 161.744 47.744 20.64 10.88 47.024 16.016 67.68 3.392 3.456 31.648-38.128 66.8-89.04 38.8z" fill="#3e4347"/><path d="M243.488 260.304c-6.928 28.304-52.992 51.312-107.312 50.16-53.968-1.04-85.872-47.296-77.808-105.44 8.016-57.936 58.976-79.68 107.136-50.224 48.144 29.504 84.896 77.328 77.984 105.504z" fill="#f4c534"/><path d="M226.656 255.248c-9.6 22.336-51.344 40.336-94.864 37.616-43.376-2.528-67.008-40.096-56.528-82.816 10.528-42.544 53.968-56.8 94.208-34.496 40.208 22.416 66.832 57.424 57.184 79.696z" fill="#fff"/><path d="M162.464 237.68c.032 21.52-17.52 38.992-39.04 39.04-21.52.032-39.12-17.392-39.152-38.912-.032-21.664 17.52-39.136 39.04-39.168 21.504-.032 39.12 17.392 39.152 39.04z" fill="#3e4347"/><ellipse transform="matrix(-.7082 -.706 .706 -.7082 79.6674 477.8576)" cx="138.584" cy="222.465" rx="13.696" ry="8.144" fill="#5a5f63"/><path d="M276.592 270.624c7.792 28.08 54.528 49.696 108.784 46.896 53.904-2.672 84.384-49.888 74.56-107.776-9.792-57.664-61.376-77.856-108.608-46.944-47.216 30.944-82.496 79.856-74.736 107.824z" fill="#f4c534"/><path d="M293.264 265.056c10.272 22.032 52.544 38.768 95.968 34.72 43.28-3.84 65.76-42.112 53.968-84.512-11.808-42.208-55.68-55.136-95.216-31.632-39.504 23.648-65.04 59.44-54.72 81.424z" fill="#fff"/><path d="M379.344 229.376c9.92 19.088 2.368 42.688-16.72 52.608s-42.736 2.544-52.656-16.544c-9.984-19.216-2.432-42.8 16.656-52.72 19.088-9.936 42.736-2.56 52.72 16.656z" fill="#3e4347"/><ellipse transform="matrix(-.9535 -.3013 .3013 -.9535 617.5789 548.9189)" cx="351.122" cy="226.832" rx="13.696" ry="8.144" fill="#5a5f63"/><path d="M452.864 146.176c-17.136-14.88-39.088-25.28-62.48-29.44-23.376-4.16-48.192-2.08-70.32 5.92 51.168-62.128 116.704-36.992 132.8 23.52zm-354.48-42.448c18.896-13.584 55.92-21.84 82.544-3.04 21.824 15.648 25.216 39.776 58.368 44.96 0 0-2.112 1.568-6.528 3.216-32.4 11.472-49.712-17.504-65.712-28.592-19.84-14.352-51.6-13.2-68.672-16.544z" fill="#3e4347"/></svg>