<svg xmlns="http://www.w3.org/2000/svg" xmlns:xlink="http://www.w3.org/1999/xlink" viewBox="0 0 512 512" xmlns:v="https://vecta.io/nano"><circle cx="256" cy="256" r="256" fill="#ffd93b"/><path d="M512 256c0 141.44-114.64 256-256 256-80.48 0-152.32-37.12-199.28-95.28 43.92 35.52 99.84 56.72 160.72 56.72 141.36 0 256-114.56 256-256 0-60.88-21.2-116.8-56.72-160.72C474.8 103.68 512 175.52 512 256z" fill="#f4c534"/><path d="M361.872 422.112c-70.672-13.712-141.344-13.712-211.68-.208-7.888 1.568-14.272-7.248-11.584-16.048 21.648-69.904 69.168-113.552 117.344-113.552 48.352 0 95.856 43.664 117.504 113.552 2.688 8.8-3.696 17.616-11.584 16.256z" fill="#3e4347"/><use xlink:href="#B" fill="#f4c534"/><use xlink:href="#C" fill="#fff"/><circle cx="165.07" cy="183.786" r="46.24" fill="#3e4347"/><ellipse transform="matrix(-.7071 -.7071 .7071 -.7071 193.9254 413.0609)" cx="182.51" cy="166.367" rx="14.688" ry="9.824" fill="#fff"/><use xlink:href="#B" x="198" fill="#f4c534"/><use xlink:href="#C" x="198" fill="#fff"/><circle cx="363.06" cy="183.78" r="46.24" fill="#3e4347"/><g fill="#fff"><ellipse transform="matrix(-.7071 -.7071 .7071 -.7071 531.8533 553.0557)" cx="380.468" cy="166.377" rx="14.688" ry="9.824"/><path d="M161.856 419.952c62.64-10.688 125.536-10.672 188.448.192-17.024-37.376-52.784-45.184-94.272-45.184-41.408 0-77.12 7.776-94.176 44.992z"/></g><defs ><path id="B" d="M241.712 184.896c0 47.04-37.92 85.12-84.96 85.12-46.88 0-84.96-38.08-84.96-85.12 0-46.88 38.08-84.96 84.96-84.96 47.04 0 84.96 38.096 84.96 84.96z"/><path id="C" d="M227.712 184.912c-3.056 41.392-37.2 74.912-76.48 74.912-39.152 0-68.48-33.52-65.424-74.912 3.04-41.248 37.312-74.768 76.464-74.768 39.28 0 68.48 33.52 65.44 74.768z"/></defs></svg>