<svg xmlns="http://www.w3.org/2000/svg" viewBox="0 0 512 512" xmlns:v="https://vecta.io/nano"><circle cx="256" cy="256" r="256" fill="#ffd93b"/><path d="M512 256c0 141.44-114.64 256-256 256-80.48 0-152.32-37.12-199.28-95.28 43.92 35.52 99.84 56.72 160.72 56.72 141.36 0 256-114.56 256-256 0-60.88-21.2-116.8-56.72-160.72C474.8 103.68 512 175.52 512 256z" fill="#f4c534"/><path d="M194.384 443.376c21.04 10.672 98.88 2.88 127.216-14.08 16.912-12.384 5.6-39.856 32.832-66.368 23.728-25.776-4.736-50.608-47.664-68.816-8.64-4.064-15.28-6.752-19.792-7.168l-63.504-6.624c-4.496-.512-12.672 1.296-23.36 5.072-53.2 16.448-79.456 45.296-44.448 79.84 40.192 36.208 28.688 71.216 38.72 78.144z" fill="#3e4347"/><path d="M306.768 294.112c-8.64-4.064-15.28-6.752-19.792-7.168l-63.504-6.624c-4.496-.512-12.672 1.296-23.36 5.072-13.28 4.112-24.88 8.976-34.256 14.528 10.16 13.92 46.512 17.6 84.256 19.328 38.864 1.696 75.312.832 86.032-10.016-8.464-5.392-18.432-10.48-29.376-15.12z" fill="#fff"/><path d="M321.584 429.296c4.048-2.304 6.336-5.408 7.872-8.8-.352-.448-.592-.896-.944-1.344-18.416-24.784-18.288-46.384-45.104-46.176-6.336.16-12.272 2.112-16.944 5.536-7.712 5.616-16.096 7.504-25.584 5.104-2.832-.72-5.744-1.04-8.576-.944-23.632.544-16.976 24.112-43.12 52.624.56 3.632 1.76 6.544 5.2 8.08 21.04 10.672 98.88 2.88 127.2-14.08z" fill="#e24b4b"/><path d="M303.264 394.336c-.912 3.92-6.32 5.456-12.352 3.248-5.872-2.32-9.76-7.504-8.608-11.568 1.136-4.208 7.216-5.344 12.912-2.976 5.76 2.368 8.96 7.408 8.048 11.296z" fill="#fff"/><path d="M448.176 181.488c0 37.76-41.12 68.48-91.84 68.48s-91.84-30.72-91.84-68.48c0-37.92 41.12-68.48 91.84-68.48s91.84 30.56 91.84 68.48z" fill="#f4c534"/><path d="M437.136 181.488c-4.144 31.344-43.664 56.832-88.304 56.832s-77.44-25.472-73.296-56.832c4.128-31.344 43.664-56.816 88.304-56.816s77.44 25.472 73.296 56.816z" fill="#fff"/><path d="M366.096 186.336a38.06 38.06 0 0 1-37.904 37.904c-21.168-.112-38.016-16.976-38.128-37.904.112-21.152 16.976-38.016 38.128-38.128 20.928.096 37.776 16.96 37.904 38.128z" fill="#3e4347"/><path d="M321.536 179.76c-6.224 6.224-14.368 8.256-18.224 4.416-3.84-3.84-1.808-12 4.416-18.208 6.336-6.336 14.48-8.368 18.336-4.528s1.808 11.984-4.528 18.32z" fill="#5a5f63"/><path d="M63.824 181.488c0 37.76 41.12 68.48 91.84 68.48s91.84-30.72 91.84-68.48c0-37.92-41.12-68.48-91.84-68.48s-91.84 30.56-91.84 68.48z" fill="#f4c534"/><path d="M74.864 181.488c4.144 31.344 43.664 56.832 88.304 56.832s77.44-25.472 73.296-56.832c-4.128-31.344-43.664-56.816-88.304-56.816s-77.44 25.472-73.296 56.816z" fill="#fff"/><path d="M145.904 186.336a38.06 38.06 0 0 0 37.904 37.904c21.168-.112 38.016-16.976 38.128-37.904-.112-21.152-16.976-38.016-38.128-38.128-20.928.096-37.776 16.96-37.904 38.128z" fill="#3e4347"/><path d="M190.464 179.76c6.224 6.224 14.368 8.256 18.208 4.416s1.808-12-4.416-18.208c-6.336-6.336-14.48-8.368-18.336-4.528-3.824 3.84-1.792 11.984 4.544 18.32z" fill="#5a5f63"/><path d="M269.84 124.672s48.432-67.328 143.104-59.328c0 0-130.864-50.672-143.104 59.328zm-27.68 0S193.728 57.344 99.056 65.344c.016 0 130.864-50.672 143.104 59.328z" fill="#3e4347"/></svg>