<svg xmlns="http://www.w3.org/2000/svg" xmlns:xlink="http://www.w3.org/1999/xlink" viewBox="0 0 512 512" xmlns:v="https://vecta.io/nano"><circle cx="256" cy="256" r="256" fill="#ffd93b"/><path d="M510.784 256c0 141.44-114.64 256-256 256-80.48 0-152.32-37.12-199.28-95.28 43.92 35.52 99.84 56.72 160.72 56.72 141.36 0 256-114.56 256-256 0-60.88-21.2-116.8-56.72-160.72 58.08 46.96 95.28 118.8 95.28 199.28z" fill="#f4c534"/><path d="M235.408 208.528c0 43.792-35.424 79.376-79.376 79.376-43.792 0-79.376-35.584-79.376-79.376 0-43.952 35.584-79.52 79.376-79.52 43.952 0 79.376 35.584 79.376 79.52zm199.936 0c0 43.792-35.424 79.376-79.376 79.376-43.792 0-79.376-35.584-79.376-79.376 0-43.952 35.568-79.52 79.376-79.52 43.952 0 79.376 35.584 79.376 79.52z" fill="#fff"/><g fill="#3e4347"><path d="M485.232 196.464h-39.504c-5.92-44.336-43.888-78.64-89.76-78.64-33.952 0-63.552 18.816-79.04 46.56-4.208 7.536-12.16 11.92-20.784 11.872h-.384c-8.592.064-16.512-4.336-20.688-11.84-15.488-27.76-45.088-46.592-79.04-46.592-45.856 0-83.744 34.336-89.68 78.64H26.72v24h39.904c5.568 41.408 39.216 74.736 81.6 78.32 53.632 4.544 99.44-38.224 98.288-92.144.912-4.512 4.72-7.968 9.472-7.968 4.864 0 9.376 3.504 9.376 9.872 0 52.288 44.56 94.384 97.696 90.304 42.528-3.264 76.832-36.528 82.368-78.384H485.2v-24h.032zm-329.2 80.224c-37.584 0-68.176-30.592-68.176-68.16 0-37.664 30.576-68.304 68.176-68.304 37.584 0 68.16 30.64 68.16 68.304 0 37.584-30.576 68.16-68.16 68.16zm199.936 0c-37.584 0-68.176-30.592-68.176-68.16 0-37.664 30.576-68.304 68.176-68.304 37.584 0 68.16 30.64 68.16 68.304 0 37.584-30.576 68.16-68.16 68.16z"/><use xlink:href="#B"/></g><ellipse transform="matrix(-.7071 -.7071 .7071 -.7071 451.626 582.9016)" cx="346.536" cy="197.916" rx="10" ry="6.912" fill="#fff"/><use xlink:href="#B" x="-160" fill="#3e4347"/><ellipse transform="matrix(-.7071 -.7071 .7071 -.7071 178.4889 469.7645)" cx="186.536" cy="197.916" rx="10" ry="6.912" fill="#fff"/><path d="M392.192 89.76c-37.488-32.736-82.704-27.664-83.136-27.616-5.68.528-10.96-3.392-11.696-9.12-.72-5.744 3.344-10.976 9.088-11.712 2.224-.288 54.816-6.448 99.568 32.624 4.352 3.808 4.816 10.448 1.008 14.816-3.824 4.352-10.448 4.816-14.832 1.008zm-272.384 0c37.488-32.736 82.704-27.664 83.152-27.616 5.68.528 10.96-3.392 11.696-9.12.72-5.744-3.344-10.976-9.072-11.712-2.224-.288-54.816-6.448-99.568 32.624a10.5 10.5 0 0 0-1.024 14.832c3.808 4.336 10.432 4.8 14.816.992zm256.576 344.864c-78.56-25.6-158.88-25.44-240.96.32-10.4 3.2-20-6.4-17.76-16.96 13.92-63.68 70.56-111.36 138.4-111.36 67.68 0 124.16 47.52 138.24 111.04 2.4 10.72-7.52 20.32-17.92 16.96z" fill="#3e4347"/><path d="M334.208 423.696c-4.304-18.656-15.072-34.992-30.24-46.144-9.568-7.152-22.464-8.464-33.44-3.36-9.472 4.24-20.72 6.432-33.792 5.44l-.16-.016c-22.016-1.68-44.112 8.176-53.504 28.16-2.368 5.152-4.096 10.688-5.376 16.432 52.912-11.008 105.072-11.184 156.512-.512z" fill="#e24b4b"/><defs ><path id="B" d="M366.32 208.496c0 16.688-13.424 30.432-30.32 30.432-16.688 0-30.32-13.744-30.32-30.432 0-16.784 13.648-30.544 30.32-30.544 16.896.016 30.32 13.76 30.32 30.544z"/></defs></svg>