<svg xmlns="http://www.w3.org/2000/svg" xmlns:xlink="http://www.w3.org/1999/xlink" viewBox="0 0 511.998 511.998" xmlns:v="https://vecta.io/nano"><path d="M508.06 221.406C528.764 387.55 389.02 527.038 222.956 506.1 109.74 491.838 18.316 400.446 3.996 287.23-17.044 120.9 122.988-19.042 289.34 2.126 402.588 16.542 493.932 108.1 508.06 221.406z" fill="#ffd93b"/><path d="M508.38 283.982c-13.264 116.032-107.136 209.664-223.2 222.592-91.552 10.192-174.768-28.272-226.992-92.944 50.48 40.832 116.944 62.592 188.528 54.688 116.48-12.864 210.64-107.008 223.488-223.488 7.904-71.584-13.872-138.048-54.688-188.528 64.752 52.352 103.36 135.856 92.864 227.68z" fill="#f4c534"/><path d="M416.044 425.806c-5.936 47.584-45.392 86.192-88.128 86.192-42.576 0-72.4-38.608-66.464-86.192 5.904-47.408 45.36-86.016 87.936-86.016 42.736 0 72.56 38.608 66.656 86.016z" fill="#ffd93b"/><g fill="#3e4347"><path d="M389.884 425.806c-3.936 31.52-29.968 57.024-58.336 57.024-28.192 0-47.872-25.504-43.936-57.024 3.904-31.344 29.968-57.024 58.16-57.024 28.352 0 48.016 25.664 44.112 57.024z"/><use xlink:href="#B"/><use xlink:href="#B" x="187.488"/></g><path d="M432.284 87.662c0 16.48-13.28 29.76-29.76 29.76-16.32 0-29.6-13.28-29.6-29.76s29.6-67.52 29.6-67.52 29.76 51.04 29.76 67.52zm68.32 91.738c0 21.328-17.2 38.528-38.528 38.528-21.12 0-38.32-17.2-38.32-38.528 0-21.344 38.32-87.408 38.32-87.408s38.528 66.08 38.528 87.408z" fill="#65b1ef"/><defs ><path id="B" d="M221.372 255.646c-17.76-5.44-37.76-8.48-59.04-8.48s-41.44 3.04-59.2 8.48c-6.88 2.08-12.48-5.44-8.64-11.52 14.24-22.24 39.36-36.96 67.84-36.96 28.32 0 53.44 14.72 67.68 36.96 3.84 6.08-1.76 13.6-8.64 11.52z"/></defs></svg>