<svg xmlns="http://www.w3.org/2000/svg" viewBox="0 0 512.004 512.004" xmlns:v="https://vecta.io/nano"><circle cx="256.008" cy="256.002" r="237.904" fill="#ffd93b"/><path d="M493.912 256.002c0 131.44-106.544 237.904-237.904 237.904-74.8 0-141.552-34.496-185.2-88.544 40.816 33.008 92.784 52.72 149.36 52.72 131.376 0 237.904-106.464 237.904-237.904 0-56.576-19.696-108.544-52.72-149.36 53.984 43.632 88.56 110.384 88.56 185.184z" fill="#f4c534"/><g fill="#fff"><circle cx="161.288" cy="231.538" r="72.256"/><circle cx="350.744" cy="231.538" r="72.256"/></g><ellipse transform="matrix(-.707 -.7072 .7072 -.707 136.4398 549.5283)" cx="182.054" cy="246.501" rx="31.904" ry="31.888" fill="#3e4347"/><path d="M198.504 256.162c-3.36 0-5.936-4.352-5.936-9.68s2.576-9.68 5.936-9.68c3.168 0 5.92 4.352 5.92 9.68.016 5.328-2.656 9.776-5.92 9.68z" fill="#fff"/><ellipse transform="matrix(-.7072 -.707 .707 -.7072 389.0722 654.1697)" cx="329.992" cy="246.521" rx="31.904" ry="31.888" fill="#3e4347"/><path d="M313.544 256.2c3.36 0 5.92-4.352 5.92-9.68s-2.576-9.68-5.936-9.68c-3.168 0-5.92 4.352-5.92 9.68s2.672 9.776 5.936 9.68z" fill="#fff"/><path d="M503.32 349.554c-60.064 81.04-152.56 129.504-247.28 129.504-94.864 0-187.344-48.464-247.28-129.504-14.72-19.92-10.416-47.872 9.36-62.448s47.728-10.416 62.304 9.36c43.264 58.432 108.992 93.376 175.6 93.376s132.192-34.944 175.456-93.376c14.72-19.776 42.672-23.936 62.448-9.36 19.792 14.576 23.952 42.528 9.392 62.448z" fill="#ffd93b"/><path d="M482.344 334.082c-55.168 74.496-139.776 118.96-226.304 118.96-86.688 0-171.296-44.448-226.304-118.96-6.24-8.32-4.464-19.92 3.872-26.016 8.176-6.096 19.92-4.304 26.016 3.872 48.032 65.12 121.488 103.936 196.416 103.936 74.784 0 148.24-38.8 196.416-103.936 6.096-8.336 17.696-10.112 26.016-3.872 8.192 6.096 9.968 17.696 3.872 26.016zm-83.088-208.544c-19.968-55.776-75.088-46.8-77.424-46.384-6.064 1.072-11.856-2.976-12.912-9.04-1.072-6.064 2.976-11.856 9.04-12.912 26.192-4.576 81.296 2.16 102.288 60.816 2.08 5.808-.944 12.192-6.736 14.256-5.696 2.048-12.16-.864-14.256-6.736zm-300.752 6.736a11.15 11.15 0 0 1-6.736-14.256c20.992-58.656 76.128-65.488 102.288-60.816 6.064 1.056 10.128 6.832 9.04 12.912-1.04 6.048-6.8 10-12.864 9.056h0c-2.384-.4-57.648-9.072-77.472 46.368-2.096 5.872-8.56 8.784-14.256 6.736z" fill="#3e4347"/></svg>