<svg xmlns="http://www.w3.org/2000/svg" viewBox="0 0 512 512" xmlns:v="https://vecta.io/nano"><circle cx="196.016" cy="256" r="196.016" fill="#ffd93b"/><path d="M392.032 256c0 108.304-87.776 196.016-196.016 196.016-61.616 0-116.624-28.416-152.592-72.96 33.632 27.2 76.448 43.424 123.056 43.424 108.24 0 196.016-87.712 196.016-196.016 0-46.608-16.224-89.44-43.424-123.056 44.48 35.968 72.96 90.976 72.96 152.592z" fill="#f4c534"/><g fill="#fff"><circle cx="117.952" cy="209.6" r="59.536"/><circle cx="274.08" cy="209.6" r="59.536"/></g><g fill="#3e4347"><path d="M99.152 381.872c50.176 51.52 143.92 50.144 193.728 0 7.392-7.44 10.192-17.52 9.584-28.976 1.904-36.352-34.56-54.72-106.448-53.824-71.872-.944-108.336 17.456-106.448 53.824-.592 11.456 2.272 21.456 9.584 28.976z"/><circle cx="130.192" cy="209.6" r="26.272"/></g><ellipse transform="matrix(-.7071 -.7071 .7071 -.7071 97.2279 440.19)" cx="139.78" cy="199.958" rx="7.984" ry="4.88" fill="#fff"/><circle cx="261.792" cy="209.6" r="26.272" fill="#3e4347"/><g fill="#fff"><ellipse transform="matrix(-.7071 -.7071 .7071 -.7071 321.8199 533.3448)" cx="271.369" cy="200.021" rx="7.984" ry="4.88"/><path d="M196.016 325.712c36.384 0 69.632-.288 95.312-3.328-15.664-15.984-47.648-23.904-95.312-23.312-47.68-.624-79.664 7.296-95.328 23.296 25.68 3.056 58.928 3.344 95.328 3.344z"/></g><path d="M322.576 141.472c-.128 4.304-5.664 6.224-8.64 3.088-21.552-22.768-47.552-39.888-70.208-46.656-4.56-1.328-4.688-7.776-.16-9.568 36.16-14.176 80.656 14.768 79.008 53.136zm-253.12 0c.128 4.304 5.664 6.224 8.64 3.088 21.568-22.768 47.552-39.888 70.208-46.656 4.56-1.328 4.688-7.776.16-9.568-36.16-14.176-80.656 14.768-79.008 53.136z" fill="#3e4347"/><path d="M275.04 396.416c-2.24-3.984-4.704-7.808-7.504-11.376-14.176-18.24-39.024-26.384-60.576-18.032-7.248 2.848-15.504 4.4-24.848 4.4-2.192 0-4.288-.112-6.368-.224-23.056-1.952-45.76 7.456-58.288 25.808 45.84 31.04 112.096 30.192 157.584-.576zM511.76 275.28c-3.6 41.072-47.136 70.976-97.376 66.56-3.568-.32-7.008-.736-10.432-1.392L340.8 362.736c-4.832 1.744-9.552-3.36-7.328-8.08l18.656-40.352c-15.248-14.896-23.856-34.368-22.048-54.96 3.616-41.2 47.248-70.96 97.376-66.56 50.24 4.4 87.92 41.296 84.304 82.496z" fill="#e24b4b"/><path d="M466.208 257.488c-.288 21.376-32.832 45.584-43.712 53.024-1.952 1.376-4.8 1.376-6.768 0-10.688-7.744-42.736-32.64-42.544-54.016.288-27.152 38.432-32.64 46.656-7.152 3.232-9.504 12.352-16.08 22.736-16.08 13.248.192 23.84 11.088 23.632 24.224z" fill="#fff"/></svg>