<svg xmlns="http://www.w3.org/2000/svg" viewBox="0 0 512 512" xmlns:v="https://vecta.io/nano"><circle cx="256" cy="256" r="256" fill="#ffd93b"/><path d="M512 256c0 141.44-114.64 256-256 256-80.48 0-152.32-37.12-199.28-95.28 43.92 35.52 99.84 56.72 160.72 56.72 141.36 0 256-114.56 256-256 0-60.88-21.2-116.8-56.72-160.72C474.8 103.68 512 175.52 512 256z" fill="#f4c534"/><path d="M288.096 418.128c0 17.76-14.4 32.16-32.16 32.16-17.6 0-32-14.4-32-32.16 0-17.6 14.4-32 32-32 17.744 0 32.16 14.4 32.16 32zM240.016 281.6c-19.472-16.048-48.272-26.048-80.368-26.048-33.936 0-64.192 11.184-83.664 28.816 5.392-40.656 40.112-71.952 82.208-71.952 41.184-.016 75.376 29.84 81.824 69.184zm196 0c-19.472-16.048-48.272-26.048-80.384-26.048-33.936 0-64.192 11.184-83.664 28.816 5.392-40.656 40.112-71.952 82.224-71.952 41.184-.016 75.376 29.84 81.824 69.184z" fill="#3e4347"/></svg>