<svg xmlns="http://www.w3.org/2000/svg" viewBox="0 0 512 512" xmlns:v="https://vecta.io/nano"><circle cx="256" cy="256" r="256" fill="#ffd93b"/><g fill="#f4c534"><path d="M512 256c0 141.44-114.64 256-256 256-80.48 0-152.32-37.12-199.28-95.28 43.92 35.52 99.84 56.72 160.72 56.72 141.36 0 256-114.56 256-256 0-60.88-21.2-116.8-56.72-160.72C474.8 103.68 512 175.52 512 256z"/><ellipse cx="151.552" cy="267.088" rx="78.656" ry="78.736"/></g><path d="M230.208 267.088s-35.232 38.976-78.656 38.976-78.656-38.976-78.656-38.976 35.232-38.912 78.656-38.912 78.656 38.912 78.656 38.912z" fill="#fff"/><path d="M172.064 253.616c-17.824 0-32.256 14.432-32.256 32.256 0 7.568 2.704 14.432 7.072 19.936 1.552.112 3.088.256 4.672.256 20.192 0 38.56-8.432 52.496-17.456.08-.912.272-1.792.272-2.736 0-17.84-14.432-32.256-32.256-32.256z" fill="#3e4347"/><path d="M190.032 271.44c-1.136 1.968-5.232 1.968-9.2-.288-3.824-2.128-6.08-5.52-4.96-7.648 1.136-1.984 5.232-1.84 9.2.288 3.824 2.272 6.096 5.664 4.96 7.648z" fill="#fff"/><path d="M92.032 160.416s62.336-30.944 140.144 26.528c0 0-65.44-104.768-140.144-26.528z" fill="#3e4347"/><ellipse cx="358.496" cy="267.088" rx="78.656" ry="78.736" fill="#f4c534"/><path d="M437.152 267.088s-35.232 38.976-78.656 38.976c-43.44 0-78.656-38.976-78.656-38.976s35.232-38.912 78.656-38.912 78.656 38.912 78.656 38.912z" fill="#fff"/><path d="M379.008 253.616c-17.824 0-32.256 14.432-32.256 32.256 0 7.568 2.72 14.432 7.072 19.936 1.552.112 3.088.256 4.672.256 20.192 0 38.56-8.432 52.496-17.456.08-.912.272-1.792.272-2.736 0-17.84-14.432-32.256-32.256-32.256z" fill="#3e4347"/><path d="M396.96 271.44c-1.136 1.968-5.232 1.968-9.2-.288-3.824-2.128-6.08-5.52-4.944-7.648 1.136-1.984 5.232-1.84 9.2.288 3.824 2.272 6.08 5.664 4.944 7.648z" fill="#fff"/><path d="M439.104 160.416s-62.336-30.944-140.144 26.528c0 0 65.44-104.768 140.144-26.528zM325.84 400c0 12.16-9.92 22.08-22.08 22.08h-95.68c-12.16 0-21.92-9.92-21.92-22.08a21.85 21.85 0 0 1 21.92-21.92h95.68c12.16 0 22.08 9.76 22.08 21.92z" fill="#3e4347"/></svg>