<svg xmlns="http://www.w3.org/2000/svg" xmlns:xlink="http://www.w3.org/1999/xlink" viewBox="0 0 512.007 512.007" xmlns:v="https://vecta.io/nano"><circle cx="256.004" cy="251.168" r="251.168" fill="#ffd93b"/><path d="M507.172 251.168c0 138.768-112.48 251.168-251.168 251.168-78.96 0-149.456-36.416-195.52-93.488 43.088 34.848 97.952 55.648 157.696 55.648 138.688 0 251.184-112.4 251.184-251.168 0-59.728-20.8-114.592-55.648-157.696 56.96 46.096 93.456 116.576 93.456 195.536z" fill="#f4c534"/><path d="M324.644 511.984c-52.832 1.536-56.24-73.872-91.712-141.232l125.472-35.536c32.176 90.576-2.832 177.696-33.76 176.768z" fill="#e24b4b"/><g fill="#fff"><ellipse cx="139.524" cy="205.856" rx="83.12" ry="83.04"/><ellipse cx="372.484" cy="205.856" rx="83.12" ry="83.04"/></g><g fill="#3e4347"><path d="M471.38 194.416c-5.168-46.544-43.472-83.728-90.128-87.712-24.496-2.096-47.36 4.752-65.68 17.6-17.488 12.272-38 18.976-59.376 19.024-.304 0-.608 0-.928.048-21.168.464-41.728-7.168-59.12-19.28-16.064-11.2-35.552-17.744-56.56-17.744-54.368 0-98.72 43.68-99.632 97.744-.864 52.432 40.4 97.536 92.672 101.12 56.464 3.888 105.104-40.144 106.288-97.184.096-5.424 2.304-10.848 6.752-14.016 1.184-.816 2.448-1.536 3.728-2.048 11.104-4.4 23.424 4.288 23.68 16.208 1.184 54.464 45.872 97.232 99.488 97.232 58.608 0 105.52-50.992 98.816-110.992zM139.588 281.12c-41.536 0-75.344-33.808-75.344-75.28 0-41.488 33.808-75.184 75.344-75.184 41.424 0 75.136 33.696 75.136 75.184 0 41.472-33.712 75.28-75.136 75.28zm232.976 0c-41.536 0-75.344-33.808-75.344-75.28 0-41.488 33.808-75.184 75.344-75.184 41.424 0 75.136 33.696 75.136 75.184 0 41.472-33.712 75.28-75.136 75.28z"/><use xlink:href="#B"/></g><path d="M168.996 230.944c-2.24 2.24-6.864.848-10.656-2.96-3.792-3.648-5.056-8.4-2.944-10.512 2.24-2.24 6.864-.832 10.656 2.8 3.792 3.792 5.04 8.56 2.944 10.672z" fill="#fff"/><use xlink:href="#B" x="209.312" fill="#3e4347"/><path d="M378.308 230.944c-2.24 2.24-6.88.848-10.656-2.96-3.792-3.648-5.056-8.4-2.944-10.512 2.24-2.24 6.864-.832 10.656 2.8 3.776 3.792 5.04 8.56 2.944 10.672z" fill="#fff"/><path d="M403.924 336.624c-31.04 4.432-56.624 2.992-135.328 27.152-50.736 14.976-113.184 43.712-128.88 50.384 22.592-19.568 68.848-47.888 124.176-65.296 46.464-14.192 92.064-21.088 140.032-12.24z" fill="#3e4347"/><defs ><path id="B" d="M180.548 235.136c0 16.096-13.04 29.136-29.264 29.136-16.096 0-29.136-13.04-29.136-29.136 0-16.24 13.04-29.28 29.136-29.264 16.224-.016 29.264 13.024 29.264 29.264z"/></defs></svg>