<svg xmlns="http://www.w3.org/2000/svg" viewBox="0 0 512 512" xmlns:v="https://vecta.io/nano"><circle cx="256" cy="256" r="256" fill="#ffd93b"/><path d="M512 256c0 141.44-114.64 256-256 256-80.48 0-152.32-37.12-199.28-95.28 43.92 35.52 99.84 56.72 160.72 56.72 141.36 0 256-114.56 256-256 0-60.88-21.2-116.8-56.72-160.72C474.8 103.68 512 175.52 512 256z" fill="#f4c534"/><path d="M391.808 375.088c-11.52 41.6-48.16 73.28-92.16 78.4-29.12 3.36-58.24 3.36-87.52 0-43.84-5.12-80.48-36.8-92-78.4-1.44-5.28 2.88-10.24 8.16-9.28 85.12 14.08 170.24 14.08 255.36 0 5.28-.96 9.6 4 8.16 9.28z" fill="#3e4347"/><path d="M137.584 367.152c5.616 9.968 13.696 16.88 23.424 24.576 9.84 7.632 21.344 13.2 33.984 14.896 40.384 5.648 81.296 5.648 121.984 0 12.48-1.696 24-7.072 33.696-14.72 9.808-7.776 17.984-14.688 23.648-24.736-78.912 12.096-157.824 12.096-236.736-.016z" fill="#fff"/><path d="M313.936 214.784c0 75.136-61.28 136.416-136.608 136.416-75.136 0-136.416-61.296-136.416-136.416 0-75.312 61.28-136.608 136.416-136.608 75.312.016 136.608 61.296 136.608 136.608z" fill="#f4c534"/><path d="M282.464 214.768c0 57.856-47.04 104.896-105.056 104.896-57.856 0-104.896-47.04-104.896-104.896 0-58.016 47.04-105.056 104.896-105.056 58.016.016 105.056 47.056 105.056 105.056z" fill="#fff"/><path d="M237.952 214.784c0 33.232-27.136 60.368-60.544 60.368-33.232 0-60.176-27.136-60.176-60.368 0-33.216 26.944-60.368 60.176-60.368 33.408 0 60.544 27.152 60.544 60.368z" fill="#3e4347"/><path d="M471.088 218.448c0 49.808-40.56 90.368-90.544 90.368-49.808 0-90.368-40.56-90.368-90.368s40.56-90.368 90.368-90.368c49.984.016 90.544 40.576 90.544 90.368z" fill="#f4c534"/><circle cx="380.656" cy="218.48" r="64.16" fill="#fff"/><path d="M422.432 218.448c0 22.944-18.848 41.616-41.808 41.616-22.944 0-41.44-18.672-41.44-41.616s18.496-41.616 41.44-41.616 41.808 18.672 41.808 41.616z" fill="#3e4347"/><g fill="#fff"><circle cx="365.504" cy="202.448" r="11.92"/><path d="M171.872 191.52c0 9.056-7.2 16.24-16.24 16.24-8.864 0-16.24-7.2-16.24-16.24 0-8.864 7.376-16.24 16.24-16.24 9.04 0 16.24 7.392 16.24 16.24z"/><circle cx="380.672" cy="216.144" r="5.52"/><circle cx="176.64" cy="211.104" r="9.232"/></g></svg>