<svg xmlns="http://www.w3.org/2000/svg" viewBox="0 0 512 512" xmlns:v="https://vecta.io/nano"><circle cx="256" cy="256" r="256" fill="#ffd93b"/><path d="M512 256c0 141.44-114.64 256-256 256-80.48 0-152.32-37.12-199.28-95.28 43.92 35.52 99.84 56.72 160.72 56.72 141.36 0 256-114.56 256-256 0-60.88-21.2-116.8-56.72-160.72C474.8 103.68 512 175.52 512 256zm-267.28-29.568c0 44.496-36.064 80.56-80.416 80.56-44.496 0-80.544-36.048-80.544-80.56 0-44.368 36.064-80.416 80.544-80.416 44.352 0 80.416 36.048 80.416 80.416z" fill="#f4c534"/><circle cx="164.256" cy="226.48" r="63.664" fill="#fff"/><path d="M196.272 226.432c0 17.552-14.416 32.112-31.984 31.984-17.552 0-31.968-14.432-31.968-31.984s14.416-31.984 31.968-31.984c17.568 0 31.984 14.432 31.984 31.984z" fill="#3e4347"/><path d="M244.176 235.136c-4.224 40.416-38.512 71.856-79.872 71.856-41.504 0-75.792-31.44-80-71.856 53.328 20.144 106.528 20.144 159.872 0z" fill="#f4c534"/><ellipse transform="matrix(-.7071 -.7071 .7071 -.7071 148.6226 490.994)" cx="175.999" cy="214.716" rx="8.704" ry="5.984" fill="#fff"/><path d="M267.28 226.432c0 44.496 36.064 80.56 80.416 80.56 44.496 0 80.56-36.048 80.56-80.56 0-44.368-36.064-80.416-80.56-80.416-44.352 0-80.416 36.048-80.416 80.416z" fill="#f4c534"/><circle cx="347.744" cy="226.48" r="63.664" fill="#fff"/><path d="M315.728 226.432c0 17.552 14.416 32.112 31.984 31.984 17.552 0 31.968-14.432 31.968-31.984s-14.416-31.984-31.968-31.984c-17.568 0-31.984 14.432-31.984 31.984z" fill="#3e4347"/><path d="M267.824 235.136c4.224 40.416 38.512 71.856 79.872 71.856 41.504 0 75.792-31.44 80.016-71.856-53.344 20.144-106.544 20.144-159.888 0z" fill="#f4c534"/><ellipse transform="matrix(-.7071 -.7071 .7071 -.7071 421.6843 604.0718)" cx="335.95" cy="214.702" rx="5.984" ry="8.704" fill="#fff"/><path d="M390.8 348.224c13.712 7.008-28.128 88.4-133.296 88.24-105.168.144-147.008-81.232-133.296-88.24 11.184-8.736 60.336 33.856 133.296 31.936 72.96 1.888 122.112-40.64 133.296-31.936z" fill="#3e4347"/><path d="M391.472 387.648c6.288-11.76 15.76-34.096 7.472-44.608-10.048-13.328-26.816-6.352-43.6-1.648 16.048-11.264 36.752-17.616 48.768-2.112 9.824 13.984-.304 36.72-12.64 48.368zm-270.944 0c-6.288-11.76-15.76-34.096-7.456-44.608 10.048-13.328 26.816-6.352 43.6-1.648-16.048-11.264-36.752-17.616-48.768-2.112-9.84 13.984.288 36.72 12.624 48.368z" fill="#f4c534"/><path d="M58.928 129.568s47.024-53.408 110-46.448c-.016 0-68.96-57.056-110 46.448zm394.144 0s-47.024-53.408-110-46.448c.016 0 68.96-57.056 110 46.448z" fill="#3e4347"/><path d="M259.328 380.144l3.904 35.312c.256 3.088 2.448 5.488 5.232 5.824 14.288.928 30.064-3.616 37.168-6 2.272-.624 3.84-3.008 4.016-5.616l2.576-36.176c-15.744 4.128-33.44 6.96-52.896 6.656zm-56.992-6.752l2.576 36.288c.176 2.592 1.744 4.992 4.016 5.616 7.104 2.368 22.88 6.928 37.168 6 2.8-.336 4.976-2.72 5.232-5.824l3.904-35.312c-19.456.24-37.152-2.608-52.896-6.768z" fill="#fff"/></svg>