<svg xmlns="http://www.w3.org/2000/svg" viewBox="0 0 512 512" xmlns:v="https://vecta.io/nano"><circle cx="256" cy="256" r="256" fill="#ffd93b"/><path d="M512 256c0 141.44-114.64 256-256 256-80.48 0-152.32-37.12-199.28-95.28 43.92 35.52 99.84 56.72 160.72 56.72 141.36 0 256-114.56 256-256 0-60.88-21.2-116.8-56.72-160.72C474.8 103.68 512 175.52 512 256z" fill="#f4c534"/><path d="M421.568 346.624c-24.912 60.864-89.68 104.256-165.616 104.256S115.424 407.488 90.336 346.624c-2.704-6.784 1.184-14.4 8.304-15.76 105.264-19.152 210.192-18.992 314.624 0 7.12 1.36 11.008 8.976 8.304 15.76z" fill="#3e4347"/><path d="M104.928 329.856c38.544 56 74.288 48.944 150.64 53.84 73.728 4.72 115.792 11.68 150.704-53.952-100.032-17.376-200.528-17.488-301.344.112z" fill="#fff"/><path d="M226.192 200.288c-49.232-8.272-108.064 17.136-136.736 59.424-4.288 6.352-14.336 3.536-14.928-4-3.104-50.704 37.248-97.568 92.096-97.568 26.32 0 49.968 11.088 66.816 28.832 5.328 5.472.144 14.496-7.248 13.312zm59.6 0c49.232-8.272 108.064 17.136 136.736 59.424 4.288 6.352 14.336 3.536 14.928-4 3.104-50.704-37.248-97.568-92.096-97.568-26.304 0-49.968 11.088-66.816 28.832-5.312 5.472-.128 14.496 7.248 13.312z" fill="#3e4347"/></svg>