<svg xmlns="http://www.w3.org/2000/svg" viewBox="0 0 512.006 512.006" xmlns:v="https://vecta.io/nano"><circle cx="255.987" cy="241.6" r="241.6" fill="#ffd93b"/><path d="M497.62 241.632c0 133.504-108.208 241.632-241.632 241.632-75.968 0-143.776-35.04-188.096-89.936 41.456 33.52 94.24 53.536 151.696 53.536 133.424 0 241.632-108.128 241.632-241.632 0-57.456-20.016-110.24-53.536-151.696 54.816 44.32 89.936 112.128 89.936 188.096z" fill="#f4c534"/><path d="M392.963 366.928c-9.488 6.384-59.248-45.616-131.456-43.344-72.032-1.984-121.712 49.84-131.44 43.344-13.456-4.272 32.4-98.64 131.28-98.544 99.056-.016 144.816 94.48 131.616 98.544zM225.155 201.792c-11.168-3.392-23.248-4.896-35.744-3.952-24.4 1.856-45.712 12.4-60.896 27.936-5.2 5.248-13.744.592-12.624-6.608 4.272-29.552 28.528-53.344 59.696-55.712 23.488-1.776 45.072 9.152 57.776 26.976 4.08 5.584-1.536 13.44-8.208 11.36zm61.665 0c11.168-3.392 23.248-4.896 35.744-3.952 24.4 1.856 45.712 12.4 60.896 27.936 5.2 5.248 13.744.592 12.624-6.608-4.272-29.552-28.528-53.344-59.696-55.712-23.488-1.776-45.072 9.152-57.776 26.976-4.08 5.584 1.536 13.44 8.208 11.36z" fill="#3e4347"/><path d="M336.643 340v154.336c0 23.408-150.416 23.712-150.416 0V340.144c9.696-43.424 139.008-42.944 150.416-.144z" fill="#8cc63e"/></svg>