<svg xmlns="http://www.w3.org/2000/svg" viewBox="0 0 512 512" xmlns:v="https://vecta.io/nano"><circle cx="256" cy="256" r="256" fill="#ffd93b"/><path d="M512 256c0 141.44-114.64 256-256 256-80.48 0-152.32-37.12-199.28-95.28 43.92 35.52 99.84 56.72 160.72 56.72 141.36 0 256-114.56 256-256 0-60.88-21.2-116.8-56.72-160.72C474.8 103.68 512 175.52 512 256z" fill="#f4c534"/><path d="M387.712 149.952c-9.152-19.392-49.472-65.44-86.96-44.496 31.152-46.96 80.72-25.936 86.96 44.496zm-263.424 0c9.152-19.392 49.488-65.44 86.96-44.496-31.152-46.96-80.72-25.936-86.96 44.496zm106.976 72.352c-8.16 26.72-37.44 49.76-73.76 41.12-31.84-7.68-51.04-41.44-46.24-69.44.96-5.12 7.84-6.24 11.36-2.24 20.8 24.32 68.8 35.36 100.16 23.2 4.96-1.92 10.08 2.384 8.48 7.36zm123.2 41.104c-36.32 8.64-65.6-14.4-73.76-41.12-1.6-4.96 3.68-9.28 8.48-7.36 31.36 12.16 79.36 1.12 100.32-23.2 3.36-4 10.24-2.88 11.2 2.24 4.96 28-14.24 61.76-46.24 69.44zM128.176 406.896c19.68-60.672 73.04-106.336 127.776-106.544 54.848.208 108.192 45.92 127.872 106.544 2.384 7.632-7.232 14.72-16.56 11.936-77.504-23.392-145.152-23.296-222.656 0-9.2 2.768-18.816-4.24-16.432-11.936z" fill="#3e4347"/><path d="M185.376 325.92c21.296 3.728 45.216 5.872 70.624 5.872 25.392 0 49.312-2.144 70.592-5.872-21.264-15.952-45.776-25.472-70.656-25.568-24.816.096-49.328 9.6-70.56 25.568z" fill="#fff"/><path d="M304.4 364.928c-9.808-3.968-20.656-3.392-30.464.704-9.216 3.728-19.84 5.952-31.872 5.952-6.192 0-11.904-.576-17.392-1.632-16.224-3.152-33.616.928-44.72 13.184-6.768 7.36-10.624 15.872-10.624 24.976 0 1.36.16 2.688.336 4.032 59.104-14.24 113.584-14.288 172.688.016.176-1.344.336-2.672.336-4.048 0-18.096-15.184-33.84-38.288-43.184z" fill="#e24b4b"/></svg>