<svg xmlns="http://www.w3.org/2000/svg" viewBox="0 0 512.004 512.004" xmlns:v="https://vecta.io/nano"><circle cx="256.002" cy="232.336" r="232.336" fill="#ffd93b"/><path d="M488.338 232.336c0 128.368-104.048 232.336-232.336 232.336-73.04 0-138.24-33.696-180.864-86.48 39.856 32.24 90.608 51.472 145.856 51.472 128.288 0 232.336-103.968 232.336-232.336 0-55.248-19.232-106-51.472-145.856 52.72 42.624 86.48 107.824 86.48 180.864z" fill="#f4c534"/><path d="M208.578 198.352l-19.6 19.6 19.6 19.6c6.24 6.24 6.24 16.704 0 22.944l-.144.144c-6.24 6.24-16.704 6.24-22.944 0l-19.6-19.6-19.6 19.6c-6.24 6.24-16.704 6.24-22.944 0l-.144-.144c-6.24-6.24-6.24-16.704 0-22.944l19.6-19.6-19.6-19.6c-6.24-6.24-6.24-16.704 0-23.088 6.368-6.352 17.312-6.048 23.088 0l19.6 19.6 19.6-19.6c6.24-6.24 16.704-6.24 22.944 0h.144c6.24 6.4 6.24 16.848 0 23.088zm180.24 62.16v.144c-6.384 6.24-16.848 6.24-23.088 0l-19.6-19.6-19.456 19.6c-6.384 6.24-16.848 6.24-23.088 0v-.144c-6.384-6.24-6.384-16.704 0-22.944l19.456-19.6-19.456-19.6c-6.384-6.24-6.384-16.704 0-23.088 6.432-6.416 17.088-6 23.088 0l19.456 19.6 19.6-19.6c6.24-6.24 16.704-6.24 23.088 0 6.224 6.528 6.176 16.912 0 23.088l-19.6 19.6 19.6 19.6c6.24 6.24 6.24 16.704 0 22.944zm3.904 51.632c12.032 3.056-27.744 94.592-135.28 94.368-107.568.416-147.424-91.168-135.168-94.368 8.464-5.552 54.912 52.112 135.28 52.112 80.432.016 126.928-57.488 135.168-52.112z" fill="#3e4347"/><path d="M375.9 294.064s41.616-3.84 38.016 27.552c0 0 17.6-48.128-38.016-27.552zm-239.786 0s-41.616-3.84-38.016 27.552c0 0-17.6-48.128 38.016-27.552z" fill="#f4c534"/><path d="M125.858 312.112h-3.632c.864-.576 2.032-.432 3.632 0z" fill="#3e4347"/><path d="M257.4 512c-31.376.56-65.264-54.8-64.56-123.616 1.088-11.984 13.776-17.776 24.704-13.728 25.728 8.992 53.856 9.28 79.888.896 10.912-3.76 23.568 2.176 24.64 13.904.608 67.36-33.312 122.08-64.672 122.544z" fill="#e24b4b"/></svg>