<svg xmlns="http://www.w3.org/2000/svg" viewBox="0 0 512 512" xmlns:v="https://vecta.io/nano"><circle cx="256" cy="256" r="256" fill="#ffd93b"/><path d="M510.784 256c0 141.44-114.64 256-256 256-80.48 0-152.32-37.12-199.28-95.28 43.92 35.52 99.84 56.72 160.72 56.72 141.36 0 256-114.56 256-256 0-60.88-21.2-116.8-56.72-160.72 58.08 46.96 95.28 118.8 95.28 199.28z" fill="#f4c534"/><path d="M334.48 76.224c-87.36-51.84-151.68-4.32-156.96-.32 78.48-109.904 156.96.32 156.96.32z" fill="#3e4347"/><circle cx="256" cy="207.424" r="118.08" fill="#f4c534"/><ellipse cx="256" cy="207.424" rx="118.08" ry="86.592" fill="#de9c25"/><path d="M374.032 207.424c0 24.64-52.8 44.64-118.08 44.64s-118.08-20-118.08-44.64c0-47.84 52.8-86.56 118.08-86.56s118.08 38.72 118.08 86.56z" fill="#fff"/><path d="M293.92 249.664c-11.84 1.6-24.64 2.4-37.92 2.4s-26.08-.8-37.92-2.4c-32.32-32.88-8.624-89.28 37.92-89.28 46.416 0 70.352 56.288 37.92 89.28z" fill="#3e4347"/><ellipse transform="matrix(-.7071 -.7071 .7071 -.7071 335.269 524.4749)" cx="276.257" cy="192.801" rx="15.856" ry="8.8" fill="#fff"/><path d="M384.592 355.232c15.744 8.864-22.048 91.184-128.592 91.232-106.544-.048-144.336-82.352-128.592-91.232 12.96-10.88 56.016 32.304 128.592 30.976 72.576 1.344 115.616-41.872 128.592-30.976z" fill="#3e4347"/><path d="M317.568 409.584c.608 1.808 2.432 2.832 4.016 2.256l22.48-8.224c1.344-.48 1.984-2.016 1.52-3.568l-7.36-31.296c-8.512 3.552-18.144 7.136-28.864 10.16l8.208 30.672zm-40.08 14.464c.784 2.256 3.024 3.632 5.12 3.024l25.392-7.28c2.288-.688 3.376-3.376 2.48-5.84l-3.776-34.256c-11.296 3.04-23.664 5.36-37.008 6.176l7.792 38.176zm-99.296-53.488l-6.944 30.496c-.448 1.568.208 3.088 1.552 3.584l17.632 7.184c1.568.576 3.392-.464 4-2.256l8.224-30.656c-8.896-2.512-17.072-5.392-24.464-8.352zm27.12 9.136l-3.776 34.256c-.896 2.464.176 5.152 2.48 5.84l37.888 8.944c2.112.608 4.336-.784 5.072-3.04l7.344-39.536c-17.936.144-34.384-2.544-49.008-6.464z" fill="#fff"/><path d="M401.76 384.64c1.696-11.888 6.912-24.32.56-35.488-3.472-7.68-11.552-12.624-17.984-14.08-8.448-1.488-4.272-.08-11.76-.992 16.384-6.848 29.76-.56 36.176 11.856 6.656 13.952 1.52 26.496-6.992 38.704zm-291.52 0c-1.696-11.888-6.912-24.32-.56-35.488 3.472-7.68 11.536-12.624 17.984-14.08 8.448-1.488 4.272-.08 11.76-.992-16.384-6.848-29.76-.56-36.176 11.856-6.656 13.952-1.52 26.496 6.992 38.704z" fill="#f4c534"/></svg>