<svg xmlns="http://www.w3.org/2000/svg" viewBox="0 0 512 512" xmlns:v="https://vecta.io/nano"><circle cx="256" cy="256" r="256" fill="#ffd93b"/><path d="M473.216 254.992l-.8 1.76c-3.52 8.64-12.96 14.56-23.68 14.56h-1.76l-136.16-13.76c-9.28-1.12-24.64-7.52-25.44-36.96-.64-29.12 15.04-87.52 41.44-91.84l104.64-13.76c.48-.16 1.92-.16 2.88-.16 9.28 0 17.92 5.12 22.72 13.28 24.64 41.44 30.56 88.96 16.16 126.88zM205.52 145.072c14.4 21.12 25.6 60.8 18.24 92.64-2.4 10.56-11.04 18.4-22.24 19.84l-135.68 13.76c-1.44 0-2.24.16-3.36.16-10.4 0-19.84-6.4-23.36-15.84-14.88-37.76-8.96-85.6 15.84-127.68 3.04-5.76 9.6-12.96 23.52-12.96l106.08 13.6c7.856 1.6 14.576 6.88 20.96 16.48z" fill="#fff"/><path d="M512 256c0 141.44-114.64 256-256 256-80.48 0-152.32-37.12-199.28-95.28 43.92 35.52 99.84 56.72 160.72 56.72 141.36 0 256-114.56 256-256 0-60.88-21.2-116.8-56.72-160.72C474.8 103.68 512 175.52 512 256z" fill="#f4c534"/><g fill="#3e4347"><path d="M469.856 120.432c-8.32-14.24-24.16-22.4-40.48-20-102.4 13.6-112 11.84-124 22.08-28.8 24.96-73.44 21.76-98.56 0-5.12-4.32-11.2-7.2-20.16-8.32l-104-13.76c-16.16-2.08-32.16 5.76-40.32 20-27.36 46.08-33.44 98.72-16.64 141.12 6.88 17.28 25.76 26.56 41.28 24.32l135.84-13.92c16.32-1.6 30.56-12.64 34.88-28.64 2.72-10.56 3.84-21.92 3.2-33.76-.48-8.48 6.4-16.32 15.04-16.32h.16c21.28 0 11.2 23.2 18.24 50.08 4.16 16 18.56 27.04 34.88 28.64 3.52.48 136.48 14.08 140 14.08 16.32 0 31.36-9.76 37.12-24.48 16.624-42.4 10.72-95.04-16.48-141.12zm-253.92 115.52c-1.6 7.36-7.68 12.64-15.36 13.6l-135.52 13.76c-.64 0-1.28.16-2.56.16-6.88 0-13.44-4.32-15.84-10.72-14.08-35.68-8.32-80.8 15.2-120.8 3.2-6.08 8.8-8.96 16.64-8.96l105.12 13.6c4.96.96 10.08 5.12 15.36 12.96 13.44 19.84 23.824 56.96 16.96 86.4zm249.76 16.16l-.48.96c-2.56 6.24-9.12 10.24-16.48 10.24h-.96l-136.16-13.76c-11.52-1.44-17.76-11.52-18.24-29.12-.64-29.44 15.36-80.64 34.72-83.84l104.32-13.6c.64-.16 1.28-.16 1.92-.16 6.4 0 12.48 3.52 15.84 9.28 23.344 39.52 29.104 84.464 15.52 120z"/><circle cx="351.072" cy="203.712" r="35.376"/></g><path d="M342.224 198.272c-1.888 5.328-6.736 8.608-10.96 7.2-4.384-1.408-6.416-6.896-4.544-12.368 1.728-5.328 6.576-8.608 10.8-7.2 4.384 1.408 6.416 6.896 4.704 12.368z" fill="#fff"/><circle cx="161.12" cy="203.712" r="35.376" fill="#3e4347"/><path d="M160.64 193.12c-1.728 5.328-6.576 8.608-10.96 7.2-4.224-1.408-6.256-6.896-4.544-12.368 1.728-5.328 6.736-8.608 10.96-7.2s6.256 6.88 4.544 12.368z" fill="#fff"/><path d="M389.248 353.952c-19.968 55.616-72.096 95.44-133.28 95.44-61.008 0-113.136-39.824-133.28-95.44-2.912-8 2.896-16.688 9.984-15.12 82.256 16.896 164.512 16.896 246.768 0 7.072-1.568 12.896 7.12 9.808 15.12z" fill="#3e4347"/><path d="M255.968 367.456c9.92 0 19.84-.16 29.92-.64l-1.28 28.48c-9.6.96-19.2 1.28-28.64 1.28-21.6 0-43.2-2.08-64.96-6.08-7.04-1.28-13.92-2.88-20.8-4.48-4.8-1.12-9.44-2.4-14.24-3.84a129.31 129.31 0 0 1-14.88-25.44c9.12 1.76 18.24 3.2 27.36 4.48 6.08.96 12.32 1.76 18.4 2.4 23.2 2.56 46.24 3.84 69.12 3.84zm114.88-10.704c-4 9.28-9.12 17.76-15.04 25.6-16.8 4.8-33.6 8.32-50.4 10.72l-1.28-27.52c22.4-1.776 44.64-4.64 66.72-8.8z" fill="#fff"/><path d="M255.952 449.392c19.184 0 37.472-3.92 54.176-11.008-.72-3.536-1.776-6.96-3.152-10.208-6.688-15.872-24.672-24.704-41.184-19.808-4.16 1.232-8.752 1.92-13.808 1.92-1.728 0-3.392-.08-5.008-.24-20.416-1.952-39.36 10-44.64 28.512 16.544 6.96 34.656 10.832 53.616 10.832z" fill="#e24b4b"/></svg>