<svg xmlns="http://www.w3.org/2000/svg" viewBox="0 0 512 512" xmlns:v="https://vecta.io/nano"><circle cx="256" cy="256" r="256" fill="#ffd93b"/><path d="M512 256c0 141.44-114.64 256-256 256-80.48 0-152.32-37.12-199.28-95.28 43.92 35.52 99.84 56.72 160.72 56.72 141.36 0 256-114.56 256-256 0-60.88-21.2-116.8-56.72-160.72C474.8 103.68 512 175.52 512 256zm-268.608-61.984c0 43.328-42.048 78.48-93.872 78.48s-93.872-35.152-93.872-78.48c0-43.472 42.048-78.608 93.872-78.608 51.84 0 93.872 35.136 93.872 78.608z" fill="#f4c534"/><path d="M157.552 259.616c-43.328 0-82.16-29.376-86.496-65.6-4.496-36.352 27.12-65.744 70.448-65.744s82 29.376 86.496 65.728c4.496 36.24-27.12 65.616-70.448 65.616z" fill="#fff"/><path d="M210.976 199.024a35.13 35.13 0 0 1-35.088 35.088c-19.248-.096-34.816-15.648-34.912-35.088.096-19.248 15.648-34.816 34.896-34.912 19.456.096 35.008 15.664 35.104 34.912z" fill="#3e4347"/><ellipse transform="matrix(-.7071 -.7071 .7071 -.7071 190.6826 451.4551)" cx="188.841" cy="186.236" rx="9.952" ry="7.312" fill="#5a5f63"/><path d="M268.464 194.032c0 51.872 42.08 93.936 93.936 93.936 51.872 0 93.936-42.08 93.936-93.936 0-52.032-42.064-94.096-93.936-94.096-51.856 0-93.936 42.064-93.936 94.096z" fill="#f4c534"/><path d="M354.384 272.56c43.36 0 82.224-35.168 86.56-78.528 4.496-43.52-27.136-78.688-70.496-78.688s-82.048 35.168-86.544 78.688c-4.512 43.344 27.12 78.528 70.48 78.528z" fill="#fff"/><path d="M389.936 192.336a35.14 35.14 0 0 1-35.088 35.088c-19.248-.096-34.816-15.648-34.896-35.088.096-19.248 15.648-34.816 34.896-34.912 19.424.096 34.992 15.664 35.088 34.912z" fill="#3e4347"/><ellipse transform="matrix(-.7071 -.7071 .7071 -.7071 500.8984 566.5726)" cx="367.79" cy="179.547" rx="9.968" ry="7.312" fill="#5a5f63"/><path d="M348.816 417.584c-5.552 3.472-12.784 2.768-17.84-2.272-40.656-41.104-100.736-56.928-156.368-41.104-14.048 4.064-25.136-13.92-13.696-24.4 64.112-58.032 167.072-32.128 194.176 50.944 2.144 6.56-.432 13.264-6.272 16.832z" fill="#3e4347"/></svg>