<svg xmlns="http://www.w3.org/2000/svg" viewBox="0 0 512 512" xmlns:v="https://vecta.io/nano"><circle cx="256" cy="256" r="256" fill="#ffd93b"/><path d="M512 256c0 141.44-114.64 256-256 256-80.48 0-152.32-37.12-199.28-95.28 43.92 35.52 99.84 56.72 160.72 56.72 141.36 0 256-114.56 256-256 0-60.88-21.2-116.8-56.72-160.72C474.8 103.68 512 175.52 512 256z" fill="#f4c534"/><path d="M130.08 378.416c-.576 21.216 23.424 31.68 53.92 36 12.256 1.696 23.968 2.752 34.64 1.984 23.616-1.52 50.688 2.816 75.28 12.88 11.088 4.528 23.488 7.152 36.208 5.984 32.112-2.928 52.448-35.76 51.712-56.384-.752-35.712-27.424-89.632-67.008-75.632-23.456 11.168-93.84 30.896-120.032 20.112-40.528-17.84-62.192 10.992-64.72 55.056z" fill="#3e4347"/><path d="M194.8 323.344c-5.488-2.416-10.592-3.904-15.392-4.688l.272 1.072c9.568 24.8 40.912 29.312 76.304 25.28 34.832-3.792 64.368-13.136 72.992-44.016-4.496-.192-9.216.48-14.144 2.224-23.456 11.184-93.84 30.912-120.032 20.128z" fill="#fff"/><path d="M186.912 411.536c1.6-14.56 12.56-25.904 27.696-33.44 8.128-4.032 18.864-4.672 27.968-.864 5.264 2.256 11.568 3.808 18.768 4 1.68-.032 3.392.08 4.992-.08 23.808-1.984 47.936 9.968 56.752 33.776 1.936 5.136 3.168 10.624 3.776 16.384.128 1.36.128 2.72.176 4.064-11.632.624-22.928-1.952-33.12-6.096-24.592-10.016-51.648-14.432-75.28-12.88-9.856.72-20.592-.24-31.824-1.648.016-1.136-.016-2.096.096-3.216z" fill="#e24b4b"/><ellipse cx="161.936" cy="207.376" rx="86.08" ry="79.952" fill="#f4c534"/><path d="M235.088 207.376c-2.24 36.448-36.8 65.984-77.2 65.984s-71.344-29.552-69.104-65.984c2.24-36.448 36.8-66 77.2-66s71.344 29.552 69.104 66z" fill="#fff"/><ellipse cx="185.648" cy="207.696" rx="36.16" ry="37.92" fill="#3e4347"/><path d="M207.616 193.264c-1.84 2.976-6.656 3.104-10.896.416-4.112-2.544-6.08-7.072-4.24-9.904 1.696-2.832 6.656-3.104 10.752-.432 4.24 2.56 6.224 7.072 4.384 9.92z" fill="#5a5f63"/><ellipse cx="350.064" cy="188.912" rx="86.08" ry="79.952" fill="#f4c534"/><path d="M423.216 188.912c-2.24 36.432-36.8 65.984-77.2 65.984s-71.344-29.552-69.104-65.984c2.24-36.448 36.8-66 77.2-66 40.384.016 71.328 29.568 69.104 66z" fill="#fff"/><ellipse cx="327.616" cy="182.544" rx="36.16" ry="37.92" fill="#3e4347"/><path d="M349.584 168.112c-1.84 2.976-6.656 3.12-10.896.416-4.096-2.544-6.08-7.072-4.24-9.904 1.696-2.832 6.656-3.12 10.752-.432 4.24 2.56 6.224 7.088 4.384 9.92z" fill="#5a5f63"/></svg>