<svg xmlns="http://www.w3.org/2000/svg" viewBox="0 0 512 512" xmlns:v="https://vecta.io/nano"><circle cx="256" cy="256" r="256" fill="#ffd93b"/><path d="M440.672 296.592c-18.56 85.12-94.08 148.8-184.64 148.8s-166.24-63.68-184.8-148.8c-1.44-6.72 4.48-12.8 11.2-11.2 115.68 27.52 231.36 27.52 347.04 0 6.88-1.616 12.8 4.48 11.2 11.2z" fill="#3e4347"/><path d="M346.304 412.528c.032-.64.192-1.232.192-1.888 0-33.44-27.04-60.64-60.64-60.64-16.48 0-31.36 6.56-42.08 17.12-8.64-4.96-18.72-7.68-29.44-7.68-30.8 0-56.032 23.168-59.856 53.072l191.824.016z" fill="#e24b4b"/><path d="M512 256c0 141.44-114.64 256-256 256-80.48 0-152.32-37.12-199.28-95.28 43.92 35.52 99.84 56.72 160.72 56.72 141.36 0 256-114.56 256-256 0-60.88-21.2-116.8-56.72-160.72C474.8 103.68 512 175.52 512 256z" fill="#f4c534"/><g fill="#fff"><path d="M94.128 287.744c28.256 41.664 89.296 54.784 161.872 54.784s133.616-13.12 161.872-54.784c-107.92 23.888-215.824 23.888-323.744 0zm20.976 94.288C149.712 420.8 199.92 445.328 256 445.328c56.448 0 106.928-24.848 141.568-64.048-95.008 27.168-191.44 28.56-282.464.752z"/><path d="M315.072 375.312c-1.44 6.4-11.36 9.44-22.08 6.88-10.56-2.56-18.08-9.76-16.48-16.16 1.44-6.4 11.36-9.44 22.08-6.88 10.56 2.56 18.08 9.76 16.48 16.16z" opacity=".2"/></g><path d="M419.376 187.904c-.816 1.504-1.776 2.944-2.768 4.4-8.864-21.056-33.136-39.088-61.92-51.936-28.736-12.48-56.56-16.976-81.152-13.664.896-1.232 1.808-2.48 2.784-3.632 24.368-25.728 62.112-32.432 96.608-18.656 34.336 15.024 63.696 48.304 46.448 83.488zm-326.752 0c.816 1.504 1.776 2.944 2.768 4.4 8.864-21.056 33.136-39.088 61.92-51.936 28.736-12.48 56.56-16.976 81.152-13.664-.896-1.232-1.808-2.48-2.784-3.632-24.368-25.728-62.112-32.432-96.608-18.656-34.336 15.024-63.696 48.304-46.448 83.488z" fill="#3e4347"/><path d="M498.768 251.184c-6.576-15.648-55.584-52.928-55.584-52.928s-7.664 61.104-1.088 76.752 24.592 23.008 40.24 16.432c15.664-6.576 23.008-24.592 16.432-40.256zm-485.536 0c6.576-15.648 55.584-52.928 55.584-52.928s7.664 61.104 1.088 76.752-24.592 23.008-40.24 16.432-23.008-24.592-16.432-40.256z" fill="#38c0dc"/></svg>