<svg xmlns="http://www.w3.org/2000/svg" viewBox="0 0 511.998 511.998" xmlns:v="https://vecta.io/nano"><circle cx="255.999" cy="224.64" r="224.64" fill="#ffd93b"/><path d="M480.623 224.624c0 124.096-100.592 224.624-224.624 224.624-70.608 0-133.648-32.576-174.848-83.6 38.528 31.168 87.6 49.76 141.024 49.76 124.032 0 224.624-100.512 224.624-224.608 0-53.424-18.608-102.48-49.76-141.024 50.944 41.2 83.584 104.224 83.584 174.848z" fill="#f4c534"/><path d="M391.823 319.84c-26.608 47.536-77.504 79.696-135.76 79.696-58.384 0-109.28-32.16-135.888-79.696-9.68-17.312 7.616-37.2 26.352-30.88 72.976 24.672 145.952 24.672 218.944 0 18.72-6.32 36.032 13.568 26.352 30.88z" fill="#3e4347"/><path d="M232.463 306.48c-1.856 8.608-4.096 23.392 1.552 27.904 8.08 6.464 106.16-6.864 123.92-18.976 10.064-6.864 8.72-17.744 5.664-25.888-43.712 14.528-87.424 20.128-131.136 16.96zm-34.368 27.104c2.784 0 10.288-16.16 12.72-29.52-16.736-2.336-33.472-6-50.208-10.928-2.304 8.752-5.728 23.008-4.912 27.936 1.216 7.264 38.768 12.512 42.4 12.512z" fill="#fff"/><path d="M332.815 479.264c-3.36 38.352-65.488 37.328-93.264 25.44-42.88-18.48-57.712-64.4-64.88-110.176-7.536-45.84 26.416-41.984 50.864-23.136 13.568-12.528 36.448-15.728 52.208-8.608 31.264 14.208 11.792 37.184 9.6 50.096-8.384 50.288 49.216 23.808 45.472 66.384z" fill="#e24b4b"/><ellipse transform="matrix(-.9869 -.1615 .1615 -.9869 463.9088 786.2524)" cx="263.908" cy="374.273" rx="15.84" ry="7.44" fill="#fff" opacity=".25"/><path d="M188.143 197.472c0 16.992-13.76 30.608-30.752 30.608-16.848 0-30.608-13.616-30.608-30.608s13.76-30.592 30.608-30.592c16.992 0 30.752 13.616 30.752 30.592z" fill="#3e4347"/><ellipse transform="matrix(-.7071 -.7071 .7071 -.7071 158.5789 436.3176)" cx="169.654" cy="185.316" rx="10.464" ry="6.384" fill="#5a5f63"/><circle cx="169.055" cy="186.496" r="72.768" fill="#f4c534"/><path d="M226.43 186.544c-2.048 34.288-29.408 62.128-61.04 62.128-31.792 0-55.808-27.84-53.76-62.128 2.064-34.448 29.424-62.304 61.216-62.304 31.632.016 55.648 27.856 53.584 62.304z" fill="#fff"/><path d="M213.935 193.136c0 18.704-15.152 33.696-33.856 33.696-18.544 0-33.696-14.992-33.696-33.696s15.152-33.696 33.696-33.696c18.704 0 33.856 14.992 33.856 33.696z" fill="#3e4347"/><ellipse transform="matrix(-.7071 -.7071 .7071 -.7071 203.342 443.945)" cx="193.615" cy="179.859" rx="11.52" ry="7.04" fill="#5a5f63"/><circle cx="342.943" cy="189.36" r="72.768" fill="#f4c534"/><path d="M400.303 189.424c-2.048 34.288-29.408 62.128-61.04 62.128-31.792 0-55.808-27.84-53.76-62.128 2.064-34.448 29.424-62.304 61.216-62.304 31.632 0 55.648 27.84 53.584 62.304z" fill="#fff"/><path d="M367.487 175.232c0 18.704-15.152 33.696-33.856 33.696-18.544 0-33.696-14.992-33.696-33.696s15.152-33.696 33.696-33.696c18.72 0 33.856 14.992 33.856 33.696z" fill="#3e4347"/><ellipse transform="matrix(-.7071 -.7071 .7071 -.7071 478.2272 521.9852)" cx="347.22" cy="161.949" rx="11.52" ry="7.04" fill="#5a5f63"/><path d="M226.607 69.312C157.68 131.776 88.75 46.704 85.663 42.768c65.84 34.912 140.944 31.36 140.944 26.544zm54.273 17.872c68.928-62.464 137.856 22.608 140.944 26.544-62.656-35.424-139.168-31.504-140.944-26.544z" fill="#3e4347"/><path d="M332.815 479.264c.08-.992-.016-1.76 0-2.672a29.02 29.02 0 0 1-10.432 14.88c-7.44 5.504-16.848 7.728-26.096 8.256-29.68 1.68-58.448-13.28-79.504-34.272-16.32-16.288-28.624-35.968-39.488-56.4 8.064 40.672 23.92 79.136 62.256 95.648 27.776 11.888 89.904 12.928 93.264-25.44z" fill="#d03f3f"/></svg>