<svg xmlns="http://www.w3.org/2000/svg" xmlns:xlink="http://www.w3.org/1999/xlink" viewBox="0 0 512 512" xmlns:v="https://vecta.io/nano"><circle cx="256" cy="256" r="256" fill="#ffd93b"/><path d="M512 256c0 141.44-114.64 256-256 256-80.48 0-152.32-37.12-199.28-95.28 43.92 35.52 99.84 56.72 160.72 56.72 141.36 0 256-114.56 256-256 0-60.88-21.2-116.8-56.72-160.72C474.8 103.68 512 175.52 512 256z" fill="#f4c534"/><path d="M445.744 124.688S380.96 70.768 296.24 90.112c12.16-18.08 50.496-36.128 77.536-32.256 43.264 6.192 71.968 66.832 71.968 66.832zM143.76 320.08s93.92 78.176 216.752 50.128c-17.632 26.208-109.68 43.296-148.896 37.68-62.72-8.976-67.856-87.808-67.856-87.808zM66.256 124.688s64.784-53.92 149.504-34.576c-12.16-18.08-50.496-36.128-77.536-32.256-43.264 6.192-71.968 66.832-71.968 66.832z" fill="#3e4347"/><ellipse cx="352.32" cy="197.856" rx="80.976" ry="73.168" fill="#f4c534"/><path d="M419.952 200.72c0 34.8-30.272 61.744-67.616 60.16s-67.616-31.072-67.616-65.888 30.272-61.744 67.616-60.16 67.616 31.072 67.616 65.888z" fill="#fff"/><use xlink:href="#B" fill="#3e4347"/><path d="M356.96 191.456c-2.784 2.64-8.368 1.472-12.64-2.784-4.112-4.112-5.44-9.84-2.64-12.496 2.64-2.784 8.384-1.472 12.496 2.64 4.256 4.256 5.44 9.84 2.784 12.64z" fill="#5a5f63"/><ellipse cx="163.808" cy="197.856" rx="80.976" ry="73.168" fill="#f4c534"/><path d="M231.408 200.72c0 34.8-30.272 61.744-67.6 60.16-37.344-1.584-67.616-31.072-67.616-65.888s30.272-61.744 67.616-60.16 67.6 31.072 67.6 65.888z" fill="#fff"/><use xlink:href="#B" x="-188.528" fill="#3e4347"/><path d="M168.432 191.456c-2.8 2.64-8.384 1.472-12.64-2.784-4.112-4.112-5.44-9.84-2.64-12.496 2.64-2.784 8.384-1.472 12.496 2.64 4.256 4.256 5.424 9.84 2.784 12.64z" fill="#5a5f63"/><defs ><path id="B" d="M369.456 197.168c.064 19.792-15.392 36.336-34.512 36.944s-34.672-14.944-34.736-34.736 15.392-36.336 34.512-36.944 34.672 14.944 34.736 34.736z"/></defs></svg>