<svg xmlns="http://www.w3.org/2000/svg" viewBox="0 0 512 512" xmlns:v="https://vecta.io/nano"><circle cx="256" cy="256" r="256" fill="#ffd93b"/><path d="M512 256c0 141.44-114.64 256-256 256-80.48 0-152.32-37.12-199.28-95.28 43.92 35.52 99.84 56.72 160.72 56.72 141.36 0 256-114.56 256-256 0-60.88-21.2-116.8-56.72-160.72C474.8 103.68 512 175.52 512 256z" fill="#f4c534"/><path d="M246.064 220.08c0 53.84-37.44 97.44-83.6 97.44-46.32 0-83.76-43.6-83.76-97.44s37.44-97.44 83.76-97.44c46.16 0 83.6 43.6 83.6 97.44z" fill="#fff"/><ellipse cx="187.312" cy="217.2" rx="38.752" ry="42.864" fill="#3e4347"/><path d="M210.784 203.072c-2.272 3.552-7.904 4.208-12.48 1.232-4.592-2.816-6.512-8.08-4.24-11.632 2.144-3.712 7.744-4.224 12.336-1.248 4.576 2.832 6.496 8.096 4.384 11.648z" fill="#5a5f63"/><path d="M270.704 220.08c0 53.84 37.44 97.44 83.6 97.44 46.32 0 83.76-43.6 83.76-97.44s-37.44-97.44-83.76-97.44c-46.16 0-83.6 43.6-83.6 97.44z" fill="#fff"/><ellipse cx="329.456" cy="217.2" rx="38.752" ry="42.864" fill="#3e4347"/><path d="M352.912 203.072c-2.272 3.552-7.904 4.208-12.48 1.232-4.592-2.816-6.512-8.08-4.24-11.632 2.144-3.712 7.744-4.224 12.336-1.248 4.592 2.832 6.512 8.096 4.384 11.648z" fill="#5a5f63"/><path d="M335.28 389.36c-13.024-23.504-32.608-44.672-68.288-44.672s-77.264 21.168-90.288 44.672c39.536-26.656 92.384-26.656 158.576 0z" fill="#3e4347"/></svg>