<svg xmlns="http://www.w3.org/2000/svg" viewBox="0 0 512 512" xmlns:v="https://vecta.io/nano"><circle cx="256" cy="256" r="256" fill="#ffd93b"/><path d="M512 256c0 141.44-114.64 256-256 256-80.48 0-152.32-37.12-199.28-95.28 43.92 35.52 99.84 56.72 160.72 56.72 141.36 0 256-114.56 256-256 0-60.88-21.2-116.8-56.72-160.72C474.8 103.68 512 175.52 512 256z" fill="#f4c534"/><path d="M430.416 192.72s-62.656-49.792-98.672-40.4c-16.288 4.144-29.168 19.456-37.984 45.376l-6.992 20.128c-.016 0 82.384-60.064 143.648-25.104zm-348.832 0s62.656-49.792 98.672-40.4c16.288 4.144 29.168 19.456 37.984 45.376l6.992 20.128S142.848 157.76 81.584 192.72zm336.688 91.68c-4.928-2.368-55.264 84.144-162.272 81.568-107.008 2.608-157.344-83.92-162.272-81.568C80.272 283.472 124.72 409.776 256 409.024c131.28.704 175.728-125.52 162.272-124.624z" fill="#3e4347"/></svg>