<svg xmlns="http://www.w3.org/2000/svg" viewBox="0 0 512 512" xmlns:v="https://vecta.io/nano"><circle cx="256" cy="256" r="256" fill="#ffd93b"/><path d="M512 256c0 141.44-114.64 256-256 256-80.48 0-152.32-37.12-199.28-95.28 43.92 35.52 99.84 56.72 160.72 56.72 141.36 0 256-114.56 256-256 0-60.88-21.2-116.8-56.72-160.72C474.8 103.68 512 175.52 512 256z" fill="#f4c534"/><path d="M236.48 206.72c0 41.6-33.648 75.376-75.376 75.376-41.6 0-75.376-33.792-75.376-75.376 0-41.728 33.792-75.52 75.376-75.52 41.728 0 75.376 33.792 75.376 75.52z" fill="#fff"/><circle cx="161.12" cy="206.656" r="34.336" fill="#3e4347"/><path d="M275.584 206.576c0-41.6 33.648-75.376 75.376-75.376 41.6 0 75.376 33.776 75.376 75.376 0 41.728-33.792 75.52-75.376 75.52-41.728 0-75.376-33.776-75.376-75.52z" fill="#fff"/><path d="M387.952 200.864c.768 5.632-3.184 10.8-8.816 11.552-4.048 1.312-10.608-2.272-11.552-8.672-1.056-8.352-8.352-14.592-16.56-14.592-8.512 0-15.504 6.08-16.72 14.592-.752 5.616-5.92 9.584-11.552 8.672a10.28 10.28 0 0 1-8.816-11.552c2.576-18.384 18.544-32.208 37.072-32.208 18.4.016 34.352 13.84 36.944 32.208zm85.76-5.616h-37.52c-5.616-42.096-41.68-74.688-85.232-74.688-32.24 0-60.352 17.872-75.056 44.224-4 7.152-11.536 11.328-19.728 11.264h-.352c-8.16.064-15.68-4.128-19.648-11.248-14.72-26.368-42.816-44.256-75.056-44.256-43.552 0-79.536 32.592-85.168 74.688H38.288v22.784h37.904c5.296 39.328 37.248 70.976 77.488 74.368 50.928 4.32 94.432-36.304 93.344-87.504.864-4.272 4.48-7.568 8.992-7.568 4.608 0 8.912 3.328 8.912 9.376 0 49.648 42.304 89.632 92.784 85.76 40.384-3.104 72.96-34.688 78.224-74.432h37.776v-22.768zM161.104 271.44c-35.696 0-64.736-29.04-64.736-64.72 0-35.776 29.04-64.864 64.736-64.864s64.72 29.104 64.72 64.864c0 35.68-29.04 64.72-64.72 64.72zm189.856 0c-35.696 0-64.736-29.04-64.736-64.72 0-35.776 29.04-64.864 64.736-64.864s64.72 29.104 64.72 64.864c.016 35.68-29.024 64.72-64.72 64.72z" fill="#3e4347"/><ellipse transform="matrix(-.7071 -.7071 .7071 -.7071 160.1488 453.5703)" cx="174.012" cy="193.617" rx="9.504" ry="6.144" fill="#fff"/><path d="M406.336 76.688c-.16 5.008-4.4 9.12-9.424 9.12h-.304c-65.184-1.968-94.048 25.68-94.352 25.984-3.968 3.968-9.936 3.728-13.376 0-3.648-3.648-3.792-9.568-.16-13.216 1.376-1.52 33.888-33.888 108.48-31.76 5.184.144 9.28 4.544 9.136 9.872zm-293.6-4.464c1.84 4.672 7.248 7.088 11.952 5.376.144-.048.288-.112.288-.112 60.64-24 97.184-7.808 97.568-7.632 5.088 2.384 10.608.128 12.576-4.544 2.192-4.672.32-10.288-4.352-12.48-1.808-.96-43.376-20.352-112.816 7.008-4.8 1.904-7.168 7.44-5.216 12.384zM397.344 316c-8 43.36-24.8 77.28-63.2 103.36-13.44 8.96-28.32 15.68-44 19.84-45.28 11.52-84.48 2.24-118.72-21.6 46.72 10.08 72 16.8 114.24 3.04 13.92-4.48 27.36-10.88 39.52-18.88 45.28-29.584 61.6-67.68 72.16-85.76z" fill="#3e4347"/></svg>