<svg xmlns="http://www.w3.org/2000/svg" viewBox="0 0 512 512" xmlns:v="https://vecta.io/nano"><circle cx="256" cy="256" r="256" fill="#ffd93b"/><path d="M512 256c0 141.44-114.64 256-256 256-80.48 0-152.32-37.12-199.28-95.28 43.92 35.52 99.84 56.72 160.72 56.72 141.36 0 256-114.56 256-256 0-60.88-21.2-116.8-56.72-160.72C474.8 103.68 512 175.52 512 256z" fill="#f4c534"/><path d="M405.984 334.24c-2.288 16-27.376 84.72-108 112.48-57.488 18.864-113.52 7.568-153.92-24.8 16 2.224 73.696 28.08 146.24 2.08 47.824-15.04 91.648-53.664 115.68-89.76z" fill="#3e4347"/><path d="M233.12 207.856c0 42.24-34.24 76.48-76.48 76.48-42.4 0-76.64-34.24-76.64-76.48s34.24-76.64 76.64-76.64c42.24 0 76.48 34.4 76.48 76.64z" fill="#f4c534"/><circle cx="156.592" cy="207.808" r="59.136" fill="#fff"/><path d="M187.04 207.856c0 16.96-13.6 30.4-30.4 30.4-16.96 0-30.56-13.44-30.56-30.4 0-16.8 13.6-30.56 30.56-30.56 16.8-.016 30.4 13.744 30.4 30.56z" fill="#3e4347"/><path d="M174.88 201.76c-2.08 2.08-6.56 1.12-9.92-2.24-3.52-3.52-4.64-8-2.56-10.08s6.56-1.12 10.08 2.4c3.36 3.52 4.48 7.84 2.4 9.92z" fill="#fff"/><path d="M371.76 233.456c-22.736-12.176-63.472-11.984-88.896-9.952-7.056.672-10.736-7.968-5.648-13.056 39.728-33.84 95.2-42.832 139.568-30.992-20.064 1.936-62.208 1.216-111.104 30.016 22.432 1.104 50.096 7.984 66.08 23.984zm60.24-42.88c-4.096 1.168-70.672 11.456-91.808 12.864 22.624-10.96 68.08-19.296 91.808-12.864z" fill="#3e4347"/></svg>