<svg xmlns="http://www.w3.org/2000/svg" xmlns:xlink="http://www.w3.org/1999/xlink" viewBox="0 0 511.968 511.968" xmlns:v="https://vecta.io/nano"><circle cx="255.984" cy="246.672" r="246.672" fill="#ffd93b"/><path d="M502.656 246.672c0 136.288-110.464 246.672-246.672 246.672-77.552 0-146.768-35.776-192.016-91.808 42.32 34.224 96.208 54.656 154.864 54.656 136.208 0 246.672-110.384 246.672-246.672 0-58.656-20.432-112.544-54.656-154.864 55.968 45.248 91.808 114.464 91.808 192.016z" fill="#f4c534"/><path d="M234.704 202.96c0 45.328-36.656 82.144-82.144 82.144-45.328 0-82.144-36.816-82.144-82.144 0-45.472 36.816-82.288 82.144-82.288 45.488 0 82.144 36.8 82.144 82.288zm206.896 0c0 45.328-36.656 82.144-82.128 82.144-45.328 0-82.144-36.816-82.144-82.144 0-45.472 36.816-82.288 82.144-82.288 45.472 0 82.128 36.8 82.128 82.288z" fill="#fff"/><g fill="#3e4347"><path d="M485.504 190.464h-33.168c-6.112-45.872-45.424-81.392-92.88-81.392-35.12 0-65.76 19.472-81.792 48.176-4.352 7.792-12.576 12.336-21.504 12.272h-.4c-8.88.064-17.088-4.496-21.408-12.256-16.032-28.736-46.656-48.208-81.792-48.208-47.456 0-86.672 35.52-92.8 81.392H26.464v24.832h33.584c5.76 42.848 40.592 77.328 84.432 81.04 55.504 4.704 102.912-39.552 101.712-95.36.944-4.672 4.88-8.24 9.808-8.24 5.024 0 9.712 3.632 9.712 10.224 0 54.096 46.096 97.664 101.104 93.44 44.016-3.376 79.488-37.792 85.232-81.104h33.456v-24.816zm-332.928 83.024c-38.896 0-70.544-31.648-70.544-70.528 0-38.976 31.648-70.688 70.544-70.688s70.528 31.712 70.528 70.688c0 38.88-31.632 70.528-70.528 70.528zm206.896 0c-38.896 0-70.544-31.648-70.544-70.528 0-38.976 31.648-70.688 70.544-70.688S430 163.984 430 202.96c0 38.88-31.648 70.528-70.528 70.528z"/><use xlink:href="#B"/></g><ellipse transform="matrix(-.7071 -.7071 .7071 -.7071 470.5911 552.3497)" cx="349.691" cy="178.712" rx="10.352" ry="7.152" fill="#fff"/><use xlink:href="#B" x="-165.568" fill="#3e4347"/><ellipse transform="matrix(-.7071 -.7071 .7071 -.7071 187.9574 435.2493)" cx="184.122" cy="178.697" rx="10.352" ry="7.152" fill="#fff"/><path d="M467.968 93.68c-6.688 4.032-14.304 1.792-17.76-3.808C396.8 8.16 313.024 48.496 309.504 50.256c-6.448 3.232-14.08.592-17.312-5.712-3.072-6.448-.592-14.096 5.872-17.312 1.024-.448 107.984-52.08 173.568 48.56 3.952 6 2.192 13.92-3.664 17.888zm-423.952 0c6.688 4.016 14.288 1.792 17.744-3.824C115.168 8.144 198.944 48.48 202.464 50.24c6.448 3.232 14.08.592 17.312-5.712 3.088-6.448.592-14.096-5.872-17.312-1.024-.448-107.984-52.08-173.568 48.56-3.952 6.016-2.192 13.936 3.68 17.904z" fill="#3e4347"/><ellipse cx="255.984" cy="402.4" rx="89.232" ry="109.568" fill="#ffd93b"/><ellipse cx="255.984" cy="402.4" rx="69.632" ry="87.68" fill="#3e4347"/><defs ><path id="B" d="M370.176 189.68c0 17.264-13.904 31.488-31.376 31.488-17.264 0-31.376-14.224-31.376-31.488 0-17.376 14.112-31.6 31.376-31.6 17.472 0 31.376 14.224 31.376 31.6z"/></defs></svg>