<svg xmlns="http://www.w3.org/2000/svg" viewBox="0 0 512 512" xmlns:v="https://vecta.io/nano"><circle cx="256" cy="256" r="256" fill="#ffd93b"/><path d="M512 256c0 141.44-114.64 256-256 256-80.48 0-152.32-37.12-199.28-95.28 43.92 35.52 99.84 56.72 160.72 56.72 141.36 0 256-114.56 256-256 0-60.88-21.2-116.8-56.72-160.72C474.8 103.68 512 175.52 512 256z" fill="#f4c534"/><path d="M303.104 396.704c0 26.08-21.12 47.04-47.04 47.04-26.08 0-47.04-20.96-47.04-47.04 0-25.92 20.96-47.04 47.04-47.04 25.92 0 47.04 21.12 47.04 47.04zm-99.36-178.144l-21.6 21.6 21.6 21.6c6.88 6.88 6.88 18.4 0 25.28l-.16.16c-6.88 6.88-18.4 6.88-25.28 0l-21.6-21.6-21.6 21.6c-6.88 6.88-18.4 6.88-25.28 0l-.16-.16c-6.88-6.88-6.88-18.4 0-25.28l21.6-21.6-21.6-21.6c-6.88-6.88-6.88-18.4 0-25.44 7.008-6.992 19.072-6.656 25.44 0l21.6 21.6 21.6-21.6c6.88-6.88 18.4-6.88 25.28 0h.16c6.88 7.04 6.88 18.56 0 25.44zm198.592 68.48v.16c-7.04 6.88-18.56 6.88-25.44 0l-21.6-21.6-21.44 21.6c-7.04 6.88-18.56 6.88-25.44 0v-.16c-7.04-6.88-7.04-18.4 0-25.28l21.44-21.6-21.44-21.6c-7.04-6.88-7.04-18.4 0-25.44 7.072-7.072 18.816-6.608 25.44 0l21.44 21.6 21.6-21.6c6.88-6.88 18.4-6.88 25.44 0 6.864 7.2 6.8 18.64 0 25.44l-21.6 21.6 21.6 21.6c6.88 6.88 6.88 18.4 0 25.28z" fill="#3e4347"/></svg>