<svg xmlns="http://www.w3.org/2000/svg" viewBox="0 0 512 512" xmlns:v="https://vecta.io/nano"><circle cx="256" cy="256" r="256" fill="#ffd93b"/><path d="M512 256c0 141.44-114.64 256-256 256-80.48 0-152.32-37.12-199.28-95.28 43.92 35.52 99.84 56.72 160.72 56.72 141.36 0 256-114.56 256-256 0-60.88-21.2-116.8-56.72-160.72C474.8 103.68 512 175.52 512 256zM376.016 120.416c-25.392 27.216-56.976 48.496-92.24 61.376a87.8 87.8 0 0 0-3.792 25.536c0 48.16 39.04 87.2 87.2 87.2 48.32 0 87.36-39.04 87.36-87.2-.016-45.328-34.384-82.496-78.528-86.912z" fill="#f4c534"/><path d="M376.432 141.024c-20.24 14.304-42.8 25.28-66.88 32.304-5.872 10-9.472 21.52-9.472 34.016 0 37.104 29.984 67.104 67.104 67.104 37.264 0 67.248-29.984 67.248-67.104 0-34.096-25.2-61.792-58-66.32z" fill="#fff"/><path d="M413.104 135.664L270.592 190.8c10.736-7.296 76.992-56.208 115.44-96.16 11.808-12.256 33.088-9.456 39.744 6.016.64 1.072 1.072 2.144 1.28 3.216 4.736 12.672-1.712 26.64-13.952 31.792zm-11.44 72.144c0 18.992-15.328 34.48-34.496 34.496-18.992 0-34.32-15.488-34.32-34.48 0-19.152 15.328-34.496 34.32-34.496 19.168 0 34.496 15.328 34.496 34.48z" fill="#3e4347"/><ellipse transform="matrix(-.7071 -.7071 .7071 -.7071 512.4669 601.0424)" cx="380.713" cy="194.386" rx="9.6" ry="6" fill="#fff"/><path d="M135.984 120.416c25.392 27.216 56.976 48.496 92.24 61.376 2.464 8.064 3.792 16.64 3.792 25.536 0 48.16-39.04 87.2-87.2 87.2-48.32 0-87.36-39.04-87.36-87.2.016-45.328 34.384-82.496 78.528-86.912z" fill="#f4c534"/><path d="M135.568 141.024c20.24 14.304 42.8 25.28 66.88 32.304 5.872 10 9.472 21.52 9.472 34.016 0 37.104-29.984 67.104-67.104 67.104-37.264 0-67.248-29.984-67.248-67.104 0-34.096 25.2-61.792 58-66.32z" fill="#fff"/><path d="M98.896 135.664L241.408 190.8c-10.736-7.296-76.992-56.208-115.44-96.16-11.824-12.256-33.088-9.456-39.744 6-.64 1.072-1.072 2.144-1.28 3.216-4.736 12.688 1.712 26.656 13.952 31.808zm11.456 72.144c0 18.992 15.328 34.48 34.48 34.496 18.992 0 34.32-15.488 34.32-34.48 0-19.152-15.328-34.496-34.32-34.496a34.34 34.34 0 0 0-34.48 34.48z" fill="#3e4347"/><ellipse transform="matrix(-.7071 -.7071 .7071 -.7071 86.7128 424.634)" cx="131.301" cy="194.358" rx="6" ry="9.6" fill="#fff"/><path d="M256.032 462.144c-115.952-.912-185.728-65.36-163.792-141.712 1.824-6.24 8.528-9.296 14.32-6.4a332.16 332.16 0 0 0 298.944 0c5.632-2.896 12.496.16 14.32 6.4 21.792 76.352-47.84 140.944-163.792 141.712z" fill="#3e4347"/><path d="M256.032 462.144c46.496-.304 85.344-11.008 114.032-28.464-16.448-39.648-84.144-55.296-125.008-22.512-37.92-20.352-86.928-8.448-107.36 19.808 29.056 19.04 69.536 30.784 118.336 31.168z" fill="#e24b4b"/><path d="M159.472 335.184l-9.36 40.464c-.544 2.336.416 4.784 2.32 6.16 11.216 7.52 23.936 12.576 38.016 15.04 2.736.4 5.472-1.248 6.432-3.84l16.704-46.256c-18.24-2.352-36.352-6.16-54.112-11.568zm64.64 12.736v45.648c0 3.008 2.32 5.616 5.472 5.744 21.616.96 43.216-.416 64.832-4.512 3.008-.544 5.056-3.408 4.656-6.432l-5.776-40.912c-22.992 2.592-46.176 2.672-69.184.464z" fill="#fff"/></svg>