<svg xmlns="http://www.w3.org/2000/svg" viewBox="0 0 512 512" xmlns:v="https://vecta.io/nano"><path d="M182.688 81.104C144.272 32.384 80.192-17.136 45.168 5.76 15.152 25.392 34.752 127.216 68.512 181.328c24.816-45.44 65.664-81.456 114.176-100.224zm262.336 97.648c32.8-54.704 51.36-153.664 21.808-172.992-34.8-22.752-98.336 26.016-136.832 74.432 48.704 18.144 89.76 53.536 115.024 98.56z" fill="#f4c534"/><circle cx="256" cy="275.264" r="236.736" fill="#ffd93b"/><path d="M492.736 275.264C492.736 406.064 386.72 512 256 512c-74.416 0-140.864-34.336-184.288-88.112 40.608 32.848 92.32 52.448 148.624 52.448 130.72 0 236.736-105.936 236.736-236.736 0-56.304-19.6-108.016-52.448-148.624 53.712 43.424 88.112 109.856 88.112 184.288z" fill="#f4c534"/><g fill="#3e4347"><path d="M341.488 385.328c-4.608-1.68-9.68.784-11.296 5.408-4.752 13.488-17.456 22.544-31.648 22.544-18.56 0-33.664-15.104-33.664-33.664 0-5.936 1.632-11.6 4.544-16.576h-19.408c-1.824 5.264-2.864 10.816-2.864 16.576 0 28.336 23.056 51.392 51.408 51.392 21.696 0 41.136-13.824 48.368-34.384 1.6-4.608-.816-9.68-5.44-11.296z"/><path d="M242.592 363.056c2.896 4.976 4.528 10.624 4.528 16.576 0 18.56-15.088 33.664-33.648 33.664-14.192 0-26.912-9.056-31.664-22.544-1.632-4.624-6.72-7.088-11.312-5.408-4.624 1.616-7.04 6.688-5.424 11.312 7.232 20.56 26.672 34.384 48.384 34.384 28.336 0 51.392-23.056 51.392-51.392 0-5.744-1.056-11.312-2.864-16.576h-19.392v-.016z"/></g><path d="M306.944 346.88c-5.36 14.88-19.584 27.632-31.648 36.208-5.632 4.016-12.336 6.304-19.312 6.304s-13.68-2.272-19.44-6.304c-11.936-8.592-26.144-21.328-31.376-36.08-1.872-4.96.544-10.736 4.832-12.48 31.12-13.008 61.824-12.88 92.128 0 4.272 1.76 6.56 7.52 4.816 12.352z" fill="#7a5b44"/><path d="M329.344 362.576s13.648-14.448 31.504-4.352c10.56 7.696 10.928 20.912 7.024 31.168-2.688-9.056-2.592-19.968-11.104-25.008-8.32-4.848-21.792-4.64-27.424-1.808zm-146.656 0c-5.696-2.848-19.04-3.072-27.424 1.808-8.352 4.944-8.576 16.496-11.104 25.008-4.16-10.88-2.96-23.888 7.024-31.168 17.872-10.096 31.456 4.384 31.504 4.352z" fill="#f4c534"/><path d="M382.624 263.392c-.16 4.496-5.136 7.072-8.832 4.496-20.56-14.624-70.192-14.624-90.752 0-3.696 2.56-8.672 0-8.832-4.496-.8-38.72 23.616-70.832 54.128-70.832 30.672-.016 55.088 32.112 54.288 70.832zm-164.96 16.064c-14.784-9.792-34.048-15.568-55.088-15.568-16.704 0-32.288 3.696-45.456 10.272-5.776 2.896-11.888-2.88-9.312-8.672 10.272-23.28 32.608-39.52 58.464-39.52 28.432 0 52.368 19.12 61.2 45.776 2.08 5.936-4.512 11.088-9.808 7.712zm76.24-137.28s76.64.672 110.768 59.392c0 0-5.36-107.584-110.768-59.392zM117.008 198.32s75.44-13.504 119.824 37.92c0 0-25.12-104.752-119.824-37.92z" fill="#3e4347"/></svg>