<svg xmlns="http://www.w3.org/2000/svg" xmlns:xlink="http://www.w3.org/1999/xlink" viewBox="0 0 512 512" xmlns:v="https://vecta.io/nano"><circle cx="256" cy="256" r="256" fill="#ffd93b"/><path d="M510.784 256c0 141.44-114.64 256-256 256-80.48 0-152.32-37.12-199.28-95.28 43.92 35.52 99.84 56.72 160.72 56.72 141.36 0 256-114.56 256-256 0-60.88-21.2-116.8-56.72-160.72 58.08 46.96 95.28 118.8 95.28 199.28zm-264.64 9.68c0 44.784-36.256 81.184-81.024 81.184-44.928 0-81.168-36.4-81.168-81.184 0-44.928 36.24-81.184 81.168-81.184 44.784 0 81.024 36.256 81.024 81.184z" fill="#f4c534"/><ellipse cx="165.088" cy="265.68" rx="66.016" ry="66.08" fill="#fff"/><path d="M133.632 265.664c0 17.36 13.92 31.456 31.28 31.456 17.536 0 31.44-14.08 31.44-31.456 0-17.36-13.92-31.456-31.44-31.456-17.36 0-31.28 14.096-31.28 31.456z" fill="#3e4347"/><use xlink:href="#B" fill="#fff"/><path d="M97.056,168.928c-1.776-3.904,132.432,3.008,124.928-61.04L97.056,168.928z" fill="#3e4347"/><path d="M265.856 265.68c0 44.784 36.24 81.184 81.024 81.184 44.928 0 81.184-36.4 81.184-81.184 0-44.928-36.256-81.184-81.184-81.184-44.784 0-81.024 36.256-81.024 81.184z" fill="#f4c534"/><ellipse cx="346.912" cy="265.68" rx="66.016" ry="66.08" fill="#fff"/><path d="M315.648 265.664c0 17.36 13.92 31.456 31.28 31.456 17.536 0 31.456-14.08 31.456-31.456 0-17.36-13.92-31.456-31.456-31.456-17.36 0-31.28 14.096-31.28 31.456z" fill="#3e4347"/><use xlink:href="#B" x="182.016" fill="#fff"/><path d="M414.944 168.928c1.776-3.904-132.432 3.008-124.928-61.04l124.928 61.04zm-18.208 199.744c13.52 6.096-39.072 81.008-140.736 80.928-101.664.08-154.256-74.832-140.736-80.928 10.528-8.016 66.16 38.72 140.736 38.72 74.72.016 130.208-46.672 140.736-38.72z" fill="#3e4347"/><defs ><path id="B" d="M147.504 261.216c2.336 2.336 6.992 1.264 10.576-2.336 3.584-3.584 4.656-8.416 2.336-10.576-2.144-2.32-6.816-1.248-10.4 2.336-3.6 3.6-4.672 8.256-2.512 10.576z"/></defs></svg>