<svg xmlns="http://www.w3.org/2000/svg" viewBox="0 0 512 512" xmlns:v="https://vecta.io/nano"><circle cx="256" cy="256" r="256" fill="#ffd93b"/><path d="M510.784 256c0 141.44-114.64 256-256 256-80.48 0-152.32-37.12-199.28-95.28 43.92 35.52 99.84 56.72 160.72 56.72 141.36 0 256-114.56 256-256 0-60.88-21.2-116.8-56.72-160.72 58.08 46.96 95.28 118.8 95.28 199.28z" fill="#f4c534"/><path d="M416.672 251.136c-52.864-5.52-80.512-11.184-126-24.944 29.696-19.344 88.704-33.264 88.704-33.264s-32.928 18.608-41.2 29.104l78.496 29.104z" fill="#3e4347"/><path d="M232.624 239.728c0 47.04-38.08 85.28-85.12 85.28-47.2 0-85.28-38.24-85.28-85.28 0-47.2 38.08-85.28 85.28-85.28 47.04 0 85.12 38.096 85.12 85.28z" fill="#f4c534"/><ellipse cx="147.456" cy="239.728" rx="66.016" ry="66.08" fill="#fff"/><path d="M178.72 239.728c0 17.36-13.92 31.456-31.28 31.472-17.536 0-31.456-14.08-31.456-31.456 0-17.36 13.92-31.456 31.456-31.456 17.36-.016 31.28 14.08 31.28 31.44z" fill="#3e4347"/><path d="M164.848 235.28c-2.336 2.336-6.992 1.264-10.576-2.336-3.584-3.584-4.656-8.416-2.336-10.576 2.144-2.336 6.816-1.248 10.4 2.336 3.6 3.6 4.672 8.256 2.512 10.576z" fill="#fff"/><path d="M193.824 114.32c-12.192 7.152-39.6 7.456-74.544 6.256 0 0 74.464-26.528 82.08-49.568 6.752 21.552 5.424 35.84-7.536 43.312zm124.352 0c12.192 7.152 39.6 7.456 74.544 6.256 0 0-74.464-26.528-82.08-49.568-6.752 21.552-5.424 35.84 7.536 43.312zM139.904 345.696c-5.6 0-10.048 5.152-8.768 10.608C144.4 413.056 195.2 455.36 256 455.36s111.6-42.304 124.88-99.056c1.28-5.44-3.184-10.608-8.768-10.608H139.904z" fill="#3e4347"/><path d="M323.376 434c-1.6-12.528-6.304-24.352-14.032-34-8.48-10.624-22.784-15.728-35.76-11.536-8.064 2.56-17.472 3.168-27.888 1.12-.096 0-.208-.096-.208-.096-20.944-4.096-42.496 4.896-51.488 24.208-1.936 4.192-3.568 8.688-4.592 13.28-.544 2.336-.592 4.672-.864 7.024 44.96 13.52 89.904 13.536 134.832 0z" fill="#e24b4b"/><path d="M372.208 345.712H139.792c-5.328.064-9.488 4.816-8.656 10 1.376 6 2.848 10.8 4.32 14.8l.448 1.2c31.952 5.456 73.968 8.88 120.08 8.88 46.144 0 88.176-3.424 120.128-8.88l.096-.24c1.648-4.432 3.104-9.104 4.672-15.712.832-5.2-3.328-9.968-8.672-10.048zm-37.808 82.72c-23.744-1.888-50.272-2.992-78.4-2.992s-54.656 1.088-78.4 2.992c21.68 16.816 48.816 26.928 78.4 26.928s56.72-10.096 78.4-26.928z" fill="#fff"/></svg>