<svg xmlns="http://www.w3.org/2000/svg" xmlns:xlink="http://www.w3.org/1999/xlink" viewBox="0 0 511.999 511.999" xmlns:v="https://vecta.io/nano"><circle cx="247.408" cy="253.612" r="247.408" fill="#ffd93b"/><path d="M494.8 253.612c0 136.688-110.784 247.408-247.408 247.408-77.776 0-147.2-35.872-192.592-92.08 42.448 34.336 96.496 54.816 155.328 54.816 136.608 0 247.408-110.72 247.408-247.408 0-58.832-20.48-112.88-54.816-155.328 56.144 45.376 92.08 114.8 92.08 192.592z" fill="#f4c534"/><path d="M370.736 402.3c-85.472-40.128-165.232-38.096-246.656 0 48.96-64.256 187.776-66.864 246.656 0z" fill="#3e4347"/><path d="M503.504 215.308c-11.216-11.072-29.296-10.944-40.352.256l-124.256 125.92c-8.272 8.384-10.4 20.64-6.112 30.864l-11.808 11.968c7.712 2.176 14.464 6.208 20.128 11.552l7.648-7.744c10.256 4.144 22.496 1.856 30.768-6.528l124.256-125.92c11.072-11.248 10.944-29.296-.272-40.368z" fill="#e9eff4"/><path d="M478.304 230.524L408.256 301.5c-7.888 8 2.416 18.176 10.304 10.176l70.048-70.976c2.8-2.848 2.768-7.424-.064-10.24a7.25 7.25 0 0 0-10.24.064z" fill="#e24b4b"/><g fill="#3e4347"><use xlink:href="#B"/><use xlink:href="#C"/><path d="M373.856 326.188a1.4 1.4 0 0 1-2 .016l-4.48-4.416a1.4 1.4 0 1 1 2-2.016l4.48 4.416a1.4 1.4 0 0 1 0 2z"/><use xlink:href="#D"/><path d="M390.976 308.844a1.4 1.4 0 0 1-2 .016l-4.48-4.416c-.56-.56-.56-1.44-.016-2a1.4 1.4 0 0 1 2-.016l4.48 4.416a1.4 1.4 0 0 1 .016 2z"/><use xlink:href="#D" x="17.12" y="-17.344"/><path d="M408.096 291.5a1.4 1.4 0 0 1-2 .016l-4.48-4.416a1.4 1.4 0 1 1 2-2.016l4.48 4.416c.56.544.544 1.44 0 2z"/><use xlink:href="#C" x="51.344" y="-52.032"/><use xlink:href="#B" x="68.464" y="-69.376"/><use xlink:href="#D" x="51.344" y="-52.032"/><path d="M442.32 256.812a1.4 1.4 0 0 1-2 .016l-4.48-4.416a1.42 1.42 0 1 1 2-2.016l4.48 4.416a1.4 1.4 0 0 1 0 2zm11.104-6.176a1.4 1.4 0 0 1-2 .016l-7.008-6.928c-.56-.56-.56-1.44-.016-2a1.4 1.4 0 0 1 2-.016l7.024 6.928a1.43 1.43 0 0 1 0 2zm6.016-11.168a1.4 1.4 0 0 1-2 .016l-4.48-4.416a1.42 1.42 0 1 1 2-2.016l4.48 4.416c.56.544.544 1.44 0 2zm11.088-6.176a1.4 1.4 0 0 1-2 .016l-7.024-6.928a1.42 1.42 0 1 1 2-2.016l7.024 6.928a1.4 1.4 0 0 1 0 2z"/></g><circle cx="180.845" cy="231.419" r="84.059" fill="#f4c534"/><path d="M108.928 231.484c2.208 39.984 36.208 72.384 75.936 72.384s70.256-32.4 68.048-72.384-36.336-72.512-76.064-72.512c-39.744 0-70.144 32.528-67.92 72.512z" fill="#fff"/><path d="M146.816 231.42c-.08 18.832 15.264 34.176 34.112 34.096 18.848.08 34.192-15.264 34.112-34.112.08-18.848-15.264-34.176-34.112-34.096-18.848-.08-34.192 15.264-34.112 34.112z" fill="#3e4347"/><ellipse transform="matrix(-.7071 -.7071 .7071 -.7071 132.6595 492.7982)" cx="168.392" cy="218.924" rx="6.528" ry="10.176" fill="#fff"/><g fill="#f4c534"><path d="M239.904 172.124c-53.76-2.768-101.104 13.344-142 48.336 1.2-8.768 3.392-17.6 7.568-26.096 20.48-41.6 70.864-58.896 112.48-38.432 8.48 4.176 15.6 9.84 21.952 16.192zM135.792 301.836c2.624 1.68 5.088 3.552 7.952 4.96 41.632 20.48 92.096 3.424 112.576-38.208 1.424-2.896 2.256-5.92 3.312-8.896-38.112 23.44-79.392 37.504-123.84 42.144z"/><circle cx="335.864" cy="240.983" r="63.952"/></g><path d="M390.608 241.036c-1.68 30.416-27.552 55.056-57.776 55.056s-53.456-24.64-51.76-55.056c1.68-30.416 27.648-55.152 57.872-55.152 30.224-.016 53.344 24.736 51.664 55.152z" fill="#fff"/><circle cx="335.84" cy="240.956" r="25.952" fill="#3e4347"/><ellipse transform="matrix(-.7071 -.7071 .7071 -.7071 425.8781 639.3362)" cx="345.35" cy="231.466" rx="7.744" ry="4.976" fill="#fff"/><path d="M285.216 202.428c40.224-7.68 77.568-.448 112.032 21.664-1.808-6.48-4.384-12.912-8.416-18.88-19.76-29.216-59.536-37.024-88.752-17.264-5.968 4.032-10.736 9.04-14.864 14.48zm91.952 86.928c-1.808 1.536-3.456 3.2-5.472 4.56-29.232 19.76-69.04 12.16-88.8-17.088-1.376-2.032-2.304-4.224-3.424-6.368 31.152 13.728 63.712 20.032 97.696 18.896z" fill="#f4c534"/><path d="M311.376 111.356s71.856 4.848 111.488 54.752c0 0-55.888-115.184-111.488-54.752zm-127.952 0s-71.856 4.848-111.488 54.752c.016 0 55.888-115.184 111.488-54.752z" fill="#3e4347"/><path d="M355.952 455.884c-8.656 42.544-44.208 57.952-68.16 45.984-45.472-22.736-12.544-94-26.416-120.848-3.504-6.8-13.072-8.048-13.072-8.048 0-26.864 32.704-35.408 44.128-22.88 6.336 7.616 6.032 8.352 16.56 4.24 40.72-15.904 56.592 56.208 46.96 101.552z" fill="#e24b4b"/><defs ><path id="B" d="M356.752 343.532a1.4 1.4 0 0 1-2 .016l-4.48-4.416c-.56-.56-.56-1.44-.016-2a1.4 1.4 0 0 1 2-.016l4.48 4.416c.56.544.56 1.44.016 2z"/><path id="C" d="M367.84 337.356a1.4 1.4 0 0 1-2 .016l-7.024-6.928c-.56-.56-.56-1.44-.016-2a1.4 1.4 0 0 1 2-.016l7.024 6.928c.576.56.576 1.456.016 2z"/><path id="D" d="M384.96 320.012a1.4 1.4 0 0 1-2 .016l-7.024-6.928a1.4 1.4 0 1 1 2-2.016l7.024 6.928a1.43 1.43 0 0 1 0 2z"/></defs></svg>