<svg xmlns="http://www.w3.org/2000/svg" viewBox="0 0 512 512" xmlns:v="https://vecta.io/nano"><circle cx="256" cy="256" r="256" fill="#ffd93b"/><g fill="#f4c534"><path d="M512 256c0 141.44-114.64 256-256 256-80.48 0-152.32-37.12-199.28-95.28 43.92 35.52 99.84 56.72 160.72 56.72 141.36 0 256-114.56 256-256 0-60.88-21.2-116.8-56.72-160.72C474.8 103.68 512 175.52 512 256z"/><circle cx="147.264" cy="239.296" r="98.448"/></g><path d="M231.536 239.328c-2.592 46.832-42.4 84.768-88.944 84.768s-82.288-37.952-79.696-84.768 42.56-84.928 89.088-84.928c46.544 0 82.144 38.096 79.552 84.928z" fill="#fff"/><path d="M155.152 72.928s-52.016-7.312-106.624 55.904c0 0 35.312-113.248 106.624-55.904zm201.696 0s52.016-7.312 106.624 55.904c0 0-35.312-113.248-106.624-55.904zm22.608 360.688c0 52.976-55.264 0-123.456 0s-123.456 52.976-123.456 0c0-68.624 55.28-95.92 123.456-95.92s123.456 27.296 123.456 95.92z" fill="#3e4347"/><path d="M335.888 451.152c2.32-5.888 3.408-12.272 2.512-19.072-3.152-23.856-26.864-42.608-53.44-44.384-15.12-1.008-29.056 3.488-38.88 11.696-5.152-2.144-10.832-3.456-16.976-3.872-25.648-1.728-50.864 13.648-57.12 36.64-1.904 6.992-1.6 13.84.128 20.256 22.032-6.864 51.456-18.8 83.888-18.8 30.496 0 58.352 10.56 79.888 17.536z" fill="#e24b4b"/><path d="M142.304 389.584c28.288-11.92 67.728-27.68 112.384-27.68 45.488 0 86.24 16.336 115.296 28.32C351.392 353.216 307.376 337.68 256 337.68c-51.088.016-94.928 15.36-113.696 51.904z" fill="#fff"/><path d="M187.152 239.248c.096 22.064-17.872 40.032-39.936 39.936-22.064.096-40.048-17.888-39.952-39.952-.096-22.064 17.872-40.032 39.936-39.936 22.08-.08 40.048 17.888 39.952 39.952z" fill="#3e4347"/><ellipse transform="matrix(-.7071 -.7071 .7071 -.7071 117.5661 497.9214)" cx="161.906" cy="224.612" rx="11.92" ry="7.648" fill="#fff"/><circle cx="364.832" cy="239.296" r="98.448" fill="#f4c534"/><path d="M449.088 239.328c-2.592 46.832-42.4 84.768-88.944 84.768s-82.288-37.952-79.696-84.768c2.592-46.832 42.56-84.912 89.088-84.912 46.56-.016 82.16 38.08 79.552 84.912z" fill="#fff"/><path d="M404.72 239.248c.096 22.064-17.872 40.032-39.936 39.936-22.064.096-40.048-17.888-39.936-39.952-.096-22.064 17.872-40.032 39.936-39.936 22.064-.08 40.032 17.888 39.936 39.952z" fill="#3e4347"/><ellipse transform="matrix(-.7071 -.7071 .7071 -.7071 488.9176 651.7902)" cx="379.449" cy="224.637" rx="11.92" ry="7.648" fill="#fff"/></svg>