<svg xmlns="http://www.w3.org/2000/svg" viewBox="0 0 511.985 511.985" xmlns:v="https://vecta.io/nano"><circle cx="255.992" cy="225.76" r="225.76" fill="#ffd93b"/><path d="M481.672 225.68c0 124.688-101.056 225.68-225.68 225.68-70.944 0-134.272-32.72-175.68-84 38.72 31.312 88.016 50 141.68 50 124.608 0 225.68-100.992 225.68-225.68 0-53.664-18.688-102.96-50-141.68 51.2 41.392 84 104.736 84 175.68z" fill="#f4c534"/><path d="M241.144 214.336c-6.256 32.384-34.368 57.504-67.344 60.256-36.528 2.944-67.392-19.616-78.032-50.848-2.848-8.112 2.928-16.336 11.568-16.608 16.16-.624 33.472-5.84 49.68-15.776 18.864-11.472 32.64-27.376 40.128-44.256 3.488-7.824 13.12-10.288 19.536-4.784 19.504 16.976 30.032 43.68 24.464 72.016z" fill="#fff"/><path d="M228.904 210.368c0 15.616-12.624 28.544-28.4 28.56-15.616 0-28.544-12.928-28.544-28.544 0-15.776 12.944-28.384 28.544-28.384 15.776-.032 28.4 12.592 28.4 28.368z" fill="#3e4347"/><ellipse transform="matrix(-.7071 -.7071 .7071 -.7071 220.4812 489.7676)" cx="211.675" cy="199.221" rx="8.208" ry="5.264" fill="#5a5f63"/><path d="M90.36 173.008c16.432-10.464 38.848-23.104 57.216-36.192 41.008-30.624 34.56-29.632 49.456-44.624-4.32 24.864-20.384 42.896-40.224 57.76C130.76 167.2 105.32 173.6 90.36 173.008z" fill="#f4c534"/><path d="M270.84 214.336c6.256 32.384 34.368 57.504 67.344 60.256 36.528 2.944 67.392-19.616 78.032-50.848 2.848-8.112-2.928-16.336-11.568-16.608-16.16-.624-33.472-5.84-49.68-15.776-18.864-11.472-32.64-27.376-40.128-44.256-3.488-7.824-13.12-10.288-19.536-4.784-19.504 16.976-30.032 43.68-24.464 72.016z" fill="#fff"/><path d="M340.024 210.368c0 15.616-12.624 28.544-28.384 28.56-15.616 0-28.544-12.928-28.544-28.544 0-15.776 12.928-28.384 28.544-28.384 15.76-.032 28.384 12.592 28.384 28.368z" fill="#3e4347"/><ellipse transform="matrix(-.7071 -.7071 .7071 -.7071 410.2815 568.3424)" cx="322.848" cy="199.199" rx="8.208" ry="5.264" fill="#5a5f63"/><path d="M421.624 173.008c-16.432-10.464-38.848-23.104-57.216-36.192-41.008-30.624-34.56-29.632-49.44-44.624 4.32 24.864 20.384 42.896 40.224 57.76 26.032 17.248 51.472 23.648 66.432 23.056z" fill="#f4c534"/><path d="M356.088 367.808c1.552 7.056-5.072 12.976-11.984 11.136-58.672-15.664-117.488-15.664-176.304 0-6.912 1.84-13.536-4.096-11.84-11.136 10.576-45.424 51.344-79.264 100-79.264 48.784 0 89.408 33.856 100.128 79.264z" fill="#3e4347"/><path d="M270.216 365.872c-2.112 3.568-5.904 5.664-9.264 8.176-35.104 27.728-11.376 102.592-79.488 132.752-15.584 6.896-54.4 8.864-65.456-6.512-29.728-41.392 20.64-68.592 36.8-80.128 22.048-15.776 12.784-53.44 32.72-71.28 12.496-11.28 32.016-9.68 43.968 2.144l-.848-1.168c12.08-5.936 26.256-10.928 37.216-1.824 5.2 4.336 7.584 12.208 4.352 17.84z" fill="#e24b4b"/><path d="M150.168 455.408c-2.688 5.568-7.904 9.024-12.448 13.136-4.56 3.984-8.672 9.424-8.208 15.664.192 2.128.912 4.24 1.12 6.496s-.496 4.768-2.416 5.712c-1.536.8-3.376.4-4.832-.528s-2.544-2.384-3.504-3.84c-3.84-6.096-5.504-13.536-4.816-20.704 1.216-10.432 18.208-29.632 27.664-29.584 2.464-.272 5.216.528 6.96 2.384 2.688 3.04 2.32 7.808.48 11.264z" fill="#fff" opacity=".2"/></svg>