<svg xmlns="http://www.w3.org/2000/svg" xmlns:xlink="http://www.w3.org/1999/xlink" viewBox="0 0 512 512" xmlns:v="https://vecta.io/nano"><circle cx="256" cy="256" r="256" fill="#ffd93b"/><path d="M512 256c0 141.44-114.64 256-256 256-80.48 0-152.32-37.12-199.28-95.28 43.92 35.52 99.84 56.72 160.72 56.72 141.36 0 256-114.56 256-256 0-60.88-21.2-116.8-56.72-160.72C474.8 103.68 512 175.52 512 256z" fill="#f4c534"/><use xlink:href="#B" fill="#ffd93b"/><use xlink:href="#B" fill="#3e4347"/><path d="M317.6 378c18.688 1.632 36.464 5.12 55.904 6.368.784-9.376-4.736-17.792-20.112-22.912-8.064-2.64-25.616-7.84-47.184-11.552-17.12-2.832-34.544-5.936-52.24-9.44-17.68-3.504-35.52-7.728-53.456-12.944-22.56-6.784-43.632-5.808-52.608-3.056-18.096 5.184-27.072 20.912-29.888 34.096 20.176.368 40.272 5.152 59.584 9.504-19.328 4.4-38.88 9.104-59.024 14.352 4.208 14.704 16.256 30.352 35.456 27.888 7.68-1.008 23.52-7.184 43.616-16.96 15.792-7.488 32.72-11.44 49.232-11.76 16.512-.336 32.544 2.48 46.96 7.824a264.31 264.31 0 0 1 39.168 17.728c15.824 9.072 26.368 4.56 34.08-6.144-15.888-9.04-32.48-16.624-49.488-22.992z" fill="#fff"/><circle cx="158.512" cy="183.008" r="86.048" fill="#f4c534"/><path d="M234.688 183.008c-2.288 41.344-38.256 74.848-80.32 74.848s-74.304-33.504-72.016-74.848c2.288-41.328 38.256-74.848 80.32-74.848s74.304 33.52 72.016 74.848z" fill="#fff"/><circle cx="180.148" cy="183.469" r="42.784" fill="#3e4347"/><path d="M205.712 174.08c-3.28 3.28-9.664 2.416-14.16-2.08-4.32-4.48-5.344-10.704-2.064-14.144 3.456-3.28 9.664-2.24 14.16 2.064 4.48 4.496 5.344 10.88 2.064 14.16z" fill="#5a5f63"/><circle cx="352.8" cy="183.008" r="86.048" fill="#f4c534"/><path d="M276.56 183.008c2.288 41.344 38.256 74.848 80.32 74.848s74.304-33.504 72.016-74.848-38.256-74.848-80.32-74.848c-42.08 0-74.32 33.52-72.016 74.848z" fill="#fff"/><circle cx="331.084" cy="183.461" r="42.784" fill="#3e4347"/><path d="M356.672 174.08c-3.28 3.28-9.664 2.416-14.144-2.08-4.32-4.48-5.344-10.704-2.064-14.144 3.456-3.28 9.664-2.24 14.144 2.064 4.48 4.496 5.344 10.88 2.064 14.16z" fill="#5a5f63"/><path d="M60.48 264.352c60.928 26.064 120.096 27.84 177.168 0-65.936-35.968-143.056-14.704-177.168-1.856 0 0 0 1.856 0 1.856z" fill="#ffd93b"/><path d="M233.808 262.128c-16-2.864-37.888-10.256-79.76-9.76-29.04-.08-58.096 3.888-81.04 5.744 16.032-10.768 48.544-21.664 80.992-21.728 29.408.576 56.96 7.088 79.808 25.744z" fill="#f4c534"/><defs ><path id="B" d="M380.128 402.976c-14.08 23.184-29.84 25.216-50.24 12-7.76-4.704-23.376-12.48-41.168-17.584-26.96-8.416-59.44-6.336-88.096 8.96-18.512 9.952-35.168 17.264-44.656 18.224-25.008 1.712-47.456-20.544-51.84-43.36-4.752-22.256 10.128-60.288 43.648-71.488 12.048-3.84 35.36-3.68 57.632 4.224 34.384 11.584 67.92 19.984 100.528 26.576 21.088 4.336 40.736 10.192 51.2 13.328 28.816 8.016 37.072 26.464 22.992 49.12z"/></defs></svg>