<svg xmlns="http://www.w3.org/2000/svg" viewBox="0 0 512 512" xmlns:v="https://vecta.io/nano"><circle cx="256" cy="256" r="256" fill="#ffd93b"/><g fill="#f4c534"><path d="M512 256c0 141.44-114.64 256-256 256-80.48 0-152.32-37.12-199.28-95.28 43.92 35.52 99.84 56.72 160.72 56.72 141.36 0 256-114.56 256-256 0-60.88-21.2-116.8-56.72-160.72C474.8 103.68 512 175.52 512 256z"/><ellipse cx="148.688" cy="216.592" rx="92" ry="100.768"/></g><path d="M229.888 216.592c3.296 46.192-30.384 83.632-75.232 83.632s-83.888-37.44-87.184-83.632 30.384-83.632 75.248-83.632c44.848 0 83.872 37.44 87.168 83.632z" fill="#fff"/><path d="M203.904 247.552c-14.8 14.8-38.736 14.8-53.664 0-14.8-14.928-14.8-38.864 0-53.808 14.928-14.8 38.864-14.8 53.664 0 14.928 14.928 14.928 38.88 0 53.808z" fill="#3e4347"/><path d="M203.104 215.008c-3.088 2.688-8.88.8-13.04-4.032-4.032-4.848-4.848-10.896-1.744-13.456 3.088-2.688 8.88-.8 13.056 4.032 4.016 4.832 4.816 10.896 1.728 13.456z" fill="#5a5f63"/><ellipse cx="363.312" cy="216.592" rx="92" ry="100.768" fill="#f4c534"/><path d="M282.096 216.592c-3.296 46.192 30.384 83.632 75.232 83.632s83.888-37.44 87.184-83.632-30.384-83.632-75.232-83.632-83.872 37.44-87.184 83.632z" fill="#fff"/><path d="M308.096 247.552c14.8 14.8 38.736 14.8 53.664 0 14.8-14.928 14.8-38.864 0-53.808-14.928-14.8-38.88-14.8-53.664 0-14.944 14.928-14.944 38.88 0 53.808z" fill="#3e4347"/><path d="M308.896 215.008c3.088 2.688 8.88.8 13.04-4.032 4.032-4.848 4.848-10.896 1.744-13.456-3.088-2.688-8.88-.8-13.04 4.032-4.032 4.832-4.832 10.896-1.744 13.456z" fill="#5a5f63"/><ellipse cx="256" cy="386.08" rx="53.504" ry="59.84" fill="#3e4347"/></svg>