<svg xmlns="http://www.w3.org/2000/svg" viewBox="0 0 512 512" xmlns:v="https://vecta.io/nano"><circle cx="256" cy="256" r="256" fill="#ffd93b"/><path d="M512 256c0 141.44-114.64 256-256 256-80.48 0-152.32-37.12-199.28-95.28 43.92 35.52 99.84 56.72 160.72 56.72 141.36 0 256-114.56 256-256 0-60.88-21.2-116.8-56.72-160.72C474.8 103.68 512 175.52 512 256z" fill="#f4c534"/><circle cx="348.864" cy="219.664" r="50" fill="#3e4347"/><path d="M381.552 207.472c-3.392 4.048-11.936 2.512-19.024-3.44-7.12-5.776-10.128-13.984-6.576-18 3.424-4.208 11.808-2.704 18.896 3.248 7.248 5.968 10.096 14.144 6.704 18.192z" fill="#5a5f63"/><path d="M95.456 193.104c8.288-9.488 31.088-24.864 61.008-23.104 18.384 1.088 35.664 9.84 48.768 22.784 13.808 13.648 23.68 31.2 30.8 52.928-18.96-13.648-21.152-21.92-59.008-42.736-3.6-1.968-7.408-3.808-11.28-5.2-22.08-7.936-45.488-10.288-70.288-4.672zm271.152 181.424c-57.648 76.896-224.416 46.288-250.064-46.208-1.84-6.672 5.888-12.048 11.456-7.744 74.064 57.536 150.8 71.808 230.352 42.992 6.608-2.432 12.416 5.376 8.256 10.96z" fill="#3e4347"/></svg>