<svg xmlns="http://www.w3.org/2000/svg" viewBox="0 0 512 512" xmlns:v="https://vecta.io/nano"><circle cx="256" cy="256" r="256" fill="#ffd93b"/><path d="M512 256c0 141.44-114.64 256-256 256-80.48 0-152.32-37.12-199.28-95.28 43.92 35.52 99.84 56.72 160.72 56.72 141.36 0 256-114.56 256-256 0-60.88-21.2-116.8-56.72-160.72C474.8 103.68 512 175.52 512 256z" fill="#f4c534"/><path d="M353.552 379.344l-187.84 44.8c-5.28 1.28-9.44-4.64-6.4-9.12 29.44-44.32 132.96-182.24 198.4-44.16 1.6 3.376-.48 7.52-4.16 8.48z" fill="#3e4347"/><path d="M321.072 374.704l-142.88 34.08c21.92-30.56 67.52-85.76 109.12-85.76 2.08 0 4 .16 5.92.48l27.84 51.2z" fill="#fff"/><circle cx="172.128" cy="223.568" r="45.52" fill="#3e4347"/><path d="M201.888 212.464c-3.088 3.68-10.864 2.288-17.312-3.12-6.48-5.264-9.216-12.72-5.984-16.384 3.12-3.84 10.752-2.448 17.2 2.944 6.592 5.44 9.2 12.88 6.096 16.56z" fill="#5a5f63"/><circle cx="339.872" cy="223.568" r="45.52" fill="#3e4347"/><path d="M369.632 212.464c-3.088 3.68-10.864 2.288-17.312-3.12-6.48-5.264-9.216-12.72-5.984-16.384 3.12-3.84 10.752-2.448 17.2 2.944 6.576 5.44 9.184 12.88 6.096 16.56z" fill="#5a5f63"/><path d="M89.984 182.24c-1.072-16 9.872-49.088 51.344-67.504 29.152-8.304 55.024-10.032 85.264 5.296-24.128 3.936-31.104-.96-77.952 13.312-23.648 9.936-43.904 25.488-58.656 48.896zm215.392-90.976c14.608 23.152 34.672 38.832 58.656 48.896 46.624 14.24 53.872 9.392 77.952 13.312-29.824 15.12-55.488 13.776-85.264 5.296-38.624-17.152-52.544-49.536-51.344-67.504z" fill="#3e4347"/></svg>