<svg xmlns="http://www.w3.org/2000/svg" viewBox="0 0 512 512" xmlns:v="https://vecta.io/nano"><circle cx="256" cy="256" r="256" fill="#ffd93b"/><path d="M512 256c0 141.44-114.64 256-256 256-80.48 0-152.32-37.12-199.28-95.28 43.92 35.52 99.84 56.72 160.72 56.72 141.36 0 256-114.56 256-256 0-60.88-21.2-116.8-56.72-160.72C474.8 103.68 512 175.52 512 256z" fill="#f4c534"/><path d="M343.408 430.672c-14.608 6.256-46.016-20.592-92.32-40.656-52.32-22.192-92.4-5.792-101.472-16.096-11.408-7.088 28.304-41.072 115.84-39.28 101.6 5.008 95.376 91.744 77.952 96.032z" fill="#3e4347"/><path d="M241.856 222.624c0 39.584-35.552 75.952-79.392 81.232-43.856 5.28-79.392-22.528-79.392-62.112s35.552-75.952 79.392-81.232 79.392 22.528 79.392 62.112z" fill="#fff"/><circle cx="175.729" cy="222.766" r="37.36" fill="#3e4347"/><path d="M198.64 214.624c-2.832 2.832-8.48 1.696-12.56-2.384-3.952-3.968-5.088-9.616-2.256-12.448 2.72-2.72 8.368-1.584 12.336 2.384 4.064 4.08 5.2 9.744 2.48 12.448z" fill="#5a5f63"/><path d="M270.144 222.624c0 39.584 35.552 75.952 79.392 81.232 43.856 5.28 79.392-22.528 79.392-62.112s-35.552-75.952-79.392-81.232-79.392 22.528-79.392 62.112z" fill="#fff"/><circle cx="336.307" cy="222.747" r="37.36" fill="#3e4347"/><path d="M313.36 214.624c2.832 2.832 8.48 1.696 12.56-2.384 3.968-3.968 5.088-9.616 2.272-12.448-2.72-2.72-8.368-1.584-12.336 2.384-4.08 4.08-5.216 9.744-2.496 12.448z" fill="#5a5f63"/><path d="M98.656 155.376c16-7.984 44.704-21.808 63.472-35.92 26.336-18.032 38.608-34.8 54.608-48.208-1.76 25.664-19.584 53.872-40.752 67.808-24.464 17.952-59.264 23.024-77.328 16.32zm302.56-35.136c-12.432 14.992-45.2 27.824-75.136 24.496-29.12-1.696-55.568-18.128-69.184-38.352 16 2.816 40.512 12.08 71.392 14.464 23.952 2.912 56.928.368 72.928-.608z" fill="#f4c534"/></svg>