<svg xmlns="http://www.w3.org/2000/svg" viewBox="0 0 512 512" xmlns:v="https://vecta.io/nano"><circle cx="256" cy="256" r="256" fill="#ffd93b"/><path d="M512 256c0 141.44-114.64 256-256 256-80.48 0-152.32-37.12-199.28-95.28 43.92 35.52 99.84 56.72 160.72 56.72 141.36 0 256-114.56 256-256 0-60.88-21.2-116.8-56.72-160.72C474.8 103.68 512 175.52 512 256z" fill="#f4c534"/><path d="M401.184 334.352c-18.08 61.92-75.2 107.2-143.2 107.2-67.68 0-124.8-45.12-142.88-107.04-1.6-5.44 2.88-10.72 8.48-9.44 86.88 18.08 176.64 18.08 269.12-.16 5.44-1.12 10.08 4 8.48 9.44z" fill="#3e4347"/><path d="M148.592 329.696c11.952 28.112 57.424 45.808 110.128 45.552 53.104.272 98.896-17.712 110.4-46.208-75.376 12.432-148.88 12.672-220.528.656z" fill="#fff"/><path d="M257.984 441.552c21.648 0 42.16-4.672 60.72-12.944-.192-22.784-18.592-41.104-41.408-41.104-12.512 0-23.792 5.568-31.296 14.32-5.568-2.912-11.824-4.448-18.496-4.448-17.824 0-32.832 11.296-38.704 26.992 20.656 10.912 44.16 17.184 69.184 17.184z" fill="#e24b4b"/><path d="M298.704 409.44c-1.952 2.992-8.96 2.928-15.504-.112-6.688-3.056-10.384-7.92-8.272-10.88 1.952-2.992 8.8-2.96 15.312.192 6.736 2.96 10.432 7.808 8.464 10.8z" fill="#fff" opacity=".25"/><path d="M325.04 224.928l11.488-42.848c-21.76-13.04-33.248-30.976-26.56-55.888 5.936-22.128 25.296-34.976 49.824-30.928l2.72-10.128 14.832 3.968-2.72 10.128c21.712 8.688 30.48 25.168 28.608 45.808l-26.784-3.552c.592-8.464-2.048-15.024-7.888-19.648l-10.72 39.984c60.944 35.408 26.16 97.168-24.416 91.12l-5.12 19.12-14.832-3.968 4.992-18.608c-21.936-8.832-34.176-26.928-30.96-55.856l27.456 4.288c-.768 11.856 3.84 21.648 10.08 27.008zm28.768-107.392c-17.536 1.136-26.496 21.952-9.488 35.376l9.488-35.376zm-14.32 112.8c20.976 1.616 35.248-25.072 10.688-39.888l-10.688 39.888zm-166.88-1.36l-11.488-42.848c-25.36-.416-44.272-10.208-50.96-35.12-5.92-22.144 4.432-42.944 27.696-51.712l-2.72-10.128 14.832-3.968 2.72 10.128c23.136-3.328 38.976 6.56 47.68 25.36l-24.976 10.304c-3.728-7.632-9.28-11.984-16.656-13.072l10.72 39.984c70.48.192 71.232 71.088 24.416 91.12l5.12 19.12-14.832 3.968-4.992-18.608c-23.408 3.328-43.056-6.24-54.736-32.896l25.92-10.016c5.296 10.688 14.176 16.848 22.256 18.384zM143.84 121.6c-14.608 9.76-11.968 32.256 9.488 35.392L143.84 121.6zm43.984 104.832c18.992-9.088 17.984-39.328-10.688-39.888l10.688 39.888z" fill="#719d34"/></svg>