<svg xmlns="http://www.w3.org/2000/svg" viewBox="0 0 512 512" xmlns:v="https://vecta.io/nano"><circle cx="256" cy="256" r="256" fill="#ffd93b"/><path d="M512 256c0 141.44-114.64 256-256 256-80.48 0-152.32-37.12-199.28-95.28 43.92 35.52 99.84 56.72 160.72 56.72 141.36 0 256-114.56 256-256 0-60.88-21.2-116.8-56.72-160.72C474.8 103.68 512 175.52 512 256z" fill="#f4c534"/><path d="M230.032 95.632c0 37.168-16.592 61.872-42.08 83.84-23.328 20.112-64.464 33.008-89.12 29.76 20.464-9.328 63.152-32.352 76.64-45.28 32.672-26.384 41.792-47.872 54.56-68.32zm52 0c10 16 19.408 39.936 54.56 68.32 6.272 6.016 36.448 26.752 76.48 45.28-23.936 3.2-65.744-9.616-89.12-29.76-27.088-23.36-41.92-48.896-41.92-83.84zm145.44 134.56c-33.088 20.4-80.416 34.208-118.56 40.32-5.44 10.24-11.84 20.32-20.48 29.28-1.04-16.016 1.808-30.784 5.28-46.4 63.248-21.104 104.704-25.056 133.76-23.2zm-203.84 69.6c-8.64-8.96-14.88-18.88-20.64-29.12-38.288-6.48-85.184-20-118.4-40.48 45.088-2.896 91.536 9.472 133.76 23.2 2.96 16 6.24 28.704 5.28 46.4zm134.336 142.48c-25.616-44.736-35.968-64.192-96.176-61.648-59.344.992-69.104 19.664-92.768 66.768-.368-62.48 32.832-87.952 92.128-90.736 58.464-.288 93.392 21.648 96.816 85.616z" fill="#3e4347"/></svg>