<svg xmlns="http://www.w3.org/2000/svg" viewBox="0 0 512 512" xmlns:v="https://vecta.io/nano"><circle cx="256" cy="227.92" r="227.92" fill="#ffd93b"/><path d="M483.92 227.92c0 125.92-102.064 227.92-227.92 227.92-71.648 0-135.616-33.056-177.424-84.832 39.104 31.616 88.88 50.496 143.088 50.496 125.856 0 227.92-102 227.92-227.92 0-54.208-18.88-103.984-50.496-143.088C450.8 92.304 483.92 156.272 483.92 227.92z" fill="#f4c534"/><path d="M401.456 203.744c0 49.584-31.232 89.664-69.76 89.664-38.384 0-69.616-40.08-69.616-89.664s31.232-89.792 69.616-89.792c38.528 0 69.76 40.208 69.76 89.792z" fill="#3e4347"/><path d="M389.488 203.744c0 43.6-27.456 78.864-61.296 78.864-33.712 0-61.168-35.264-61.168-78.864s27.456-78.992 61.168-78.992c33.824 0 61.296 35.392 61.296 78.992z" fill="#fff"/><path d="M339.776 213.248c0 20.768-13.792 37.616-30.784 37.616-16.864 0-30.656-16.864-30.656-37.616s13.792-37.616 30.656-37.616c17.008 0 30.784 16.848 30.784 37.616z" fill="#3e4347"/><path d="M326.176 206.64c-3.152 1.728-8.032-1.184-10.96-6.4-2.896-5.344-2.752-10.96.384-12.688 3.024-1.76 8.064 1.056 10.96 6.4 2.944 5.216 2.768 10.96-.384 12.688z" fill="#5a5f63"/><path d="M402.464 138.384s-27.92-57.296-84.208-52.864c-17.728 1.376-31.84 5.312-41.152 11.68 32.096-75.344 115.344-1.12 125.36 41.184zm-291.92 65.36c0 49.584 31.232 89.664 69.76 89.664 38.384 0 69.616-40.08 69.616-89.664s-31.232-89.792-69.616-89.792c-38.528 0-69.76 40.208-69.76 89.792z" fill="#3e4347"/><path d="M122.512 203.744c0 43.6 27.456 78.864 61.296 78.864 33.712 0 61.168-35.264 61.168-78.864s-27.456-78.992-61.168-78.992c-33.84 0-61.296 35.392-61.296 78.992z" fill="#fff"/><path d="M172.224 213.248c0 20.768 13.792 37.616 30.784 37.616 16.864 0 30.656-16.864 30.656-37.616s-13.792-37.616-30.656-37.616c-17.008 0-30.784 16.848-30.784 37.616z" fill="#3e4347"/><path d="M184.816 206.144c2.992 1.984 8.112-.48 11.472-5.408 3.36-5.056 3.712-10.672.72-12.656-2.864-2.016-8.128.352-11.488 5.408-3.36 4.928-3.696 10.656-.704 12.656z" fill="#5a5f63"/><path d="M109.536 138.384s27.92-57.296 84.208-52.864c17.728 1.376 31.84 5.312 41.152 11.68-32.096-75.344-115.344-1.12-125.36 41.184zm235.968 185.04c16.512 1.584-8.992 81.552-91.168 78.976-82.112-4.032-101.104-85.792-84.512-86.064 12.768-1.328 47.312 18.752 87.152 20.352 40 1.616 75.92-15.616 88.528-13.264z" fill="#3e4347"/><path d="M254.352 402.4c17.04.544 31.504-2.608 43.792-7.728-2.304-22.048-22.784-39.376-48-39.376-22.192 0-40.688 13.44-46.432 31.664 13.152 8.416 29.856 14.432 50.64 15.44z" fill="#32373a"/><path d="M224.672 453.232c-.064 32.128 8.8 64.224 45.504 57.984 12.24-2.08 22.448-8.512 29.888-17.344 12.144-14.4 14.816-34.768 9.072-52.704l-.976-2.912c-6.736-19.056-15.184-42.448-28.8-51.616-10.176-6.864-25.04-8.24-34.192-.048-9.984-14.032-30.656-14.496-39.568-4.688-3.424 3.76-.752 7.52 1.216 11.36 14.864 29.12 18.144 47.168 17.856 59.968z" fill="#e24b4b"/><path d="M248.496 393.84s3.552 5.152 7.6 13.696c4.112 8.496 8.096 20.512 10.656 32.848 2.304 12.384 3.184 25.024 2.464 34.448-.624 9.424-2.192 15.52-2.192 15.52s.528-6.256.192-15.552c-.24-9.296-1.456-21.632-3.952-33.728-2.272-12.144-5.84-24.032-9.008-32.768-3.088-8.752-5.76-14.464-5.76-14.464z" fill="#d03f3f"/><path d="M258.4 336.672l6.064 18.8c.368 1.088 1.664 1.808 2.992 1.6l14.464-2.224c1.328-.208 2.352-1.28 2.368-2.432l.128-17.296c-8.304 1.168-17.04 1.824-26.016 1.552zm-33.792-5.008l.16 20.752c.016 1.152 1.04 2.224 2.368 2.432l14.464 2.224c1.328.208 2.624-.512 2.992-1.6l6.256-19.36c-9.168-.8-17.968-2.368-26.24-4.448z" fill="#fff"/></svg>