<svg xmlns="http://www.w3.org/2000/svg" viewBox="0 0 512.022 512.022" xmlns:v="https://vecta.io/nano"><circle cx="256.011" cy="235.488" r="235.488" fill="#ffd93b"/><path d="M491.5 235.488c0 130.112-105.456 235.488-235.488 235.488-74.032 0-140.112-34.144-183.312-87.648 40.4 32.672 91.84 52.176 147.84 52.176 130.032 0 235.488-105.376 235.488-235.488 0-56-19.504-107.44-52.176-147.84 53.424 43.2 87.648 109.28 87.648 183.312z" fill="#f4c534"/><path d="M223.93 198.208c0 39.584-31.92 71.648-71.488 71.648-39.424 0-71.488-32.064-71.488-71.648 0-39.424 32.064-71.488 71.488-71.488 39.584 0 71.488 32.064 71.488 71.488z" fill="#fff"/><circle cx="165.627" cy="198.288" r="32.976" fill="#3e4347"/><g fill="#fff"><ellipse transform="matrix(-.7072 -.7071 .7071 -.7072 172.6085 443.1868)" cx="178.082" cy="185.849" rx="9.089" ry="6.256"/><path d="M288.09 198.208c0 39.584 31.92 71.648 71.488 71.648 39.424 0 71.488-32.064 71.488-71.648 0-39.424-32.064-71.488-71.488-71.488-39.568 0-71.488 32.064-71.488 71.488z"/></g><circle cx="346.395" cy="198.288" r="32.976" fill="#3e4347"/><ellipse transform="matrix(-.7072 -.707 .707 -.7072 481.1813 570.9564)" cx="358.816" cy="185.842" rx="9.088" ry="6.256" fill="#fff"/><path d="M471.675 133.2h-7.344c-3.904-7.888-11.776-13.52-20.992-14.08-44.352-2.688-90.416-.976-140.88 5.232-10.432 1.264-15.728 6.336-18.976 13.136-5.024 10.528-15.792 17.12-27.472 17.12s-22.448-6.576-27.488-17.12c-3.248-6.8-8.544-11.872-18.96-13.136-50.464-6.192-96.56-7.92-140.88-5.232a25.11 25.11 0 0 0-21.136 14.08h-7.2c-3.68 0-6.768 3.088-6.768 6.768v25.456a6.75 6.75 0 0 0 6.768 6.768h5.264c1.584 23.52 6.08 48.56 13.936 76 2.944 10.288 12.336 17.6 23.04 18.016 46.064 1.856 91.664-1.056 137.936-7.344 12.176-1.648 21.36-11.632 21.84-23.744.32-8.368.176-16.912-.368-25.616-.528-7.968 6.016-14.656 14.016-14.656s14.544 6.688 14.032 14.688c-.56 8.704-.704 17.248-.368 25.616.48 12.112 9.664 22.096 21.84 23.744 46.56 6.304 92.32 9.216 138.464 7.312 10.656-.432 19.632-8 22.576-18.272 7.808-27.344 12.288-52.304 13.872-75.744h5.264c3.68 0 6.768-3.088 6.768-6.768v-25.456c0-3.824-3.104-6.768-6.784-6.768zM217.627 237.584c-48.08 6.528-91.952 8.848-134.048 7.184a3.82 3.82 0 0 1-3.44-2.72c-10.512-36.752-14.96-68.896-13.6-98.224.08-1.648 1.648-3.136 3.44-3.232 45.888-2.816 91.536-.48 136.96 5.104 1.504.192 2.832 1.312 3.2 2.752 8.224 31.392 11.728 59.488 10.704 85.872-.048 1.584-1.456 3.024-3.216 3.264zm214.256 4.464c-.432 1.52-1.872 2.64-3.44 2.72-42.112 1.664-85.968-.656-134.048-7.184-1.76-.24-3.168-1.68-3.232-3.28-1.024-26.384 2.48-54.48 10.704-85.872.368-1.424 1.696-2.544 3.216-2.752 45.344-5.568 90.992-7.92 136.96-5.104 1.792.096 3.36 1.584 3.44 3.232 1.36 29.328-3.088 61.472-13.6 98.24zM411.53 86.672c-32.608 2.336-130.304 5.088-120.88-45.296.848-4.448 6.24-6.24 9.744-3.488 14.288 11.008 50.592 34.72 111.136 46.144 1.584.32 1.584 2.544 0 2.64zm-311.04 0c32.608 2.336 130.304 5.088 120.88-45.296-.848-4.448-6.24-6.24-9.744-3.488-14.288 11.008-50.592 34.72-111.136 46.144-1.584.32-1.584 2.544 0 2.64z" fill="#3e4347"/><path d="M360.075 390.368c0 27.232-20.368 49.424-45.392 49.424-24.912 0-45.184-22.192-45.184-49.424 0-27.136 20.272-49.216 45.184-49.216 25.024 0 45.392 22.096 45.392 49.216z" fill="#ffd93b"/><ellipse cx="314.763" cy="390.448" rx="30.256" ry="33.264" fill="#3e4347"/><path d="M474.715 498.608c-7.488 12.768-24 17.024-36.752 9.536-4.256-2.368-7.312-5.776-9.696-9.856l-.16.512c-7.488 12.768-24 17.008-36.752 9.536-6.128-3.744-10.384-9.536-12.256-16-2.72-.336-5.44-1.2-7.824-2.72-10.048-5.776-13.28-18.544-7.488-28.416 2.56-4.432 6.464-7.488 10.896-9.024l-39.648-47.472c-6.64-7.312-2.896-13.952 5.792-9.872l57.168 18.208c5.776-5.44 14.464-7.152 21.952-4.256 8.336-8.336 21.776-10.384 32.336-4.08 11.568 6.8 16.16 20.928 11.392 32.832 5.952 7.328 7.664 17.36 4.432 26.368 10.512 7.984 13.584 22.96 6.608 34.704z" fill="#e9eff4"/></svg>