<svg xmlns="http://www.w3.org/2000/svg" viewBox="0 0 512 512" xmlns:v="https://vecta.io/nano"><circle cx="256" cy="256" r="256" fill="#ffd93b"/><path d="M512 256c0 141.44-114.64 256-256 256-80.48 0-152.32-37.12-199.28-95.28 43.92 35.52 99.84 56.72 160.72 56.72 141.36 0 256-114.56 256-256 0-60.88-21.2-116.8-56.72-160.72C474.8 103.68 512 175.52 512 256z" fill="#f4c534"/><path d="M201.616 266.544c-40.56 12.752-81.888-.512-108.48-32.112-45.2-53.536-25.424-127.424 31.968-142.368 98.656-25.504 184.928 140.608 76.512 174.48zm77.68-56.784c-13.28-29.488-6.864-61.92 16.944-84.688 52.256-49.632 142.32-15.12 147.328 60.736 5.936 89.52-130.736 97.952-164.272 23.952z" fill="#fff"/><circle cx="181.088" cy="173.872" r="44.256" fill="#3e4347"/><ellipse transform="matrix(-.7071 -.7071 .7071 -.7071 226.6722 408.0992)" cx="197.856" cy="157.104" rx="11.616" ry="7.888" fill="#fff"/><circle cx="348.464" cy="198.448" r="44.256" fill="#3e4347"/><ellipse transform="matrix(-.7071 -.7071 .7071 -.7071 494.985 568.4489)" cx="365.222" cy="181.71" rx="11.616" ry="7.888" fill="#fff"/><path d="M369.84 366.512c-3.92 44.768-47.552 61.2-98.592 68.56-61.36 8.848-123.632-9.328-118.592-66.768 2.48-28.336 23.808-51.104 52.128-59.376 14.352-4.192 28.56-8.896 41.168-16.256 53.312-31.12 129.696 7.712 123.888 73.84z" fill="#3e4347"/><path d="M271.248 435.072c27.104-3.904 52.048-10.432 70.128-22.336-3.2-23.44-16.416-43.632-35.296-56.256-10.944-7.344-25.376-8-36.848-1.552-11.728 6.704-24.864 9.28-37.232 8.88-20.736-.512-39.808 12.896-46.896 32.464-3.008 8.304-4.56 17.312-4.64 26.704 22.96 13.584 56.992 16.96 90.784 12.096z" fill="#e24b4b"/><path d="M188.08 316.112l2.336 48.128c.144 2.32 2.608 3.664 4.592 2.608l20.256-11.296c.704-.416 1.344-1.136 1.616-1.904l3.248-7.984c.288-.64.352-1.408.352-2.112l-1.184-39.232a339.85 339.85 0 0 1-14.512 4.592c-5.952 1.76-11.488 4.256-16.704 7.2zm116.864 21.472l20.72-4.448c.72-.192 1.392-.672 1.728-1.36l3.728-6.864c.32-.544.448-1.296.48-2l1.008-28.144a88.48 88.48 0 0 0-31.136-11.664l-.896 50.32c0 2.384 2.352 4.544 4.368 4.16zm-32.88-21.472l5.728-33.856c-10.864 1.184-21.6 4.528-31.552 10.288l-4.192 28c-.288 2.112 1.632 4.416 3.552 4.384l19.76-.656c.688-.048 1.376-.384 1.76-.928l4.256-5.504c.352-.464.56-1.12.688-1.728zm-.816 118.96c10.352-1.488 20.384-3.392 29.856-5.792l3.392-38.768c.16-2.128-1.904-4.304-3.824-4.16l-19.68 1.888c-.688.096-1.344.464-1.696 1.04l-3.904 5.76c-.336.448-.496 1.12-.576 1.744l-4.08 38.368c.16-.048.336-.064.512-.08zm-21.376-33.536c-.288-.608-.896-1.056-1.584-1.216l-19.36-4.016c-1.888-.352-4.176 1.6-4.256 3.728l-.784 36.128c9.488 1.024 19.44 1.2 29.552.624l.08-27.312c-.016-.624-.112-1.296-.384-1.792l-3.264-6.144z" fill="#fff"/></svg>