<svg xmlns="http://www.w3.org/2000/svg" viewBox="0 0 512 512" xmlns:v="https://vecta.io/nano"><circle cx="256" cy="256" r="256" fill="#ffd93b"/><path d="M512 256c0 141.44-114.64 256-256 256-80.48 0-152.32-37.12-199.28-95.28 43.92 35.52 99.84 56.72 160.72 56.72 141.36 0 256-114.56 256-256 0-60.88-21.2-116.8-56.72-160.72C474.8 103.68 512 175.52 512 256z" fill="#f4c534"/><path d="M235.104 224c-13.84 27.024-47.12 46.08-85.712 46.08-38.688 0-71.776-18.96-85.712-45.888-1.984-3.888 2.752-7.968 6.352-5.408 20.48 14.896 48.448 23.984 79.36 23.984s58.976-9.2 79.456-24.176c3.504-2.56 8.336 1.52 6.256 5.408zm213.168 0c-13.84 27.024-47.12 46.08-85.712 46.08-38.688 0-71.776-18.96-85.712-45.888-1.984-3.888 2.752-7.968 6.352-5.408 20.48 14.896 48.448 23.984 79.36 23.984s58.976-9.2 79.456-24.176c3.52-2.56 8.352 1.52 6.256 5.408zm16.72-66.464c-83.216-55.088-162.064-37.568-202.832-13.104-4.144 2.496-8.752 2.08-12.72-.384-40.416-25.12-119.616-41.408-202.448 13.488-6.736 4.624-9.232-4.032-3.264-9.056C101.904 98.992 196.48 53.056 256 136.848c59.52-83.792 154.096-37.872 212.272 11.632 5.968 5.024 3.456 13.68-3.28 9.056zm-146.272 218c0 34.72-28 62.88-62.72 62.88s-62.72-28.16-62.72-62.88c0-34.56 28-62.72 62.72-62.72s62.72 28.16 62.72 62.72z" fill="#3e4347"/><path d="M380.64 441.776h39.2v16.8h-66.72v-16l.8-.8 35.2-38.4H357.6v-16.96h60.64v14.4zm129.28-73.28v20.32h-85.76v-19.84l.8-.8 47.52-52.16h-42.4v-20.32h77.76v17.6l-50.4 55.2z" fill="#e24b4b"/></svg>