<svg xmlns="http://www.w3.org/2000/svg" xmlns:xlink="http://www.w3.org/1999/xlink" viewBox="0 0 512 512" xmlns:v="https://vecta.io/nano"><circle cx="256" cy="256" r="256" fill="#ffd93b"/><path d="M512 256c0 141.44-114.64 256-256 256-80.48 0-152.32-37.12-199.28-95.28 43.92 35.52 99.84 56.72 160.72 56.72 141.36 0 256-114.56 256-256 0-60.88-21.2-116.8-56.72-160.72C474.8 103.68 512 175.52 512 256z" fill="#f4c534"/><path d="M340.512 376.432c-.768 2-10.176 30.208-15.728 39.184-12.496 20.208-39.216 38.976-68.832 38.976s-55.968-17.584-68.736-38.976c-5.408-9.072-14.96-37.184-15.728-39.184 12.208 5.92 84.464 10 84.464 10s72.448-4.08 84.56-10z" fill="#e24b4b"/><path d="M314.864 394.064c-11.264 8.944-26.336 11.968-58.864 11.968-32.4 0-49.472-4.496-58.864-11.968-10.784-8.56 26.4-21.84 58.8-21.84 32.528.016 69.712 13.28 58.928 21.84z" fill="#d03f3f"/><path d="M340.608 376.336c-8.384 16.592-42.336 23.456-60.064 23.456-5.616 0-10.96-1.328-15.536-3.616-5.728-2.864-12.208-2.864-17.92 0-4.576 2.288-9.92 3.616-15.632 3.616-17.728 0-51.76-6.864-60.064-23.456 27.072-.192 42.336-33.744 60.064-33.744 9.92 0 18.688 4.016 24.592 10.304 5.904-6.288 14.688-10.304 24.496-10.304 17.744 0 32.896 33.552 60.064 33.744z" fill="#e24b4b"/><use xlink:href="#B" fill="#f4c534"/><use xlink:href="#C" fill="#fff"/><path d="M158 227.632c37.248 0 67.536 10.56 67.536 23.36v-44.208c-14.672-20.896-39.424-34.688-67.536-34.688-28.096 0-52.848 13.792-67.52 34.688v44.208c-.016-12.8 30.272-23.36 67.52-23.36z" fill="#f4c534"/><use xlink:href="#D" fill="#3e4347"/><ellipse transform="matrix(-.7071 -.7071 .7071 -.7071 108.412 559.1602)" cx="170.012" cy="257.127" rx="9.12" ry="5.84" fill="#fff"/><path d="M232.72 252.752c-22.608-26.672-130.768-24.272-149.44 0 0 0 2.448-8.112 13.76-15.52 0-.16-.16-.16-.16-.32-5.888-10.176-3.696-22.576.8-27.04 0 10.064-1.104 15.088 9.12 21.92 5.6-2.72 12.16-4.8 19.2-6.4-4.912-9.888-7.264-33.344-2.08-50.72-1.392 17.904 4.256 36.016 13.28 48.64 4.64-.8 9.6-1.28 14.56-1.44 9.536-19.088 14.832-41.936 15.2-62.24 3.648 21.904.496 51.728-3.68 62.24 8.32.32 16.32 1.28 24 2.88 10.512-12.224 16.864-35.872 11.36-55.52 8.928 17.104 7.408 45.184-.48 58.4 2.72.8 5.28 1.76 7.68 2.88 10.976-8.24 19.84-24.288 19.84-40.8 3.648 14.656-.448 33.776-9.44 45.76 14.096 8.56 16.48 17.28 16.48 17.28zm-3.36-88.432c-46.816-57.376-93.232-57.376-138.88 0 43.68-22.672 90.08-22.672 138.88 0z" fill="#3e4347"/><use xlink:href="#B" x="196" fill="#f4c534"/><use xlink:href="#C" x="196" fill="#fff"/><path d="M354 227.632c37.248 0 67.536 10.56 67.536 23.36v-44.208c-14.672-20.896-39.44-34.688-67.536-34.688s-52.848 13.792-67.52 34.688v44.208c-.016-12.8 30.272-23.36 67.52-23.36z" fill="#f4c534"/><use xlink:href="#D" x="196" fill="#3e4347"/><ellipse transform="matrix(-.7071 -.7071 .7071 -.7071 443.0039 697.7535)" cx="366.011" cy="257.128" rx="9.12" ry="5.84" fill="#fff"/><path d="M428.72 252.752c-22.608-26.672-130.768-24.272-149.44 0 0 0 2.448-8.112 13.76-15.52 0-.16-.16-.16-.16-.32-5.888-10.176-3.696-22.576.8-27.04 0 10.064-1.104 15.088 9.12 21.92 5.6-2.72 12.16-4.8 19.2-6.4-4.912-9.888-7.264-33.344-2.08-50.72-1.392 17.904 4.256 36.016 13.28 48.64 4.64-.8 9.6-1.28 14.56-1.44 9.536-19.088 14.832-41.936 15.2-62.24 3.648 21.904.512 51.728-3.68 62.24 8.32.32 16.32 1.28 24 2.88 10.512-12.224 16.864-35.872 11.36-55.52 8.928 17.104 7.408 45.184-.48 58.4 2.72.8 5.28 1.76 7.68 2.88 10.976-8.24 19.84-24.288 19.84-40.8 3.648 14.656-.448 33.776-9.44 45.76 14.096 8.56 16.48 17.28 16.48 17.28zm-3.36-88.432c-46.816-57.376-93.216-57.376-138.88 0 43.68-22.672 90.08-22.672 138.88 0z" fill="#3e4347"/><defs ><path id="B" d="M240.24 250.992c0 45.44-36.8 82.4-82.24 82.4s-82.24-36.96-82.24-82.4c0-45.28 36.8-82.24 82.24-82.24s82.24 36.96 82.24 82.24z"/><path id="C" d="M223.28 250.992c0 36.128-29.296 65.28-65.28 65.28s-65.28-29.152-65.28-65.28c0-35.984 29.296-65.136 65.28-65.136 35.984.016 65.28 29.168 65.28 65.136z"/><path id="D" d="M188.88 269.072c0 17.12-13.76 31.04-30.88 31.04s-30.88-13.92-30.88-31.04c0-16.96 13.76-30.88 30.88-30.88 17.12.016 30.88 13.92 30.88 30.88z"/></defs></svg>