<svg xmlns="http://www.w3.org/2000/svg" xmlns:xlink="http://www.w3.org/1999/xlink" viewBox="0 0 512 512" xmlns:v="https://vecta.io/nano"><circle cx="256" cy="256" r="256" fill="#ffd93b"/><path d="M510.784 256c0 141.44-114.64 256-256 256-80.48 0-152.32-37.12-199.28-95.28 43.92 35.52 99.84 56.72 160.72 56.72 141.36 0 256-114.56 256-256 0-60.88-21.2-116.8-56.72-160.72 58.08 46.96 95.28 118.8 95.28 199.28z" fill="#f4c534"/><path d="M371.632 363.04C374.224 415.92 337.248 438 255.92 438c-81.168 0-118.128-22.016-115.552-74.96-2.608-53.168 33.68-74.944 115.552-74.944 81.328 0 118.32 21.808 115.712 74.944z" fill="#3e4347"/><path d="M238.64 366.064c11.568.496 23.152.512 34.704 0-1.52-21.44-2.192-42.816-2.64-64.176-4.848-.24-9.776-.448-14.8-.432-4.96 0-9.84.144-14.64.432-.416 21.36-1.088 42.736-2.624 64.176zm92.416-50.48c.032 13.856.992 27.936 3.36 42.256 7.536-1.76 15.056-4.032 22.64-6.544-2.928-15.088-11.248-27.536-26-35.712zm-6.832 59.04c-12 1.984-24.144 3.296-36.368 4.08 1.44 14.32 3.6 28.704 6.656 43.104 16.576-2.544 30.272-7.04 40.352-13.632-4.496-11.344-7.968-22.528-10.64-33.552zm-37.536-9.44a320.7 320.7 0 0 0 34.56-4.528c-3.216-17.44-4.608-34.544-5.024-51.408-8.864-2.912-19.136-4.896-30.432-6.144-.688 20.64-.576 41.312.896 62.08zm50.56 6.96c2.064 8.944 4.704 17.968 8.048 27.12 7.84-8.768 11.968-20.096 12.736-32.432-6.912 2.08-13.824 3.856-20.784 5.312zm-156.304-56.592c-14.752 8.128-23.088 20.592-25.984 35.728 7.568 2.544 15.088 4.752 22.624 6.544 2.384-14.32 3.344-28.384 3.36-42.272zm-26.96 51.28c.768 12.352 4.88 23.632 12.72 32.448 3.344-9.136 6-18.192 8.048-27.136-6.944-1.52-13.872-3.264-20.768-5.312zm120.448 12.624c-6.128.24-12.272.352-18.432.352-6.144.016-12.272-.144-18.416-.352-1.312 14.704-3.072 29.408-5.504 44.16 7.632.608 15.648.992 23.84 1.008 8.256 0 16.304-.352 24-1.024-2.416-14.752-4.192-29.456-5.488-44.144zm-78.656-70.24c-.416 16.88-1.808 34-5.024 51.44 11.488 2.176 23.008 3.584 34.56 4.528 1.472-20.752 1.584-41.44.88-62.08-11.296 1.216-21.552 3.28-30.416 6.112zm28.368 69.488c-12.24-.864-24.368-2.064-36.368-4.08-2.672 11.056-6.144 22.24-10.64 33.568 10.08 6.656 23.776 11.088 40.368 13.648 3.04-14.416 5.2-28.8 6.64-43.136z" fill="#fff"/><g fill="#3e4347"><use xlink:href="#B"/><use xlink:href="#B" x="171.328"/></g><defs ><path id="B" d="M229.696 240.384l-.16 3.52c-10.4-10.4-32.96-17.6-59.2-17.6s-48.8 7.2-59.2 17.6c-.16-1.12-.16-2.4-.16-3.52 0-43.2 26.56-78.08 59.36-78.08s59.36 34.88 59.36 78.08z"/></defs></svg>