<svg xmlns="http://www.w3.org/2000/svg" xmlns:xlink="http://www.w3.org/1999/xlink" viewBox="0 0 512 512" xmlns:v="https://vecta.io/nano"><circle cx="256" cy="256" r="256" fill="#ffd93b"/><g fill="#f4c534"><path d="M510.784 256c0 141.44-114.64 256-256 256-80.48 0-152.32-37.12-199.28-95.28 43.92 35.52 99.84 56.72 160.72 56.72 141.36 0 256-114.56 256-256 0-60.88-21.2-116.8-56.72-160.72 58.08 46.96 95.28 118.8 95.28 199.28z"/><ellipse cx="160.32" cy="238.016" rx="78.56" ry="78.48"/></g><ellipse cx="160.32" cy="237.984" rx="61.52" ry="61.44" fill="#fff"/><use xlink:href="#B" fill="#3e4347"/><use xlink:href="#C" fill="#5a5f63"/><path d="M176.688 278.784c-12.8 0-12.8-4.16-25.6-4.16s-12.8 4.16-25.44 4.16c-6.4 0-9.44-.96-12.64-1.92v191.504c28.448 19.184 60.992 32.624 96 39.136v-232.4c-1.76-.32-4-.48-6.72-.48-12.816 0-12.816 4.16-25.6 4.16z" fill="#45cbea"/><g fill="#38c0dc"><path d="M113.008 451.664v17.216c28.496 19.024 61.008 32.288 96 38.624V473.12c-34.096-.944-66.512-8.448-96-21.456z"/><path d="M168.128 277.904l8.56 207.792v-207.12c-3.76 0-6.368-.288-8.56-.672zm28.736 91.088a1188.31 1188.31 0 0 1 0 129.008c-2.624-43.664-2.704-86.688 0-129.008zm-38.816-83.312c1.68 56.4 1.68 112.784 0 169.184-1.888-57.248-1.952-113.68 0-169.184zm-28.496 6.976a2341.79 2341.79 0 0 0 0 181.136c2.624-61.296 2.704-121.712 0-181.136z"/></g><ellipse cx="351.632" cy="238.016" rx="78.56" ry="78.48" fill="#f4c534"/><ellipse cx="351.6" cy="237.984" rx="61.52" ry="61.44" fill="#fff"/><use xlink:href="#B" x="191.28" fill="#3e4347"/><use xlink:href="#C" x="191.28" fill="#5a5f63"/><path d="M367.952 278.784c-12.8 0-12.8-4.16-25.6-4.16s-12.8 4.16-25.44 4.16c-6.4 0-9.44-.96-12.64-1.92v230.432c35.056-6.688 67.584-20.448 96-39.872v-192.32c-1.76-.32-4-.48-6.72-.48-12.8 0-12.8 4.16-25.6 4.16z" fill="#45cbea"/><g fill="#38c0dc"><path d="M304.272 457.568v49.552c35.12-6.88 67.616-20.96 96-40.608V395.12c-26.592 27.552-59.328 48.992-96 62.448z"/><path d="M359.408 277.904l8.56 198.256V278.544c-3.76 0-6.368-.272-8.56-.64zm28.736 65.696c2.336 31.008 2.336 62.032 0 93.04-2.624-31.488-2.72-62.512 0-93.04zm-38.816-58.272a2585.72 2585.72 0 0 1 0 161.424c-1.888-54.64-1.952-108.48 0-161.424zm-28.496 7.328a2341.79 2341.79 0 0 0 0 181.136c2.624-61.296 2.704-121.712 0-181.136z"/></g><path d="M77.248 169.6S110.816 112.272 184 105.744C122.304 93.568 83.92 111.056 77.248 169.6zm357.504 0s-33.568-57.328-106.736-63.856c61.68-12.176 100.064 5.312 106.736 63.856z" fill="#3e4347"/><defs ><path id="B" d="M203.728 237.984c0 16.816-13.568 30.528-30.384 30.528s-30.656-13.712-30.656-30.528 13.84-30.512 30.656-30.512 30.384 13.696 30.384 30.512z"/><path id="C" d="M190.896 231.584c-2.192 2.192-6.592 1.568-9.728-1.568s-3.76-7.536-1.568-9.728 6.592-1.408 9.568 1.728c3.136 2.992 3.92 7.376 1.728 9.568z"/></defs></svg>