<svg xmlns="http://www.w3.org/2000/svg" viewBox="0 0 512 512" xmlns:v="https://vecta.io/nano"><circle cx="256" cy="256" r="256" fill="#ffd93b"/><path d="M510.784 256c0 141.44-114.64 256-256 256-80.48 0-152.32-37.12-199.28-95.28 43.92 35.52 99.84 56.72 160.72 56.72 141.36 0 256-114.56 256-256 0-60.88-21.2-116.8-56.72-160.72 58.08 46.96 95.28 118.8 95.28 199.28z" fill="#f4c534"/><path d="M390.8 333.12c13.712 7.008-28.128 88.4-133.296 88.24-105.168.144-147.008-81.232-133.296-88.24 11.184-8.736 60.336 33.856 133.296 31.936 72.96 1.888 122.112-40.64 133.296-31.936z" fill="#3e4347"/><path d="M323.28 434.496c6.496-28.16-5.552-60.384-12.592-75.68v-.144c14.08-3.52 26.544-8.128 37.232-12.448 9.344 53.216-24.64 88.272-24.64 88.272zm-119.008-75.664c-6.896 15.296-19.088 47.648-12.592 75.68 0 0-33.856-35.056-24.64-88.272 10.704 4.336 23.152 8.928 37.232 12.448v.144z" fill="#fff"/><path d="M411.392 367.136c4.192-12.992 8.656-31.824 1.872-43.68-9.216-21.472-36.896-17.568-57.648-12.992 33.712-17.12 56.576-6.048 63.04 10.464 4.928 9.728 5.728 25.552-7.264 46.208zm-19.92 5.408c6.288-11.76 15.76-34.096 7.472-44.608-10.048-13.328-26.816-6.352-43.6-1.648 16.048-11.264 36.752-17.616 48.768-2.112 9.824 13.984-.304 36.736-12.64 48.368zm-290.864-5.408c-4.192-12.992-8.656-31.824-1.872-43.68 9.216-21.472 36.896-17.568 57.648-12.992-33.712-17.12-56.576-6.048-63.04 10.464-4.928 9.728-5.712 25.552 7.264 46.208zm19.92 5.408c-6.288-11.76-15.76-34.096-7.456-44.608 10.048-13.328 26.816-6.352 43.6-1.648-16.048-11.264-36.752-17.616-48.768-2.112-9.84 13.984.288 36.736 12.624 48.368z" fill="#f4c534"/><path d="M193.072 191.776c-18.944 0-34.672-4.944-47.328-13.056-6.816 10.56-11.072 24.704-11.072 40.352 0 32.592 18.112 58.992 40.464 58.992 22.336 0 40.464-26.416 40.464-58.992 0-10.528-2.048-20.272-5.36-28.832-5.44.928-11.104 1.536-17.168 1.536zm125.856 0c18.944 0 34.672-4.944 47.328-13.056 6.816 10.56 11.072 24.704 11.072 40.352 0 32.592-18.112 58.992-40.464 58.992S296.4 251.648 296.4 219.072c0-10.528 2.048-20.272 5.36-28.832 5.44.928 11.12 1.536 17.168 1.536z" fill="#3e4347"/></svg>