<svg xmlns="http://www.w3.org/2000/svg" viewBox="0 0 512 512" xmlns:v="https://vecta.io/nano"><circle cx="256" cy="256" r="256" fill="#ffd93b"/><path d="M512 256c0 141.44-114.64 256-256 256-80.48 0-152.32-37.12-199.28-95.28 43.92 35.52 99.84 56.72 160.72 56.72 141.36 0 256-114.56 256-256 0-60.88-21.2-116.8-56.72-160.72C474.8 103.68 512 175.52 512 256z" fill="#f4c534"/><path d="M231.136 265.008c-31.312-26.448-101.936-17.392-121.424 16.08-12.144-31.136 12.464-73.216 50.64-78.32 43.296-5.696 72.704 30.24 70.784 62.24zm49.728 0c31.312-26.448 101.936-17.392 121.424 16.08 12.144-31.136-12.464-73.216-50.64-78.32-43.296-5.696-72.704 30.24-70.784 62.24zm149.424 60.288c-26.832 82.736-99.584 144.992-174.208 145.264-74.768-.272-147.52-62.608-174.352-145.264-3.248-10.4 9.872-20.064 22.576-16.288 105.664 31.904 197.92 31.76 303.584 0 12.528-3.744 25.648 5.808 22.4 16.288z" fill="#3e4347"/><path d="M363.728 362.272l6.576-43.216c-77.12 18.192-148.48 18.384-225.456.688l7.312 42.432c.784 4.448 5.136 7.568 10.464 8.496 63.616 10.944 126.928 10.88 190.576.272 5.424-.896 9.824-4.048 10.528-8.672z" fill="#fff"/><path d="M244.544 393.744c9.376 3.584 20.176 2.448 29.36-1.552 19.68-8.544 44.944-5.488 50.512 21.28.048.192.08.4.128.656 5.152 29.28-21.936 55.376-53.824 56.368-1.392.128-2.8.048-4.208.064-8.112.048-16.048-.8-23.856-2.128-15.584-2.832-29.472-12.272-36.64-25.376-4.176-7.648-7.184-16.16-8.288-25.408-3.424-27.456 21.36-33.632 46.816-23.904z" fill="#e24b4b"/><path d="M309.232 414.848c-2.112 2.56-4.976 2.928-8.016.272-1.264-.992-2.32-2.208-3.088-3.584-1.52-2.672-4.288-4.592-7.552-5.488-1.44-.432-2.72-1.312-3.2-2.992-.384-1.424.624-3.472 3.552-5.072 12.448-6.688 25.68 7.424 18.304 16.864z" opacity=".2" fill="#fff"/><path d="M398.736 148.032c-9.92-21.024-53.616-70.912-94.24-48.208 33.76-50.896 87.472-28.096 94.24 48.208zm-285.472 0c9.92-21.024 53.616-70.912 94.24-48.208-33.76-50.896-87.472-28.096-94.24 48.208z" fill="#3e4347"/><path d="M496.176 410.512c-5.024-17.472-54.512-70.56-54.512-70.56s-13.808 71.232-8.784 88.72c5.024 17.472 23.248 27.584 40.736 22.56s27.584-23.232 22.56-40.72zm-480.352 0c5.008-17.472 54.512-70.56 54.512-70.56s13.808 71.232 8.784 88.72c-5.008 17.472-23.248 27.584-40.736 22.56-17.472-5.008-27.584-23.232-22.56-40.72z" fill="#65b1ef"/></svg>