<svg xmlns="http://www.w3.org/2000/svg" viewBox="0 0 512 512" xmlns:v="https://vecta.io/nano"><circle cx="256" cy="256" r="256" fill="#ffd93b"/><path d="M510.784 256c0 141.44-114.64 256-256 256-80.48 0-152.32-37.12-199.28-95.28 43.92 35.52 99.84 56.72 160.72 56.72 141.36 0 256-114.56 256-256 0-60.88-21.2-116.8-56.72-160.72 58.08 46.96 95.28 118.8 95.28 199.28z" fill="#f4c534"/><path d="M334.48 76.224c-87.36-51.84-151.68-4.32-156.96-.32 78.48-109.904 156.96.32 156.96.32z" fill="#3e4347"/><circle cx="256" cy="207.424" r="118.08" fill="#f4c534"/><ellipse cx="256" cy="207.424" rx="118.08" ry="86.592" fill="#de9c25"/><path d="M374.032 207.424c0 24.64-52.8 44.64-118.08 44.64s-118.08-20-118.08-44.64c0-47.84 52.8-86.56 118.08-86.56s118.08 38.72 118.08 86.56z" fill="#fff"/><path d="M293.92 249.664c-11.84 1.6-24.64 2.4-37.92 2.4s-26.08-.8-37.92-2.4c-32.32-32.88-8.624-89.28 37.92-89.28 46.416 0 70.352 56.288 37.92 89.28z" fill="#3e4347"/><ellipse transform="matrix(-.7071 -.7071 .7071 -.7071 335.285 524.4908)" cx="276.268" cy="192.806" rx="15.856" ry="8.8" fill="#fff"/><path d="M325.264 401.776c0 11.712-9.568 21.28-21.28 21.28h-96.48c-11.872 0-21.28-9.568-21.28-21.28s9.408-21.28 21.28-21.28H304c11.712.016 21.264 9.584 21.264 21.28z" fill="#3e4347"/></svg>