<svg xmlns="http://www.w3.org/2000/svg" viewBox="0 0 512 512" xmlns:v="https://vecta.io/nano"><circle cx="256" cy="256" r="256" fill="#ffd93b"/><path d="M510.784 256c0 141.44-114.64 256-256 256-80.48 0-152.32-37.12-199.28-95.28 43.92 35.52 99.84 56.72 160.72 56.72 141.36 0 256-114.56 256-256 0-60.88-21.2-116.8-56.72-160.72 58.08 46.96 95.28 118.8 95.28 199.28z" fill="#f4c534"/><path d="M363.12 404.064C352.8 410.544 314.672 366.4 256 366.4c-58.192 0-96.8 44.128-107.12 37.664-13.056-4.768 17.968-75.776 107.12-75.888 89.168.08 120.176 71.104 107.12 75.888zm54.384-107.68c-1.44 8.48-12.8 9.92-16.96 2.72-24.464-42.016-75.28-64.464-116.32-57.28-8.8 1.44-14.56-8.8-8.48-15.36 56.352-58.736 154.496-9.296 141.76 69.92zm-181.28-69.92c6.08 6.56.48 16.8-8.32 15.36-41.728-7.232-92.256 15.664-116.48 57.28-4.16 7.2-15.52 5.76-16.8-2.72-12.736-79.104 85.168-128.72 141.6-69.92z" fill="#3e4347"/></svg>