<svg xmlns="http://www.w3.org/2000/svg" xmlns:xlink="http://www.w3.org/1999/xlink" viewBox="0 0 512 512" xmlns:v="https://vecta.io/nano"><circle cx="256" cy="256" r="256" fill="#ffd93b"/><g fill="#f4c534"><path d="M510.784 256c0 141.44-114.64 256-256 256-80.48 0-152.32-37.12-199.28-95.28 43.92 35.52 99.84 56.72 160.72 56.72 141.36 0 256-114.56 256-256 0-60.88-21.2-116.8-56.72-160.72 58.08 46.96 95.28 118.8 95.28 199.28z"/><use xlink:href="#B"/></g><path d="M222.256 239.056c0 41.04-33.168 74.208-74.208 74.208S73.84 280.096 73.84 239.056c0-40.896 33.168-74.208 74.208-74.208 41.04.016 74.208 33.312 74.208 74.208z" fill="#fff"/><path d="M188.528 239.056c0 22.352-17.984 40.48-40.48 40.48-22.48 0-40.48-18.128-40.48-40.48s17.984-40.48 40.48-40.48c22.496.016 40.48 18.144 40.48 40.48z" fill="#3e4347"/><ellipse transform="matrix(-.7071 -.7071 .7071 -.7071 118.5764 498.408)" cx="162.512" cy="224.646" rx="12.432" ry="8.064" fill="#fff"/><use xlink:href="#B" x="213.456" fill="#f4c534"/><path d="M435.712 239.056c0 41.04-33.168 74.208-74.208 74.208s-74.208-33.168-74.208-74.208c0-40.896 33.168-74.208 74.208-74.208 41.04.016 74.208 33.312 74.208 74.208z" fill="#fff"/><path d="M401.984 239.056c0 22.352-17.984 40.48-40.48 40.48-22.48 0-40.48-18.128-40.48-40.48s17.984-40.48 40.48-40.48c22.48.016 40.48 18.144 40.48 40.48z" fill="#3e4347"/><ellipse transform="matrix(-.7071 -.7071 .7071 -.7071 482.9462 649.3535)" cx="375.959" cy="224.655" rx="12.432" ry="8.064" fill="#fff"/><g fill="#3e4347"><path d="M207.488 71.008s-53.504 1.504-100.496 47.008c0-.016 20.496-82.016 100.496-47.008zm94.576 0s53.504 1.504 100.496 47.008c0-.016-20.496-82.016-100.496-47.008z"/><ellipse cx="256" cy="397.312" rx="96.64" ry="33.808"/></g><defs ><path id="B" d="M239.824 239.056c0 50.736-41.04 91.776-91.776 91.776s-91.776-41.04-91.776-91.776c0-50.592 41.04-91.776 91.776-91.776s91.776 41.184 91.776 91.776z"/></defs></svg>