<svg xmlns="http://www.w3.org/2000/svg" viewBox="0 0 512 512" xmlns:v="https://vecta.io/nano"><circle cx="256" cy="256" r="256" fill="#ffd93b"/><path d="M512 256c0 141.44-114.64 256-256 256-80.48 0-152.32-37.12-199.28-95.28 43.92 35.52 99.84 56.72 160.72 56.72 141.36 0 256-114.56 256-256 0-60.88-21.2-116.8-56.72-160.72C474.8 103.68 512 175.52 512 256zm-283.2-79.536c-13.152-4.96-27.328-7.6-42.224-7.6-52.896 0-97.904 34.336-113.968 81.824-1.904-6.864-2.784-14.176-2.784-21.632 0-48.656 39.456-88.256 88.256-88.256a87.56 87.56 0 0 1 70.72 35.664z" fill="#f4c534"/><path d="M231.136 265.008c-31.312-26.448-101.936-17.392-121.424 16.08-12.144-31.136 12.464-73.216 50.64-78.32 43.296-5.696 72.704 30.24 70.784 62.24z" fill="#3e4347"/><path d="M283.2 176.464c13.152-4.96 27.328-7.6 42.224-7.6 52.896 0 97.904 34.336 113.968 81.824 1.904-6.864 2.784-14.176 2.784-21.632 0-48.656-39.456-88.256-88.256-88.256-29.072 0-54.784 14.032-70.72 35.664z" fill="#f4c534"/><path d="M280.864 265.008c31.312-26.448 101.936-17.392 121.424 16.08 12.144-31.136-12.464-73.216-50.64-78.32-43.296-5.696-72.688 30.24-70.784 62.24zm149.424 60.288c-26.832 82.736-99.584 144.992-174.224 145.264-74.768-.272-147.52-62.608-174.352-145.264-3.248-10.4 9.872-20.064 22.576-16.288 105.664 31.904 197.92 31.76 303.584 0 12.544-3.744 25.664 5.808 22.416 16.288z" fill="#3e4347"/><path d="M363.728 362.272l6.576-43.216c-77.12 18.192-148.48 18.384-225.456.688l7.312 42.432c.784 4.448 5.088 7.952 10.464 8.496 63.616 5.712 126.928 5.856 190.576.272 5.472-.48 9.824-4.048 10.528-8.672z" fill="#fff"/><path d="M278.032 393.744c-9.376 3.584-20.16 2.448-29.36-1.552-19.68-8.544-44.944-5.488-50.528 21.28-.048.192-.08.4-.128.656-5.152 29.28 21.936 55.376 53.824 56.368 1.392.128 2.8.048 4.208.064 8.112.048 16.048-.8 23.856-2.128 15.584-2.832 29.472-12.272 36.64-25.376 4.176-7.648 7.184-16.16 8.288-25.408 3.456-27.456-21.344-33.632-46.8-23.904z" fill="#e24b4b"/><path d="M314.128 417.024c-2.128 2.56-4.976 2.928-8.016.272a12.08 12.08 0 0 1-3.104-3.584c-1.52-2.672-4.288-4.592-7.536-5.488-1.44-.432-2.72-1.312-3.2-2.992-.384-1.424.624-3.472 3.552-5.072 12.432-6.688 25.68 7.424 18.304 16.864z" opacity=".2" fill="#fff"/></svg>