<svg xmlns="http://www.w3.org/2000/svg" viewBox="0 0 512 512" xmlns:v="https://vecta.io/nano"><circle cx="256" cy="256" r="256" fill="#ffd93b"/><path d="M512 256c0 141.44-114.64 256-256 256-80.48 0-152.32-37.12-199.28-95.28 43.92 35.52 99.84 56.72 160.72 56.72 141.36 0 256-114.56 256-256 0-60.88-21.2-116.8-56.72-160.72C474.8 103.68 512 175.52 512 256zm-316.512-94.128c-21.632-3.376-43.024-7.36-59.696-22.72-.576-.528-.96-1.168-1.488-1.728-16.816 2.672-32.288 8.272-43.248 16.912-29.888 26.592-29.984 84.592 0 111.184 31.76 25.12 101.008 25.12 132.752 0 28.16-24.976 29.872-77.632 5.152-105.968-9.632 3.424-20.928 4.288-33.472 2.32z" fill="#f4c534"/><path d="M206.512 162.8c-3.568-.096-7.216-.336-11.024-.928-13.584-2.128-27.072-4.496-39.36-9.76-22.528.224-42.944 5.84-54.08 14.576-10.608 9.44-16.928 25.664-16.912 43.376.016 17.632 6.336 33.728 16.176 42.48 12.096 9.568 33.072 15.28 56.112 15.28s44.016-5.712 55.408-14.672c10.608-9.408 16.944-25.568 16.944-43.216 0-17.664-6.336-33.824-16.224-42.624-2.08-1.632-4.496-3.12-7.04-4.512z" fill="#fff"/><g fill="#3e4347"><path d="M231.264 126.544c12.416 11.872 15.168 38.912-14.096 43.408-18.176 3.2-40.112-3.008-57.424-9.088-40.48-16.112-70.416-36.4-87.552-53.968 22.848 4.016 73.968 23.84 95.632 32.016 10.704 3.984 36.336 13.312 48.016 13.68 10.048.384 19.872-1.488 15.424-26.048z"/><ellipse cx="188.576" cy="216.464" rx="31.152" ry="36.368"/></g><ellipse transform="matrix(-.6125 -.7905 .7905 -.6125 159.9257 481.7829)" cx="198.054" cy="201.692" rx="9.872" ry="8.064" fill="#5a5f63"/><path d="M316.512 161.872c21.648-3.376 43.024-7.36 59.696-22.72.576-.528.96-1.168 1.488-1.728 16.816 2.688 32.288 8.272 43.248 16.928 29.888 26.592 30 84.592 0 111.184-31.76 25.12-101.008 25.12-132.752 0-28.16-24.976-29.872-77.632-5.152-105.968 9.632 3.408 20.928 4.272 33.472 2.304z" fill="#f4c534"/><path d="M305.504 162.8c3.568-.096 7.216-.336 11.024-.928 13.584-2.128 27.072-4.496 39.36-9.76 22.528.224 42.944 5.84 54.08 14.576 10.608 9.44 16.928 25.664 16.912 43.376-.016 17.632-6.336 33.728-16.176 42.48-12.096 9.568-33.072 15.28-56.112 15.28s-44.016-5.712-55.408-14.672c-10.608-9.408-16.944-25.568-16.944-43.216 0-17.664 6.336-33.824 16.224-42.624 2.064-1.632 4.48-3.12 7.04-4.512z" fill="#fff"/><g fill="#3e4347"><path d="M280.736 126.544c-12.4 11.872-15.168 38.912 14.096 43.408 18.176 3.2 40.112-3.008 57.424-9.088 40.496-16.112 70.432-36.4 87.552-53.968-22.848 4.016-73.968 23.84-95.632 32.016-10.704 3.984-36.336 13.312-48.016 13.68-10.048.384-19.872-1.488-15.424-26.048z"/><ellipse cx="323.36" cy="216.464" rx="31.152" ry="36.368"/></g><ellipse transform="matrix(-.7905 -.6125 .6125 -.7905 438.5975 553.3748)" cx="313.948" cy="201.67" rx="8.064" ry="9.872" fill="#5a5f63"/><path d="M381.456 352.192c-23.84 44.928-70.672 75.6-125.184 75.6-54.784 0-101.632-30.96-125.728-76.16-3.552-6.576 3.84-13.968 10.688-10.672 79.168 35.6 155.584 34.512 229.552.544 6.832-3.28 14.24 3.84 10.672 10.688z" fill="#3e4347"/></svg>