<svg xmlns="http://www.w3.org/2000/svg" viewBox="0 0 512 512" xmlns:v="https://vecta.io/nano"><circle cx="256" cy="256" r="256" fill="#ffd93b"/><g fill="#f4c534"><path d="M512 256c0 141.44-114.64 256-256 256-80.48 0-152.32-37.12-199.28-95.28 43.92 35.52 99.84 56.72 160.72 56.72 141.36 0 256-114.56 256-256 0-60.88-21.2-116.8-56.72-160.72C474.8 103.68 512 175.52 512 256z"/><ellipse transform="matrix(-.9909 -.1347 .1347 -.9909 286.7144 498.2209)" cx="160.211" cy="239.411" rx="85.473" ry="85.553"/></g><path d="M231.056 248.992c-7.632 39.808-45.52 67.84-84.656 62.512s-64.736-41.984-57.088-81.792c7.632-39.808 45.648-67.824 84.784-62.512 39.136 5.328 64.608 41.984 56.96 81.792z" fill="#fff"/><ellipse transform="matrix(-.9909 -.1347 .1347 -.9909 325.303 511.3269)" cx="179.949" cy="244.659" rx="38.593" ry="46.209" fill="#65b1ef"/><ellipse transform="matrix(-.9909 -.1347 .1347 -.9909 324.032 518.0758)" cx="179.542" cy="248.076" rx="27.856" ry="33.424" fill="#3e4347"/><circle cx="195.602" cy="227.812" r="9.44" fill="#fff"/><ellipse transform="matrix(-.9909 -.1347 .1347 -.9909 671.8286 446.2143)" cx="351.009" cy="200.38" rx="85.473" ry="85.553" fill="#f4c534"/><path d="M421.84 210.032c-7.632 39.808-45.52 67.84-84.656 62.512s-64.72-41.984-57.088-81.792 45.648-67.824 84.784-62.512c39.136 5.328 64.608 41.984 56.96 81.792z" fill="#fff"/><ellipse transform="matrix(-.9909 -.1347 .1347 -.9909 642.5394 425.1881)" cx="335.653" cy="190.858" rx="38.593" ry="46.209" fill="#65b1ef"/><ellipse transform="matrix(-.9909 -.1347 .1347 -.9909 641.2279 431.998)" cx="335.228" cy="194.307" rx="27.856" ry="33.424" fill="#3e4347"/><circle cx="354.659" cy="177.101" r="9.44" fill="#fff"/><path d="M165.136 386.752c10.752 8.544 21.664 14.544 33.376 18.944 28.528 9.776 55.12 7.072 75.52-3.104 33.184-15.568 70.496-61.728 116.08-40.064-46.592.352-65.408 41.808-105.792 61.728-31.808 14.672-67.152 10.976-92.144-6.4-14.24-9.744-20.544-18.8-27.04-31.104z" fill="#f4c534"/></svg>