<svg xmlns="http://www.w3.org/2000/svg" xmlns:xlink="http://www.w3.org/1999/xlink" viewBox="0 0 512 512" xmlns:v="https://vecta.io/nano"><circle cx="256" cy="256" r="256" fill="#ffd93b"/><path d="M512 256c0 141.44-114.64 256-256 256-80.48 0-152.32-37.12-199.28-95.28 43.92 35.52 99.84 56.72 160.72 56.72 141.36 0 256-114.56 256-256 0-60.88-21.2-116.8-56.72-160.72C474.8 103.68 512 175.52 512 256zm-269.184-20.912c0 45.088-36.672 81.76-81.936 81.76s-81.936-36.672-81.936-81.76c0-45.264 36.672-81.936 81.936-81.936 45.28.016 81.936 36.672 81.936 81.936z" fill="#f4c534"/><path d="M227.216 235.072c4.672 36.912-21.216 66.944-57.856 66.944s-70.112-30.032-74.784-66.944c-4.688-37.056 21.2-67.072 57.84-67.072s70.112 30.016 74.8 67.072z" fill="#fff"/><path d="M213.04 231.952c0 22.56-15.392 40.912-34.272 40.912s-34.272-18.352-34.272-40.912c0-22.384 15.392-40.736 34.272-40.736 18.896 0 34.272 18.368 34.272 40.736z" fill="#3e4347"/><path d="M169.376 302.016c26.528 0 47.216-15.84 54.96-38.528-2.64-.592-5.248-1.472-7.744-2.656l-.112-.048c-10-4.736-21.6-4.736-31.584.016h-.032a36.84 36.84 0 0 1-31.616 0h-.016a36.84 36.84 0 0 0-31.616 0c-5.184 2.464-10.816 3.6-16.416 3.504 13.584 22.224 37.968 37.712 64.176 37.712z" fill="#65b1ef"/><g fill="#fff"><use xlink:href="#B"/><use xlink:href="#C"/></g><path d="M205.296 257.488c-6.112 9.44-15.728 15.36-26.448 15.36-9.072 0-17.2-4.256-23.312-11.104 4.256 1.856 8.88 2.784 13.504 2.784 5.36 0 10.736-1.296 15.904-3.696 4.992-2.4 10.352-3.696 15.728-3.696 1.472-.032 3.136.16 4.624.352z" fill="#4e99d2"/><path d="M130.032 314.416c-13.04 8.8-24.048 21.568-27.76 36.864-.992 4.112-1.472 8.384-2.992 12.336-1.52 3.968-4.336 7.712-8.368 8.992-4.016 1.264-8.544-.208-11.68-3.024s-5.024-6.784-6.16-10.832C68.784 343.616 74.4 326.72 85.168 315.2c10.768-11.504 26.016-18.064 41.536-20.8 8.192-1.44 16.528-1.904 24.832-1.824 2.96.032 19.392-1.056 17.6 3.44-1.376 3.408-15.744 6.336-19.312 7.856-6.88 2.944-13.584 6.352-19.792 10.544zm-62.656 5.28c-1.824 3.648-3.584 7.952-6.608 11.952-3.392 4.48-8.688 8.416-13.312 7.728-4.704-.688-6.656-5.904-5.936-11.12.624-4.64 2.992-9.056 5.424-12.736 6.992-10.608 15.824-17.088 24.16-19.584 4.528-1.36 9.344-1.712 14.08-1.216 3.952.416 8.656 2.496 4.096 4.048-8.016 2.736-15.888 8.832-21.904 20.928zm4.352-53.408a35.33 35.33 0 0 0-25.424 2.256c-3.056 1.52-6 3.6-7.632 6.608-1.648 2.992-1.68 7.056.608 9.6 2.064 2.272 5.504 2.848 8.528 2.32 3.024-.512 5.824-1.936 8.672-3.088 4.896-1.984 10.096-3.184 15.344-3.6 5.296-.416 11.68 2.08 16.576 1.344 5.392-.816-1.264-6.272-3.744-8.384-3.744-3.216-8.176-5.664-12.928-7.056z" fill="#65b1ef"/><path d="M103.712 133.36c-4.096-.432-4.528-6.272-.512-7.232 32.88-7.52 92.208-29.376 111.424-89.952 1.168-3.648 6.576-3.296 7.088.512 10.816 76.512-30.464 107.056-118 96.672z" fill="#3e4347"/><path d="M269.184 235.088c0 45.088 36.672 81.76 81.936 81.76s81.936-36.672 81.936-81.76c0-45.264-36.672-81.936-81.936-81.936-45.28.016-81.936 36.672-81.936 81.936z" fill="#f4c534"/><path d="M284.784 235.072c-4.672 36.912 21.216 66.944 57.856 66.944s70.128-30.032 74.784-66.944c4.688-37.056-21.2-67.088-57.84-67.088-36.64.016-70.112 30.032-74.8 67.088z" fill="#fff"/><path d="M367.504 231.952c0 22.56-15.392 40.912-34.272 40.912s-34.272-18.352-34.272-40.912c0-22.384 15.392-40.736 34.272-40.736s34.272 18.368 34.272 40.736z" fill="#3e4347"/><path d="M342.624 302.016c-26.528 0-47.216-15.84-54.96-38.528 2.64-.592 5.248-1.472 7.728-2.656l.112-.048c10-4.736 21.6-4.736 31.584.016l.048.016a36.84 36.84 0 0 0 31.616 0h.016a36.84 36.84 0 0 1 31.616 0c5.184 2.464 10.816 3.6 16.416 3.504-13.584 22.208-37.968 37.696-64.176 37.696z" fill="#65b1ef"/><g fill="#fff"><use xlink:href="#B" x="154.448"/><use xlink:href="#C" x="154.448"/></g><path d="M306.704 257.488c6.112 9.44 15.728 15.36 26.448 15.36 9.056 0 17.2-4.256 23.312-11.104-4.256 1.856-8.88 2.784-13.504 2.784-5.36 0-10.736-1.296-15.904-3.696-4.992-2.4-10.352-3.696-15.728-3.696-1.472-.032-3.136.16-4.624.352z" fill="#4e99d2"/><path d="M381.968 314.416c13.04 8.8 24.032 21.568 27.76 36.864 1.008 4.112 1.472 8.384 2.992 12.352s4.336 7.712 8.368 8.992c4.016 1.264 8.544-.208 11.68-3.024s5.024-6.784 6.16-10.832c4.288-15.168-1.328-32.064-12.096-43.568s-26.016-18.064-41.536-20.8c-8.192-1.44-16.528-1.904-24.832-1.824-2.96.032-19.392-1.056-17.6 3.44 1.376 3.408 15.744 6.336 19.312 7.856 6.88 2.944 13.584 6.352 19.792 10.544zm62.656 5.28c1.824 3.648 3.584 7.952 6.608 11.952 3.392 4.48 8.672 8.416 13.328 7.728 4.704-.688 6.656-5.904 5.936-11.12-.64-4.64-2.992-9.056-5.424-12.736-6.992-10.608-15.824-17.088-24.16-19.584-4.528-1.36-9.344-1.712-14.08-1.216-3.952.416-8.656 2.496-4.096 4.048 8 2.736 15.872 8.832 21.888 20.928zm-4.352-53.408a35.33 35.33 0 0 1 25.424 2.256c3.056 1.52 6 3.6 7.632 6.608 1.648 2.992 1.68 7.056-.608 9.6-2.064 2.272-5.504 2.848-8.528 2.32-3.024-.512-5.824-1.936-8.672-3.088-4.896-1.984-10.08-3.184-15.344-3.6-5.296-.416-11.68 2.08-16.576 1.344-5.392-.816 1.264-6.272 3.744-8.384 3.76-3.216 8.176-5.664 12.928-7.056z" fill="#65b1ef"/><path d="M408.288 133.36c4.096-.432 4.528-6.288.512-7.232-32.88-7.52-92.208-29.376-111.424-89.952-1.168-3.648-6.576-3.296-7.088.512-10.816 76.512 30.48 107.056 118 96.672zM255.92 451.504c-51.408 0-88.64-39.904-85.6-81.216.32-4.384 6.8-5.504 8.912-1.552 13.92 25.344 43.04 42.768 76.688 42.768 33.808 0 62.944-17.424 76.848-42.768 2.112-3.936 8.592-2.816 8.912 1.552 3.04 41.264-34.08 81.216-85.76 81.216z" fill="#3e4347"/><defs ><path id="B" d="M169.28 241.184c0 2.96-2.4 5.552-5.552 5.552s-5.552-2.592-5.552-5.552c0-3.136 2.4-5.728 5.552-5.728s5.552 2.592 5.552 5.728z"/><path id="C" d="M195.92 215.472c0 6.848-5.552 12.208-12.208 12.208-6.848 0-12.208-5.36-12.208-12.208 0-6.656 5.36-12.016 12.208-12.016 6.656 0 12.208 5.36 12.208 12.016z"/></defs></svg>