<svg xmlns="http://www.w3.org/2000/svg" viewBox="0 0 512 512" xmlns:v="https://vecta.io/nano"><circle cx="256" cy="256" r="256" fill="#ffd93b"/><path d="M512 256c0 141.44-114.64 256-256 256-80.48 0-152.32-37.12-199.28-95.28 43.92 35.52 99.84 56.72 160.72 56.72 141.36 0 256-114.56 256-256 0-60.88-21.2-116.8-56.72-160.72C474.8 103.68 512 175.52 512 256zm-277.728-23.712c0 42.4-34.336 76.624-76.752 76.624-42.272 0-76.624-34.208-76.624-76.624s34.336-76.752 76.624-76.752c42.416.016 76.752 34.352 76.752 76.752z" fill="#f4c534"/><path d="M221.136 232.288c0 35.12-28.496 63.472-63.616 63.472-34.992 0-63.472-28.352-63.472-63.472s28.48-63.472 63.472-63.472c35.136 0 63.616 28.352 63.616 63.472z" fill="#fff"/><ellipse cx="157.568" cy="232.288" rx="38.016" ry="37.984" fill="#3e4347"/><path d="M182.24 225.136c-2.608 3.52-9.488 2.736-15.088-1.696-5.728-4.416-8.064-10.8-5.456-14.176 2.736-3.504 9.488-2.736 15.216 1.696 5.728 4.416 8.064 10.8 5.328 14.176z" fill="#5a5f63"/><path d="M234.288 148.656c-57.024-34.624-116.608-11.648-146.192 5.84-3.424 2.08-8.576-3.056-5.984-6.032C166 52.128 224.144 121.68 238.48 143.696c1.792 2.768-1.536 6.576-4.192 4.96z" fill="#3e4347"/><path d="M277.728 232.288c0 42.4 34.336 76.624 76.752 76.624 42.272 0 76.624-34.208 76.624-76.624s-34.336-76.752-76.624-76.752c-42.416.016-76.752 34.352-76.752 76.752z" fill="#f4c534"/><path d="M290.864 232.288c0 35.12 28.48 63.472 63.616 63.472 34.992 0 63.488-28.352 63.488-63.472s-28.496-63.472-63.488-63.472c-35.136 0-63.616 28.352-63.616 63.472z" fill="#fff"/><ellipse cx="354.4" cy="232.288" rx="38.016" ry="37.984" fill="#3e4347"/><path d="M329.76 225.136c2.608 3.52 9.488 2.736 15.088-1.696 5.728-4.416 8.064-10.8 5.456-14.176-2.736-3.504-9.488-2.736-15.216 1.696-5.728 4.416-8.064 10.8-5.328 14.176z" fill="#5a5f63"/><path d="M277.712 148.656c57.024-34.624 116.608-11.648 146.192 5.84 3.424 2.08 8.576-3.056 5.984-6.032C346 52.128 287.856 121.68 273.52 143.696c-1.792 2.768 1.536 6.576 4.192 4.96zm94.608 239.312c-22.72 36.64-63.52 61.12-109.76 61.12-61.92 0-113.6-43.52-126.4-101.44-.64-2.56 1.6-4.8 4.32-4.48l229.28 39.04c2.56.48 4 3.52 2.56 5.76z" fill="#3e4347"/><path d="M366.096 381.664L139.664 343.12c24.752 44.784 211.472 79.2 226.432 38.544z" fill="#fff"/><path d="M285.712 418.048c-9.04-7.168-20.64-9.872-32.144-9.088-1.184.08-2.416.128-3.648.128-8.304 0-15.632-1.504-22.016-4.128-11.312-4.656-24.192-3.888-35.408.992a89.87 89.87 0 0 0-16.72 9.552c22.96 20.768 53.312 33.504 86.768 33.504 15.408 0 30.064-2.96 43.792-7.936-5.504-8.832-12.512-16.608-20.624-23.024z" fill="#e24b4b"/></svg>