<svg xmlns="http://www.w3.org/2000/svg" viewBox="0 0 511.991 511.991" xmlns:v="https://vecta.io/nano"><path d="M375.493 240.788c41.584 99.776-5.424 214.384-104.912 256.032S56.725 491.428 15.14 391.652c-41.568-99.712 5.424-214.368 104.912-256.032 99.488-41.648 213.872 5.456 255.44 105.168z" fill="#ffd93b"/><g fill="#f4c534"><path d="M375.493 240.788c-8.176-19.632-19.264-37.136-32.432-52.416 15.6 28.72 24.544 61.616 24.544 96.624 0 111.856-90.448 202.448-201.984 202.448-38.576 0-74.528-10.96-105.184-29.76 54.384 52.048 136.32 70.032 210.128 39.136 99.488-41.648 146.496-156.24 104.928-256.032z"/><ellipse cx="122.053" cy="288.804" rx="68.048" ry="68.208"/></g><path d="M178.437 288.692c0 31.184-25.2 56.512-56.384 56.512-31.104 0-56.368-25.328-56.368-56.512s25.264-48 56.368-48c31.184.016 56.384 16.832 56.384 48z" fill="#fff"/><circle cx="126.661" cy="313.94" r="23.456" fill="#3e4347"/><ellipse transform="matrix(-.2845 -.9587 .9587 -.2845 -118.4273 530.1736)" cx="138.633" cy="309.281" rx="6.192" ry="4.352" fill="#5a5f63"/><path d="M166.66 296.724c-29.712 8.544-59.488 8.544-89.2 0-8.128-2.32-13.536-10.384-12.032-18.672 4.704-26.416 27.632-47.584 56.624-47.584 29.152 0 51.92 21.232 56.624 47.584 1.52 8.304-3.904 16.368-12.016 18.672z" fill="#f4c534"/><path d="M180.5 222.9c-37.328-23.664-80.656-18.816-99.472-14.912-2.368.496-4-2.784-2.16-4.272 53.936-43.888 92.032-3.104 104.8 15.904 1.264 1.904-1.248 4.496-3.168 3.28z" fill="#3e4347"/><ellipse cx="271.525" cy="288.804" rx="68.048" ry="68.208" fill="#f4c534"/><path d="M215.157 288.692c0 31.184 25.2 56.512 56.384 56.512 31.104 0 56.384-25.328 56.384-56.512s-25.28-48-56.384-48c-31.2.016-56.384 16.832-56.384 48z" fill="#fff"/><circle cx="266.917" cy="313.94" r="23.456" fill="#3e4347"/><ellipse transform="matrix(-.9587 -.2845 .2845 -.9587 411.4335 678.1091)" cx="254.964" cy="309.175" rx="4.352" ry="6.192" fill="#5a5f63"/><path d="M226.933 296.724c29.712 8.544 59.488 8.544 89.2 0 8.128-2.32 13.536-10.384 12.032-18.672-4.704-26.416-27.632-47.584-56.624-47.584-29.152 0-51.92 21.232-56.624 47.584-1.52 8.304 3.888 16.368 12.016 18.672z" fill="#f4c534"/><path d="M213.077 222.9c37.328-23.664 80.656-18.816 99.472-14.912 2.368.496 4.016-2.784 2.16-4.272-53.936-43.888-92.032-3.104-104.8 15.904-1.248 1.904 1.264 4.496 3.168 3.28zm53.456 196.864c2.944 22.048-11.248 39.92-31.712 39.92s-39.44-17.872-42.4-39.92c-2.944-22.048 11.248-39.904 31.712-39.904s39.456 17.856 42.4 39.904z" fill="#3e4347"/><path d="M387.653 194.724c9.024-121.872 52.192-142.256 104.192-90.08-11.088-123.52-265.424-90.8-337.808-5.584l233.616 95.664z" fill="#d03f3f"/><path d="M154.07 99.124c72.368-85.296 341.904-174.592 337.856 5.536-29.776-122.16-225.088-74.272-282.08 17.312L154.07 99.124z" fill="#ad2727"/><path d="M387.605 194.756l-55.792-22.848c25.712-115.072 108.784-152.16 160.128-67.264-42.784-23.424-95.232-31.76-104.336 90.112z" fill="#e24b4b"/><g fill="#e9eff4"><path d="M370.15 225.524c-70.976-39.808-146.688-70.976-225.056-92.656-9.76-2.816-15.808-13.088-13.072-23.088 2.752-10 13.056-15.856 23.04-13.104 81.264 22.48 159.792 54.816 233.392 96.096a18.8 18.8 0 0 1 7.2 25.552c-4.96 8.848-16.224 12.352-25.504 7.2z"/><ellipse transform="matrix(-.9929 -.1189 .1189 -.9929 957.897 244.4323)" cx="486.24" cy="93.641" rx="25.744" ry="25.728"/></g><path d="M483.157 119.156c-14.064-1.696-24.112-14.512-22.432-28.624.416-3.52 1.472-6.752 3.04-9.584-1.312 13.808 8.672 26.288 22.512 27.952 10.768 1.296 20.672-4.112 25.632-13.008l-.096.768c-1.696 14.128-14.496 24.208-28.656 22.496z" fill="#dee4e9"/></svg>