<svg xmlns="http://www.w3.org/2000/svg" viewBox="0 0 512 512" xmlns:v="https://vecta.io/nano"><circle cx="256" cy="256" r="256" fill="#ffd93b"/><path d="M512 256c0 141.44-114.64 256-256 256-80.48 0-152.32-37.12-199.28-95.28 43.92 35.52 99.84 56.72 160.72 56.72 141.36 0 256-114.56 256-256 0-60.88-21.2-116.8-56.72-160.72C474.8 103.68 512 175.52 512 256z" fill="#f4c534"/><path d="M424.992 244.304c11.184 21.36-135.392 51.264-147.152 26.592-3.088-7.952 11.776-17.168 52.72-38.752 30.8-16.24 60.464-28.096 65.472-22.528 4.08 4.544-14.128 25.616-38.416 38.688 35.376-5.792 64.128-10.512 67.376-4zm5.2-81.36c-14.928-2.912-32.016-6.4-57.792-2.816-16.672 2.432-32.24 7.92-45.584 15.792-17.92 10.752-26.352 21.104-33.712 33.248-1.584 2.64-5.744 1.776-5.92-1.296-.912-16.128 7.536-40.64 31.184-55.248 1.344-.912 2.736-1.728 4.176-2.528 9.264-5.072 19.888-8.656 31.104-10.384 27.504-4.448 56.896.448 79.28 17.936 3.04 2.4 1.056 6.096-2.736 5.296zm-343.184 81.36c-11.184 21.36 135.392 51.264 147.152 26.592 3.088-7.952-11.776-17.168-52.72-38.752-30.8-16.24-60.464-28.096-65.472-22.528-4.08 4.544 14.128 25.616 38.416 38.688-35.36-5.792-64.112-10.512-67.376-4zm-5.2-81.36c14.928-2.912 32.016-6.4 57.792-2.816 16.672 2.432 32.24 7.92 45.584 15.792 17.92 10.752 26.352 21.104 33.712 33.248 1.568 2.64 5.744 1.776 5.92-1.296.912-16.128-7.536-40.64-31.184-55.248-1.344-.912-2.736-1.728-4.176-2.528-9.264-5.072-19.904-8.656-31.104-10.384-27.504-4.432-56.896.464-79.28 17.936-3.04 2.4-1.056 6.096 2.736 5.296zm311.84 208.624C359.84 423.456 310.704 456 255.968 456c-54.752 0-103.872-32.56-137.552-84.432-2.464-3.776.688-8.72 4.928-8 88.272 15.696 176.832 15.696 265.376 0 4.24-.72 7.392 4.208 4.928 8z" fill="#3e4347"/><path d="M383.36 364.4c-84.976 14.448-169.952 14.464-254.672 0l13.104 16.048c4.8 5.888 11.536 9.824 18.8 10.88 65.872 9.68 124.816 9.68 190.848 0 7.28-1.072 14-4.992 18.816-10.88L383.36 364.4z" fill="#fff"/><path d="M324.944 437.248v.432C303.728 449.456 280.32 456 255.968 456c-24.368 0-47.488-6.4-68.704-18.16 1.648-16.416 20.8-29.072 44.208-29.072 7.808 0 15.056 1.312 21.344 3.92 7.52-4.368 17.248-6.832 27.648-6.832 24.496 0 44.48 14.096 44.48 31.392z" fill="#e24b4b"/><path d="M304.896 423.856c-1.664 3.952-10.384 5.664-19.472 3.824-9.088-1.984-15.024-6.72-13.36-10.8 1.664-3.952 10.384-5.664 19.472-3.824 8.912 1.968 15.024 6.72 13.36 10.8z" fill="#fff" opacity=".3"/></svg>