<svg xmlns="http://www.w3.org/2000/svg" viewBox="0 0 512 512" xmlns:v="https://vecta.io/nano"><circle cx="256" cy="256" r="256" fill="#ffd93b"/><path d="M512 256c0 141.44-114.64 256-256 256-80.48 0-152.32-37.12-199.28-95.28 43.92 35.52 99.84 56.72 160.72 56.72 141.36 0 256-114.56 256-256 0-60.88-21.2-116.8-56.72-160.72C474.8 103.68 512 175.52 512 256zm-268.912-17.888c0 46.736-37.968 84.848-84.848 84.848-46.736 0-84.848-38.112-84.848-84.848 0-46.88 38.112-84.848 84.848-84.848 46.88.016 84.848 37.968 84.848 84.848z" fill="#f4c534"/><path d="M229.952 238.112c-4.096 39.488-39.52 71.68-79.152 71.68-39.504 0-68.384-32.192-64.288-71.68 4.112-39.616 39.648-71.696 79.152-71.696 39.632.016 68.4 32.096 64.288 71.696z" fill="#fff"/><circle cx="166.262" cy="236.576" r="35.088" fill="#3e4347"/><ellipse transform="matrix(-.7071 -.7071 .7071 -.7071 150.0541 507.5775)" cx="180.15" cy="222.712" rx="11.568" ry="6.8" fill="#5a5f63"/><path d="M86.128 149.824c-2.24-13.44 14.256-43.52 41.6-56.24 41.376-17.408 76.352-7.232 97.984 18.416-28.72-3.792-45.744-13.76-89.312 1.616-14.528 6.512-42.784 22.16-50.272 36.208z" fill="#3e4347"/><path d="M268.912 238.112c0 46.736 37.968 84.848 84.848 84.848 46.736 0 84.848-38.112 84.848-84.848 0-46.88-38.112-84.848-84.848-84.848-46.88.016-84.848 37.968-84.848 84.848z" fill="#f4c534"/><path d="M282.048 238.112c4.096 39.488 39.52 71.68 79.152 71.68 39.504 0 68.384-32.192 64.304-71.68-4.112-39.616-39.648-71.696-79.152-71.696-39.648.016-68.416 32.096-64.304 71.696z" fill="#fff"/><circle cx="345.715" cy="236.579" r="35.088" fill="#3e4347"/><ellipse transform="matrix(-.7071 -.7071 .7071 -.7071 409.0226 614.7719)" cx="331.835" cy="222.675" rx="6.8" ry="11.568" fill="#5a5f63"/><g fill="#3e4347"><path d="M425.872 149.824c-6.224-8.56-30.896-21.824-40.64-26.704-5.664-3.296-24.416-9.712-36.448-11.056-22.384-4.224-46.496.32-62.496-.064 16-13.136 49.104-27.968 80.592-19.232 8.16 1.696 21.264 7.68 29.008 13.568 10.624 6.992 32.096 32.608 29.984 43.488z"/><ellipse transform="matrix(-.2319 -.9727 .9727 -.2319 -14.8656 794.9141)" cx="306.406" cy="403.326" rx="39.166" ry="50.798"/></g></svg>