<svg xmlns="http://www.w3.org/2000/svg" viewBox="0 0 512 512" xmlns:v="https://vecta.io/nano"><circle cx="256" cy="256" r="256" fill="#ffd93b"/><path d="M512 256c0 141.44-114.64 256-256 256-80.48 0-152.32-37.12-199.28-95.28 43.92 35.52 99.84 56.72 160.72 56.72 141.36 0 256-114.56 256-256 0-60.88-21.2-116.8-56.72-160.72C474.8 103.68 512 175.52 512 256z" fill="#f4c534"/><path d="M327.696 393.872c0 29.968-32.144 54.352-71.648 54.352-39.632 0-71.776-24.384-71.776-54.352s32.144-54.208 71.776-54.208c39.504 0 71.648 24.24 71.648 54.208z" fill="#3e4347"/><path d="M241.984 230.832c0 43.36-35.04 78.4-78.24 78.4s-78.4-35.04-78.4-78.4c0-43.2 35.2-78.24 78.4-78.24s78.24 35.04 78.24 78.24z" fill="#f4c534"/><path d="M98.992 215.376c-1.648 4.992-2.912 10.128-3.392 15.472-3.344 37.168 24.544 67.216 62.096 67.216s70.704-30.048 74.048-67.216c.48-5.344.144-10.48-.608-15.472-43.312-15.44-87.36-15.232-132.144 0z" fill="#fff"/><circle cx="177.897" cy="245.802" r="30.944" fill="#3e4347"/><ellipse transform="matrix(-.7071 -.7071 .7071 -.7071 158.361 533.594)" cx="189.691" cy="233.999" rx="9.248" ry="6.88" fill="#5a5f63"/><path d="M277.968 230.832c0 43.36 35.04 78.4 78.24 78.4s78.4-35.04 78.4-78.4c0-43.2-35.2-78.24-78.4-78.24s-78.24 35.04-78.24 78.24z" fill="#f4c534"/><path d="M420.944 215.376c1.648 4.992 2.912 10.128 3.392 15.472 3.344 37.168-24.544 67.216-62.096 67.216s-70.704-30.048-74.048-67.216c-.48-5.344-.144-10.48.608-15.472 43.312-15.44 87.376-15.232 132.144 0z" fill="#fff"/><circle cx="342.098" cy="245.841" r="30.944" fill="#3e4347"/><ellipse transform="matrix(-.7071 -.7071 .7071 -.7071 398.3071 632.9869)" cx="330.249" cy="234.001" rx="6.88" ry="9.248" fill="#5a5f63"/><path d="M410.272 119.888c-53.008-25.44-99.472-15.168-125.568-4.768-5.456 2.144-9.952-4.704-5.984-8.96 56.672-60.416 110.192-23.552 137.968 5.008 4.304 4.48-.88 11.408-6.416 8.72zm-308.544 0c53.008-25.44 99.472-15.168 125.568-4.768 5.456 2.144 9.952-4.704 5.984-8.96-56.672-60.416-110.192-23.552-137.968 5.008-4.304 4.48.88 11.408 6.416 8.72z" fill="#3e4347"/></svg>