<svg xmlns="http://www.w3.org/2000/svg" viewBox="0 0 512 512" xmlns:v="https://vecta.io/nano"><circle cx="256" cy="256" r="256" fill="#ffd93b"/><path d="M512 256c0 141.44-114.64 256-256 256-80.48 0-152.32-37.12-199.28-95.28 43.92 35.52 99.84 56.72 160.72 56.72 141.36 0 256-114.56 256-256 0-60.88-21.2-116.8-56.72-160.72C474.8 103.68 512 175.52 512 256z" fill="#f4c534"/><g fill="#3e4347"><ellipse cx="255.968" cy="369.6" rx="52.48" ry="56.512"/><path d="M221.872 251.792c.64 5.12-1.6 10.4-5.92 13.44-5.776 4.24-14.224 3.2-19.2-2.88-4.48-3.68-20.16-14.56-38.56-26.4-12.48 16.16-23.52 31.84-27.52 40.32-3.216 6.64-11.536 10.144-18.72 6.56-7.04-3.2-9.92-11.52-6.72-18.56 5.12-10.56 17.28-27.68 29.12-43.04-16.96-10.24-33.44-19.2-43.36-22.88-7.36-2.72-11.04-10.72-8.48-17.92 2.72-7.36 10.72-11.04 18.08-8.48 4.16 1.44 26.4 13.12 50.72 27.36 40.8-51.04 42.72-50.24 52.8-45.76 7.2 3.04 10.4 11.36 7.2 18.4 0 0-17.872 20.032-35.84 41.92 24.32 15.36 45.44 30.4 46.4 37.92zm204.64-56.96s-24.176 12.256-48.64 26.56c17.12 22.88 31.52 44.64 29.92 51.84-1.12 4.96-4.96 9.12-9.92 10.56-8.016 2-15.136-2.576-17.12-9.44-2.88-4.96-13.92-20.64-27.2-38.24-17.44 10.72-33.12 21.28-39.68 27.68-5.408 5.408-14.48 5.36-19.84-.32-5.44-5.44-5.28-14.24.32-19.68 8.32-8.16 25.76-19.84 42.08-30.08-12.16-15.52-24.16-29.76-32.16-36.8-5.92-5.12-6.4-13.92-1.44-19.68a13.99 13.99 0 0 1 19.84-1.44c3.36 2.88 20 21.6 37.6 43.36 56.16-33.12 57.76-31.52 65.6-24.16 5.6 5.28 5.92 14.08.64 19.84z"/></g></svg>