<svg xmlns="http://www.w3.org/2000/svg" xmlns:xlink="http://www.w3.org/1999/xlink" viewBox="0 0 512 512" xmlns:v="https://vecta.io/nano"><circle cx="256" cy="256" r="256" fill="#ffd93b"/><path d="M512 256c0 141.44-114.64 256-256 256-80.48 0-152.32-37.12-199.28-95.28 43.92 35.52 99.84 56.72 160.72 56.72 141.36 0 256-114.56 256-256 0-60.88-21.2-116.8-56.72-160.72C474.8 103.68 512 175.52 512 256zm-280.816-76.208c0 60.72-49.104 109.984-109.824 109.984-60.88 0-109.984-49.28-109.984-109.984 0-60.72 49.104-109.984 109.984-109.984 60.72 0 109.824 49.28 109.824 109.984z" fill="#f4c534"/><use xlink:href="#B" fill="#fff"/><path d="M116.56 108.144c82.64 5.056 86.512 82.976 55.92 118.672-10.912 12.704-26.608 21.744-44.208 23.936C63.296 259.44 24.4 186.256 67.568 144.464c25.472-25.696 69.568-13.808 78.176 16.912 10.448 35.568-32.768 59.92-49.84 34.848 18.912 16.304 46.704-6.576 36.144-30.128-7.12-16.816-33.76-22.56-48.592-6.112-25.2 27.296.544 71.248 41.856 66.608 15.344-1.84 28.336-10.624 30.8-14.72 15.632-16.56 19.584-41.632 12.976-61.392-10.88-33.52-52.528-42.336-52.528-42.336z" fill="#3e4347"/><path d="M500.64 179.792c0 60.72-49.104 109.984-109.824 109.984-60.88 0-109.984-49.28-109.984-109.984 0-60.72 49.104-109.984 109.984-109.984 60.704 0 109.824 49.28 109.824 109.984z" fill="#f4c534"/><use xlink:href="#B" x="269.456" fill="#fff"/><path d="M386.016 108.144c82.64 5.056 86.512 82.976 55.92 118.672-10.912 12.704-26.608 21.744-44.208 23.936-64.976 8.688-103.872-64.496-60.704-106.288 25.472-25.696 69.568-13.808 78.176 16.912 10.448 35.568-32.768 59.92-49.84 34.848 18.912 16.304 46.72-6.576 36.144-30.128-7.136-16.816-33.76-22.56-48.592-6.112-25.2 27.296.544 71.248 41.856 66.608 15.344-1.84 28.336-10.624 30.8-14.72 15.632-16.56 19.584-41.632 12.976-61.392-10.88-33.52-52.528-42.336-52.528-42.336zm-41.92 311.216c-57.664-22.8-117.376-31.12-176.16 9.12-9.696 6.992-20.272-2.848-16.336-15.696 16-52.208 58.768-82.352 107.36-74.112 48.528 8.096 87.68 41.44 102.4 70.768 3.744 7.408-7.632 13.616-17.264 9.92z" fill="#3e4347"/><path d="M303.664 406.416c-2.112-10.352-8.56-19.76-17.984-26.944-5.008-3.808-11.824-5.216-18.016-3.776-5.376 1.312-11.28 1.92-17.856 1.616l-4.08-.288c-14.032-1.632-28.208 4.32-35.072 17.92-2.208 4.4-3.776 9.216-4.816 14.288 32.752-11.632 65.552-10.688 97.824-2.816z" fill="#e24b4b"/><defs ><path id="B" d="M221.088 179.792c-3.36 51.968-50.624 94.192-105.616 94.192-55.168 0-97.216-42.224-94.016-94.192 3.36-52.144 50.624-94.176 105.616-94.176 55.168 0 97.216 42.048 94.016 94.176z"/></defs></svg>