<svg xmlns="http://www.w3.org/2000/svg" viewBox="0 0 512 512" xmlns:v="https://vecta.io/nano"><circle cx="256" cy="256" r="256" fill="#ffd93b"/><path d="M512 256c0 141.44-114.64 256-256 256-80.48 0-152.32-37.12-199.28-95.28 43.92 35.52 99.84 56.72 160.72 56.72 141.36 0 256-114.56 256-256 0-60.88-21.2-116.8-56.72-160.72C474.8 103.68 512 175.52 512 256zm-237.776-52.992c-16.56 43.744 10.704 94.592 60.912 113.616 50.08 18.976 104.192-1.056 120.752-44.8 16.528-43.632-10.736-94.48-60.832-113.44-50.192-19.024-104.304 1.008-120.832 44.624z" fill="#f4c534"/><circle cx="353.44" cy="232.624" r="68.224" fill="#fff"/><path d="M378.256 236.912c.128 22.256-17.808 40.208-40.064 40.064-22.128 0-40.192-17.808-40.192-40.064s18.064-40.064 40.192-40.064c22.256-.128 40.064 17.936 40.064 40.064z" fill="#3e4347"/><ellipse transform="matrix(-.7071 -.7071 .7071 -.7071 443.497 629.6599)" cx="352.155" cy="222.979" rx="10.944" ry="7.44" fill="#fff"/><path d="M430.432 131.792c-42.016 7.504-127.088 13.472-133.232-59.328-.304-3.504 4.224-5.152 6.304-2.352 12.368 16.384 45.36 45.92 126.608 54.656 4.08.448 4.368 6.24.32 7.024z" fill="#3e4347"/><path d="M235.216 203.008c16.56 43.744-10.704 94.592-60.912 113.616-50.08 18.976-104.192-1.056-120.752-44.8-16.528-43.632 10.736-94.48 60.832-113.44 50.208-19.024 104.304 1.008 120.832 44.624z" fill="#f4c534"/><circle cx="155.936" cy="232.624" r="68.224" fill="#fff"/><path d="M211.456 236.912c.128 22.256-17.808 40.208-40.064 40.064-22.144 0-40.192-17.808-40.192-40.064s18.064-40.064 40.192-40.064c22.256-.128 40.064 17.936 40.064 40.064z" fill="#3e4347"/><ellipse transform="matrix(-.7071 -.7071 .7071 -.7071 158.7429 511.718)" cx="185.352" cy="222.982" rx="10.944" ry="7.44" fill="#fff"/><path d="M79.008 131.792c42.016 7.504 127.088 13.472 133.232-59.328.304-3.504-4.224-5.152-6.304-2.352-12.368 16.384-45.36 45.92-126.592 54.656-4.096.448-4.384 6.24-.336 7.024zm305.216 297.792c-19.28 40.88-129.072 20.512-240.912-1.232-7.664-1.504-12.72-8.752-11.488-16.416 8.48-51.552 53.184-90.928 107.056-90.928 56.464 0 137.008 45.392 146.304 100.768.4 2.608.128 5.488-.96 7.808z" fill="#3e4347"/><path d="M343.664 451.552c0-.32.048-.624.048-.928 0-18.224-5.776-35.232-15.6-49.072-13.152-18.4-36.64-25.248-58.544-19.984-7.008 1.584-14.368 2.448-22.256 2.448-3.504 0-6.832-.16-10-.352-20.864-2.096-41.712 6.144-52.416 24.192-4.784 8.08-8.096 17.056-9.952 26.576 66.384 12.56 128.96 22.544 168.72 17.12z" fill="#e24b4b"/></svg>