<svg xmlns="http://www.w3.org/2000/svg" xmlns:xlink="http://www.w3.org/1999/xlink" viewBox="0 0 512 512" xmlns:v="https://vecta.io/nano"><circle cx="256" cy="256" r="256" fill="#ffd93b"/><path d="M510.784 256c0 141.44-114.64 256-256 256-80.48 0-152.32-37.12-199.28-95.28 43.92 35.52 99.84 56.72 160.72 56.72 141.36 0 256-114.56 256-256 0-60.88-21.2-116.8-56.72-160.72 58.08 46.96 95.28 118.8 95.28 199.28zm-54.512-24.288c0 45.76-41.856 82.88-93.632 82.88-51.632 0-93.632-37.12-93.632-82.88s42-82.88 93.632-82.88c51.776 0 93.632 37.12 93.632 82.88z" fill="#f4c534"/><ellipse cx="362.64" cy="231.712" rx="73.824" ry="65.312" fill="#fff"/><use xlink:href="#B" fill="#3e4347"/><ellipse transform="matrix(-.7071 -.7071 .7071 -.7071 441.7868 626.3922)" cx="350.623" cy="221.699" rx="10.064" ry="6.752" fill="#fff"/><path d="M379.616 138.96c-39.504 21.072-78.768 48.88-116.32 82.736 27.776-48.704 57.424-90.112 90.272-119.744 4.864-4.48 11.056-6.32 17.168-5.792 5.568.48 11.072 3.072 15.168 7.632 9.824 10.944 6.768 28.32-6.288 35.168z" fill="#3e4347"/><path d="M55.728 231.712c0 45.76 41.856 82.88 93.632 82.88 51.632 0 93.632-37.12 93.632-82.88s-42-82.88-93.632-82.88c-51.776 0-93.632 37.12-93.632 82.88z" fill="#f4c534"/><ellipse cx="149.36" cy="231.712" rx="73.824" ry="65.312" fill="#fff"/><use xlink:href="#B" x="-165.856" fill="#3e4347"/><ellipse transform="matrix(-.7071 -.7071 .7071 -.7071 158.688 509.0997)" cx="184.782" cy="221.684" rx="10.064" ry="6.752" fill="#fff"/><path d="M132.384 138.96c39.52 21.072 78.768 48.88 116.32 82.736-27.776-48.704-57.424-90.112-90.272-119.744-4.864-4.48-11.04-6.32-17.168-5.792-5.568.48-11.072 3.072-15.168 7.632-9.824 10.944-6.768 28.32 6.288 35.168zm199.36 248.112c-41.152-35.776-122.016 4.656-174.064 37.808-6.544 4.224-13.376-4.512-8-10.032 137.424-140.912 179.6-77.648 192.4-34.608 1.744 5.952-5.536 10.912-10.336 6.832z" fill="#3e4347"/><defs ><path id="B" d="M373.472 233.392c0 19.12-15.424 34.544-34.544 34.544s-34.544-15.424-34.544-34.544c0-18.992 15.424-34.544 34.544-34.544s34.544 15.552 34.544 34.544z"/></defs></svg>