<svg xmlns="http://www.w3.org/2000/svg" viewBox="0 0 512 512" xmlns:v="https://vecta.io/nano"><circle cx="256" cy="256" r="256" fill="#ffd93b"/><path d="M510.784 256c0 141.44-114.64 256-256 256-80.48 0-152.32-37.12-199.28-95.28 43.92 35.52 99.84 56.72 160.72 56.72 141.36 0 256-114.56 256-256 0-60.88-21.2-116.8-56.72-160.72 58.08 46.96 95.28 118.8 95.28 199.28z" fill="#f4c534"/><path d="M293.184 182.608c51.664-6.752 105.984 4.576 139.552 29.984 7.792 5.984 18.576-1.488 15.808-10.928-19.552-67.888-111.936-90.56-163.776-35.216-6.224 6.832-.656 17.344 8.416 16.16zm-74.384 0c-51.664-6.752-105.984 4.576-139.552 29.984-7.792 5.984-18.576-1.488-15.808-10.928 19.552-67.888 111.936-90.56 163.776-35.216 6.24 6.832.672 17.344-8.416 16.16zm207.648-66.96s-37.536-35.888-70.48-46.032c-12.928-5.184-22.848-3.472-36.336-15.264-1.616-1.632 13.616-14.4 44.912-4.464 38.368 12.176 66.672 62.576 61.904 65.76zm-340.896 0s37.536-35.888 70.48-46.032c12.928-5.184 22.848-3.472 36.336-15.264 1.616-1.632-13.616-14.4-44.912-4.464-38.368 12.176-66.672 62.576-61.904 65.76zm331.072 214.816C396.32 400 332.256 451.008 256 451.008c-76.24 0-140.496-51.008-160.608-120.896-5.648-19.424 5.12-40.24 24-47.664 89.312-34.944 180.208-35.648 272.864.176 19.072 7.424 30.016 28.064 24.368 47.84z" fill="#3e4347"/><path d="M361.296 408.416c-10.176-43.248-42.448-70.8-84.4-55.136-45.92 17.232-71.408-11.856-93.952 17.056-8.688 11.04-14.896 23.968-18.32 38.064 58.304 32.128 124.512 29.248 196.672.016z" fill="#e24b4b"/><path d="M256 342.912c70.512 0 131.104-5.952 158.896-38.08-4.128-9.84-12.064-18.08-22.624-22.192-92.656-35.84-183.552-35.136-272.864-.192-10.48 4.128-18.32 12.432-22.384 22.288 27.744 32.192 88.384 38.176 158.976 38.176zm0 70.048c-62.944 0-118.096-43.808-148.976-53.632 27.6 54.4 83.872 91.68 148.992 91.68 65.232 0 121.44-37.392 149.072-91.712-30.88 9.776-86.08 53.664-149.088 53.664z" fill="#fff"/></svg>