<svg xmlns="http://www.w3.org/2000/svg" viewBox="0 0 512 512" xmlns:v="https://vecta.io/nano"><circle cx="256" cy="256" r="256" fill="#ffd93b"/><path d="M512 256c0 141.44-114.64 256-256 256-80.48 0-152.32-37.12-199.28-95.28 43.92 35.52 99.84 56.72 160.72 56.72 141.36 0 256-114.56 256-256 0-60.88-21.2-116.8-56.72-160.72C474.8 103.68 512 175.52 512 256z" fill="#f4c534"/><path d="M494.4 148.816c.736 1.984 0 4.24-1.712 5.616l-9.984 7.824c-4.48 3.44-6.784 8.8-6.48 14.176 1.328 22.624-2.384 45.968-8.128 68.672-5.28 19.088-15.568 22.8-35.088 26.864-53.232 11.424-112.992 11.968-124.272 10.384-10.704-1.36-19.776-7.744-23.776-17.632-4.88-12-9.776-28.432-13.92-44.112-1.632-6.48-7.904-10.992-14.96-11.008-7.168.032-13.44 4.528-15.072 11.008-4.144 15.696-9.024 32.144-13.92 44.112-4.096 9.888-13.072 16.336-23.776 17.632-11.296 1.584-71.008 1.04-124.272-10.384-19.52-4.048-29.936-7.776-35.088-26.864-5.84-23.264-9.648-47.296-7.936-70.48.416-5.52-1.888-10.96-6.432-14.48l-9.744-7.664c-1.696-1.408-2.416-3.632-1.696-5.616l6.096-18.848c.944-2.96 4.256-4.384 7.12-3.12a949.87 949.87 0 0 0 31.728 13.088c1.28.544 2.656.816 4.032.992 76.464 7.488 112.112 29.824 188.848 31.04 25.856-.032 51.568-3.12 76.448-9.2 40.464-9.728 78.448-18.384 119.904-22.624 1.44-.192 2.864-.448 4.208-1.024l24.656-10.336c2.848-1.168 6.176.192 7.12 3.12l6.096 18.864z" fill="#3e4347"/><path d="M209.696 258.32c-1.584 3.744-4.624 6.336-8.528 7.68-11.568 4.48-89.728-3.392-116.464-10.128-10.944-2.32-17.84-2.688-20.656-14.208-6.048-22.608-11.792-62.256-3.936-83.68 54.752 7.36 118.528 22.416 167.536 34.176-3.584 22.384-9.52 44.832-17.952 66.16zm74.656-66.16c49.12-11.776 112.736-26.864 167.536-34.176 7.84 21.408 2.096 61.056-3.952 83.68-2.816 11.472-9.712 11.888-20.656 14.192-26.624 6.784-104.88 14.592-116.464 10.128-3.904-1.312-6.944-3.952-8.528-7.68-8.416-21.296-14.336-43.76-17.936-66.144z" fill="#5a5f63"/><path d="M451.888 157.984c-14.256 1.904-29.136 4.352-44.176 7.104l-99.44 99.44c.864.48 1.584 1.136 2.56 1.456 4.368 1.68 18.272 1.616 35.28.528L452.464 160.16c-.224-.688-.336-1.52-.576-2.176zm-84.576 15.136l-70.368 70.368a299.02 299.02 0 0 0 4.864 13.456l88.56-88.56-23.056 4.736zm-236.736-2.896l-67.472 67.472.96 3.984c2.816 11.52 9.712 11.888 20.656 14.208h.048l78.672-78.672-32.864-6.992zm-27.104-5.28l-45.44 45.44c.704 5.472 1.6 10.72 2.56 15.76l58.272-58.272-15.392-2.928z" fill="#777b7e"/><path d="M393.232 352.928c9.776 5.616-45.472 85.808-137.232 85.808-93.728 0-147.024-80.176-137.248-85.808 7.344-7.44 62.432 42.48 137.248 42.48 74.768 0 129.888-49.952 137.232-42.48z" fill="#3e4347"/></svg>