<svg xmlns="http://www.w3.org/2000/svg" viewBox="0 0 512 512" xmlns:v="https://vecta.io/nano"><circle cx="256" cy="256" r="256" fill="#ffd93b"/><path d="M512 256c0 141.44-114.64 256-256 256-80.48 0-152.32-37.12-199.28-95.28 43.92 35.52 99.84 56.72 160.72 56.72 141.36 0 256-114.56 256-256 0-60.88-21.2-116.8-56.72-160.72C474.8 103.68 512 175.52 512 256zm-251.056-30.336c0 54.016-43.76 97.776-97.616 97.776-54.016 0-97.776-43.76-97.776-97.776 0-53.872 43.76-97.616 97.776-97.616 53.856 0 97.616 43.76 97.616 97.616z" fill="#f4c534"/><path d="M242.336 225.68c0 43.744-35.424 79.312-79.008 79.312-43.744 0-79.168-35.568-79.168-79.312 0-43.6 35.424-79.168 79.168-79.168 43.584 0 79.008 35.568 79.008 79.168z" fill="#fff"/><path d="M95.248 225.68c0 20.592 16.464 37.2 36.912 37.2 20.592 0 37.056-16.608 37.056-37.2 0-20.448-16.464-37.056-37.056-37.056-20.432 0-36.896 16.608-36.912 37.056z" fill="#3e4347"/><ellipse transform="matrix(-.7071 -.7071 .7071 -.7071 106.0445 462.4705)" cx="148.803" cy="209.273" rx="10.256" ry="5.232" fill="#fff"/><path d="M70.928 210.848c7.136-44.56 45.696-78.704 92.256-78.704 46.688 0 85.264 34.144 92.4 78.704-51.616-46.288-81.056 14.896-184.656 0zm208.08 14.96c0-46.064 37.312-83.392 83.248-83.392 46.064 0 83.376 37.312 83.376 83.376 0 45.936-37.312 83.248-83.376 83.264-45.936 0-83.248-37.312-83.248-83.248z" fill="#f4c534"/><path d="M294.88 225.808c0-37.312 30.208-67.632 67.376-67.632 37.296 0 67.504 30.32 67.504 67.632 0 37.184-30.208 67.504-67.504 67.504-37.168 0-67.376-30.32-67.376-67.504z" fill="#fff"/><ellipse cx="393.84" cy="228.208" rx="31.552" ry="31.664" fill="#3e4347"/><ellipse transform="matrix(-.7071 -.7071 .7071 -.7071 545.0167 654.0701)" cx="407.971" cy="214.158" rx="8.752" ry="4.464" fill="#fff"/><path d="M441.056 238.448c-6.08 38-38.96 67.12-78.672 67.136-39.824 0-72.704-29.104-78.8-67.12 44.016 39.456 69.12-12.72 157.472-.016z" fill="#f4c534"/><path d="M366.208 382.448v.72c.72 9.248-3.456 18.512-11.264 23.232-55.376 34.128-118.928-24.144-175.76-7.44-15.792 4.72-31.952-5.088-33.408-21.248v-.72c-.72-9.264 3.456-18.528 11.248-23.424 55.376-33.952 118.928 24.336 175.76 7.632 15.824-4.72 31.984 4.912 33.424 21.248z" fill="#3e4347"/><path d="M188.576 396.96c48.16-7.552 100.432 30.784 148.128 17.328-1.504-14.752-11.36-28.128-26.368-37.68-10.144-6.496-24.192-9.728-36.88-7.184-6.496 1.28-13.76 1.792-22.064 1.232-2.24-.16-4.304-.4-6.368-.672-14.768-2.032-30.16.112-40.288 7.616-7.216 5.408-12.8 11.968-16.16 19.36z" fill="#e24b4b"/><path d="M230.656 382.288l7.6-32.976c-13.664-3.584-27.248-6.352-40.592-6.448l-2.352 31.28c-.32 2.72 1.6 5.28 4.16 5.92l24.16 6.56c3.184.784 6.384-1.136 7.024-4.336zm19.04 7.664l32.16 5.6c2.08.32 4.16-1.12 4.64-3.36l4.608-29.648c-13.728-2.224-27.632-6.272-41.52-10.176l-3.248 33.264c-.16 2.08 1.28 4.016 3.36 4.32zM332.8 361.2c-10.096 2.976-20.416 3.488-30.848 2.672l-1.568 31.712c-.16 3.04 2.24 5.28 5.12 5.12l31.52-2.88c2.72-.16 4.8-2.72 4.32-5.44l-4.256-32c-1.424.208-2.848.384-4.288.816z" fill="#fff"/><path d="M188.576 78.464c-66.128-31.04-115.088-1.12-125.36 63.968 24.992-40.336 75.936-63.776 125.36-63.968zm237.184 32.304c-56.624-46.144-111.392-28.992-137.12 31.664 34.016-33.072 89.12-43.472 137.12-31.664z" fill="#3e4347"/></svg>