<svg xmlns="http://www.w3.org/2000/svg" xmlns:xlink="http://www.w3.org/1999/xlink" viewBox="0 0 516.064 516.064" xmlns:v="https://vecta.io/nano"><circle cx="258.032" cy="256" r="256" fill="#ffd93b"/><path d="M514.032 256c0 141.44-114.64 256-256 256-80.48 0-152.32-37.12-199.28-95.28 43.92 35.52 99.84 56.72 160.72 56.72 141.36 0 256-114.56 256-256 0-60.88-21.2-116.8-56.72-160.72 58.08 46.96 95.28 118.8 95.28 199.28z" fill="#f4c534"/><g fill="#3e4347"><use xlink:href="#B"/><use xlink:href="#B" x="169.44"/><path d="M386.912 385.12c-.16 0-.32.16-.32.32-6.56 7.84-18.24 9.76-26.88 4-61.28-41.44-142.08-41.44-203.52 0-8.48 5.76-20.16 3.84-26.72-4-.16-.16-.16-.32-.32-.32-7.68-9.44-5.6-23.52 4.48-30.24 75.2-50.4 173.6-50.4 248.8 0 10.08 6.72 12.16 20.8 4.48 30.24z"/></g><path d="M367.744 374.464c-5.28 55.04-9.392 141.6-53.232 141.6-43.2 0-87.088-86.4-92.048-142.88-1.6-19.2 16.16-34.72 34.72-29.6 25.76 7.2 52.8 7.2 75.52 1.44 18.72-4.64 36.8 10.24 35.04 29.44z" fill="#e24b4b"/><defs ><path id="B" d="M216.128 190.256c6.336 6.336 6.336 16.656 0 23.152-6.336 6.336-16.656 6.336-23.152 0l-19.664-19.648-19.664 19.648c-6.496 6.336-16.832 6.336-23.152 0-6.336-6.496-6.336-16.816 0-23.152l19.664-19.648-19.824-20c-6.336-6.336-6.16-16.48.16-22.992 6.336-6.336 16.656-6.336 22.992 0l19.824 19.824 19.824-19.824c6.336-6.336 16.656-6.336 22.992 0 6.336 6.496 6.496 16.656.16 22.992l-19.824 20 19.664 19.648z"/></defs></svg>