<svg xmlns="http://www.w3.org/2000/svg" xmlns:xlink="http://www.w3.org/1999/xlink" viewBox="0 0 512.384 512.384" xmlns:v="https://vecta.io/nano"><circle cx="256" cy="256.072" r="256" fill="#ffd93b"/><path d="M512.384 256.312c0 141.44-114.64 256-256 256-80.48 0-152.32-37.12-199.28-95.28 43.92 35.52 99.84 56.72 160.72 56.72 141.36 0 256-114.56 256-256 0-60.88-21.2-116.8-56.72-160.72 58.08 46.96 95.28 118.8 95.28 199.28z" fill="#f4c534"/><path d="M88.544 355.256c23.072 50.336 124.304 47.2 170.704 41.104 52.256-6.16 146.816-26.8 164.096-77.104 3.44 63.792-96.832 100.656-159.952 108.816-70.4 8.72-171.472-9.824-174.848-72.816z" fill="#3e4347"/><path d="M244.208 223.464c0 47.68-35.52 86.24-79.36 86.24-43.68 0-79.2-38.56-79.2-86.24 0-47.52 35.52-86.24 79.2-86.24 43.84-.016 79.36 38.704 79.36 86.24z" fill="#f4c534"/><path d="M230.336 223.464c0 39.344-29.312 71.152-65.472 71.152-36.032 0-65.344-31.808-65.344-71.152 0-39.216 29.312-71.152 65.344-71.152 36.16-.016 65.472 31.936 65.472 71.152z" fill="#fff"/><ellipse cx="186.816" cy="227.112" rx="33.92" ry="37.92" fill="#3e4347"/><use xlink:href="#B" fill="#5a5f63"/><path d="M268.176 223.464c0 47.68 35.52 86.24 79.36 86.24 43.68 0 79.2-38.56 79.2-86.24 0-47.52-35.52-86.24-79.2-86.24-43.84-.016-79.36 38.704-79.36 86.24z" fill="#f4c534"/><path d="M282.048 223.464c0 39.344 29.312 71.152 65.472 71.152 36.032 0 65.344-31.808 65.344-71.152 0-39.216-29.312-71.152-65.344-71.152-36.16-.016-65.472 31.936-65.472 71.152z" fill="#fff"/><ellipse cx="325.568" cy="227.112" rx="33.92" ry="37.92" fill="#3e4347"/><use xlink:href="#B" x="138.752" fill="#5a5f63"/><path d="M382.528 108.888c-132 18.4-80.96-46.72-80.96-46.72 15.68 32.8 80.96 46.72 80.96 46.72zm-252.672 0c132 18.4 80.96-46.72 80.96-46.72-15.68 32.8-80.96 46.72-80.96 46.72z" fill="#3e4347"/><defs ><path id="B" d="M166.496 216.552c2.56 2.24 7.52.64 11.2-3.52 3.84-4 4.96-9.12 2.56-11.36-2.56-2.08-7.52-.8-11.2 3.36s-4.8 9.44-2.56 11.52z"/></defs></svg>