<svg xmlns="http://www.w3.org/2000/svg" viewBox="0 0 512.384 512.384" xmlns:v="https://vecta.io/nano"><circle cx="256" cy="256.072" r="256" fill="#ffd93b"/><path d="M512.384 256.312c0 141.44-114.64 256-256 256-80.48 0-152.32-37.12-199.28-95.28 43.92 35.52 99.84 56.72 160.72 56.72 141.36 0 256-114.56 256-256 0-60.88-21.2-116.8-56.72-160.72 58.096 46.96 95.28 118.8 95.28 199.28z" fill="#f4c534"/><path d="M86.64 261.176c-.592-8.816 6.08-16.432 14.896-17.024 24.08-1.616 47.104-8.768 69.696-21.728-29.088-8.48-43.792-20.944-44.624-21.664-6.688-5.776-7.408-15.888-1.616-22.56 5.776-6.688 15.872-7.424 22.576-1.632.096.08 21.552 17.552 65.616 21.008 6.512.512 12.048 4.944 14 11.168s-.064 13.024-5.12 17.152c-37.248 30.528-77.072 47.424-118.368 50.192-9.68.4-16.512-6.64-17.056-14.912zm322.08 14.912c-41.296-2.768-81.12-19.664-118.384-50.192a15.99 15.99 0 0 1-5.12-17.152c1.952-6.24 7.504-10.656 14-11.168 44.048-3.472 65.536-20.944 65.744-21.12 6.736-5.584 16.8-4.784 22.496 1.904 5.664 6.688 4.96 16.656-1.68 22.384-.832.72-15.536 13.184-44.624 21.664 22.592 12.976 45.632 20.128 69.712 21.728 8.816.592 15.488 8.224 14.896 17.024-.56 8.288-7.376 15.328-17.04 14.928zm-24.928 141.168c-9.2 4.352-56.784-35.536-127.584-33.904-70.816-1.584-118.384 38.24-127.584 33.904-13.12-2.608 30.336-79.76 127.584-79.664 97.232-.048 140.704 77.056 127.584 79.664z" fill="#3e4347"/></svg>