<svg xmlns="http://www.w3.org/2000/svg" viewBox="0 0 512.288 512.288" xmlns:v="https://vecta.io/nano"><path d="M512.136 256c0 141.52-114.624 256.208-255.984 256.288s-256-114.48-256-256C.152 114.848 114.792.08 256.136 0c141.36-.08 256 114.56 256 256z" fill="#ffd93b"/><path d="M512.136 256c0 141.52-114.624 256.208-255.984 256.288-80.48.048-152.32-37.056-199.28-95.216 43.92 35.52 99.84 56.704 160.72 56.656 141.36-.08 255.984-114.768 255.984-256.288 0-60.912-21.2-116.864-56.72-160.784 58.08 46.96 95.28 118.816 95.28 199.344z" fill="#f4c534"/><path d="M228.68 343.968c-16.704 24.832-44.384 33.488-64.784 32.656-42.528-1.76-75.568-34.992-73.952-74.32.576-13.84 5.28-26.416 13.056-36.96 17.728 47.344 77.248 74.528 125.68 78.624zm55.792 0c16.704 24.832 44.384 33.488 64.8 32.656 42.528-1.76 75.568-34.992 73.952-74.32-.576-13.84-5.28-26.416-13.056-36.96-17.744 47.344-77.264 74.528-125.696 78.624zM106.648 186c-14.24-4.416 35.824-95.584 143.424-95.44 107.6-.112 157.664 91.008 143.424 95.44-10.16 6.864-64.352-31.76-143.424-31.76-79.504 0-133.248 38.64-143.424 31.76z" fill="#3e4347"/><path d="M333.576 111.552c-16.8 90.4-51.84 160.272-83.68 160.112-31.52.16-66.56-69.536-83.36-159.936 22.08-12.32 50.08-21.12 83.52-21.12s61.28 8.624 83.52 20.944z" fill="#e24b4b"/></svg>