<svg xmlns="http://www.w3.org/2000/svg" xmlns:xlink="http://www.w3.org/1999/xlink" viewBox="0 0 517.062 517.062" xmlns:v="https://vecta.io/nano"><circle cx="258.691" cy="258.531" r="256" fill="#ffd93b"/><g fill="#fff"><ellipse cx="143.411" cy="224.675" rx="87.52" ry="87.36"/><path d="M461.49 224.675c0 48.16-39.36 87.36-87.68 87.36-48.16 0-87.36-39.2-87.36-87.36s39.2-87.36 87.36-87.36c48.32 0 87.68 39.216 87.68 87.36z"/></g><path d="M514.707 258.53c0 141.44-114.64 256-256 256-80.48 0-152.32-37.12-199.28-95.28 43.92 35.52 99.84 56.72 160.72 56.72 141.36 0 256-114.56 256-256 0-60.88-21.2-116.8-56.72-160.72 58.08 46.96 95.28 118.8 95.28 199.28z" fill="#f4c534"/><use xlink:href="#B" fill="#3e4347"/><use xlink:href="#C" fill="#5a5f63"/><use xlink:href="#B" x="-166.512" fill="#3e4347"/><use xlink:href="#C" x="-166.497" fill="#5a5f63"/><path d="M509.81 208.675h-35.04c-6.72-44.16-40-75.68-79.04-83.84-45.28-9.44-86.88 11.36-108.48 45.92-13.12 21.12-44.96 19.52-57.12.16-21.28-34.4-62.56-55.2-107.52-46.24-39.52 7.84-73.12 39.52-80 84H7.57c-8.64 0-9.76 32-4 32h39.04c7.68 48.8 50.08 86.08 100.8 86.08 56.48 0 103.04-45.92 102.08-103.52-.16-18.24 26.72-18.56 26.4-.64-1.28 58.56 46.24 104.16 101.92 104.16 51.04 0 93.28-37.28 100.96-86.08h39.04c6.24.16 2.72-32-4-32zm-366.4 95.36c-43.68 0-79.52-35.52-79.52-79.36s35.84-79.36 79.52-79.36c43.84 0 79.52 35.52 79.52 79.36 0 43.856-35.68 79.36-79.52 79.36zm230.4 0c-43.68 0-79.36-35.52-79.36-79.36s35.68-79.36 79.36-79.36c43.84 0 79.68 35.52 79.68 79.36 0 43.856-35.84 79.36-79.68 79.36z" fill="#e24b4b"/><path d="M403.81 354.915c17.344 8.064-28.512 102.624-145.088 102.72-116.592-.112-162.448-94.64-145.088-102.72 14.144-10.128 68.352 36.56 145.088 34.208 76.72 2.304 130.928-44.368 145.088-34.208z" fill="#3e4347"/><defs ><path id="B" d="M375.427 224.547c0 22.608-14.96 40.944-33.456 40.944-18.352 0-33.456-18.336-33.456-40.944 0-22.48 15.088-40.688 33.456-40.688 18.496 0 33.456 18.224 33.456 40.688z"/><path id="C" d="M358.867 211.107c-2.384 2.032-6.736.544-9.872-3.136s-3.92-8.192-1.536-10.224c2.496-2.128 6.96-.752 10.112 2.928 3.136 3.68 3.792 8.304 1.296 10.432z"/></defs></svg>