<svg xmlns="http://www.w3.org/2000/svg" viewBox="0 0 512 512" xmlns:v="https://vecta.io/nano"><circle cx="256" cy="256" r="256" fill="#ffd93b"/><g fill="#f4c534"><path d="M512 256c0 141.44-114.64 256-256 256-80.48 0-152.32-37.12-199.28-95.28 43.92 35.52 99.84 56.72 160.72 56.72 141.36 0 256-114.56 256-256 0-60.88-21.2-116.8-56.72-160.72C474.8 103.68 512 175.52 512 256z"/><circle cx="149.328" cy="211.104" r="91.04"/></g><circle cx="149.328" cy="211.104" r="74.032" fill="#fff"/><path d="M187.28 182.304c.032 21.76-16.88 40.192-37.808 41.008s-38.048-16.304-38.08-38.08 17.04-40.048 37.968-40.848c20.928-.816 37.888 16.144 37.92 37.92z" fill="#3e4347"/><path d="M160.4 163.28c0 3.824-5.104 7.008-11.328 7.248s-11.344-2.544-11.36-6.384c0-3.824 5.104-7.168 11.344-7.424 6.224-.208 11.344 2.752 11.344 6.56z" fill="#fff"/><circle cx="362.672" cy="211.104" r="91.04" fill="#f4c534"/><circle cx="362.672" cy="211.104" r="74.032" fill="#fff"/><circle cx="362.704" cy="183.792" r="38" fill="#3e4347"/><ellipse cx="362.416" cy="164.416" rx="11.36" ry="6.64" fill="#fff"/><path d="M324.48 376.064c0 13.76-11.2 24.96-24.96 24.96h-87.04c-13.76 0-24.96-11.2-24.96-24.96s11.2-24.96 24.96-24.96h87.04c13.76 0 24.96 11.216 24.96 24.96z" fill="#3e4347"/></svg>