<svg xmlns="http://www.w3.org/2000/svg" xmlns:xlink="http://www.w3.org/1999/xlink" viewBox="0 0 512 512" xmlns:v="https://vecta.io/nano"><circle cx="256" cy="256" r="256" fill="#ffd93b"/><path d="M512 256c0 141.44-114.64 256-256 256-80.48 0-152.32-37.12-199.28-95.28 43.92 35.52 99.84 56.72 160.72 56.72 141.36 0 256-114.56 256-256 0-60.88-21.2-116.8-56.72-160.72C474.8 103.68 512 175.52 512 256z" fill="#f4c534"/><use xlink:href="#B" fill="#3e4347"/><path d="M190.752 181.008c-3.552 2.256-9.472-.24-12.848-5.904-3.376-5.504-2.928-11.696.784-13.936 3.552-2.272 9.296.4 12.512 5.888 3.552 5.504 3.28 11.696-.448 13.952z" fill="#5a5f63"/><use xlink:href="#B" x="181.44" fill="#3e4347"/><path d="M372.208 181.008c-3.552 2.256-9.472-.24-12.848-5.904-3.376-5.504-2.944-11.696.784-13.936 3.552-2.272 9.296.4 12.512 5.888 3.536 5.504 3.264 11.696-.448 13.952z" fill="#5a5f63"/><path d="M384.592 336c15.744 8.864-22.048 91.184-128.592 91.232-106.544-.048-144.336-82.352-128.592-91.232 12.96-10.88 56.016 32.304 128.592 30.976 72.576 1.344 115.616-41.872 128.592-30.976z" fill="#3e4347"/><path d="M156.16 394.368c21.616 17.856 54.416 32.848 99.84 32.864 47.408-.016 81.136-16.352 102.656-35.232-17.888-4.608-55.088 1.68-98.224 1.68-48.768.016-90.032-8.064-104.272.688z" fill="#e24b4b"/><path d="M317.568 390.352c.608 1.792 2.432 2.832 4.016 2.256l22.48-8.224c1.344-.48 1.984-2.016 1.52-3.568l-7.36-31.296c-8.512 3.552-18.144 7.136-28.864 10.16l8.208 30.672zm-40.08 14.464c.784 2.256 3.024 3.632 5.12 3.024L308 400.56c2.288-.688 3.376-3.376 2.48-5.84l-3.776-34.24c-11.296 3.04-23.664 5.36-37.008 6.176l7.792 38.16zm-99.296-53.472l-6.944 30.496c-.448 1.568.208 3.088 1.552 3.584l17.632 7.184c1.568.576 3.392-.464 4-2.256l8.224-30.656c-8.896-2.512-17.072-5.408-24.464-8.352zm27.12 9.12l-3.776 34.256c-.896 2.464.176 5.152 2.48 5.84l37.888 8.944c2.112.608 4.336-.784 5.072-3.04l7.344-39.536c-17.936.16-34.384-2.528-49.008-6.464z" fill="#fff"/><path d="M425.44 359.216c2.832-15.392-.176-35.392-11.296-47.056-12.496-14.96-27.712-16.176-45.136-16.832 20-5.568 36.288-3.584 50.512 12.048 13.424 15.712 13.92 38.32 5.92 51.84zm-23.68 6.208c1.696-11.888 6.912-24.32.56-35.488-3.472-7.68-11.552-12.64-17.984-14.08-8.448-1.488-4.272-.08-11.76-.992 16.384-6.848 29.76-.56 36.176 11.856 6.656 13.952 1.52 26.496-6.992 38.704zm-315.2-6.208c-2.832-15.392.176-35.392 11.296-47.056 12.496-14.96 27.712-16.176 45.136-16.832-19.984-5.568-36.288-3.584-50.512 12.048-13.424 15.712-13.904 38.32-5.92 51.84zm23.68 6.208c-1.696-11.888-6.912-24.32-.56-35.488 3.472-7.68 11.536-12.64 17.984-14.08 8.448-1.488 4.272-.08 11.76-.992-16.384-6.848-29.76-.56-36.176 11.856-6.656 13.952-1.52 26.496 6.992 38.704z" fill="#f4c534"/><defs ><path id="B" d="M208.896 197.024c0 31.552-19.472 57.232-43.616 57.232-24.128 0-43.616-25.68-43.616-57.232s19.472-57.056 43.616-57.056c24.128 0 43.616 25.504 43.616 57.056z"/></defs></svg>