<svg xmlns="http://www.w3.org/2000/svg" viewBox="0 0 512 512" xmlns:v="https://vecta.io/nano"><circle cx="256" cy="256" r="256" fill="#ffd93b"/><path d="M512 256c0 141.44-114.64 256-256 256-80.48 0-152.32-37.12-199.28-95.28 43.92 35.52 99.84 56.72 160.72 56.72 141.36 0 256-114.56 256-256 0-60.88-21.2-116.8-56.72-160.72C474.8 103.68 512 175.52 512 256z" fill="#f4c534"/><path d="M431.312 234.736c11.456 24.656-121.44 50.176-133.6 21.744-3.28-9.12 7.584-24.144 46.24-40.688 27.344-12.352 48.512-21.264 53.408-14.72 3.984 5.328-6.112 21.056-27.68 34.4 32.144-4.544 58.288-8.24 61.632-.736z" fill="#3e4347"/><path d="M240.224 238.736c0 44.352-35.776 80.112-80.112 80.112-44.16 0-80.112-35.76-80.112-80.112 0-44.16 35.952-80.112 80.112-80.112 44.336 0 80.112 35.952 80.112 80.112z" fill="#f4c534"/><path d="M229.2 238.736c-2.224 35.536-34.912 64.256-73.12 64.256s-67.28-28.72-65.056-64.256 34.912-64.256 73.12-64.256 67.28 28.72 65.056 64.256z" fill="#fff"/><path d="M206.656 236.544c0 21.344-17.328 38.864-38.864 39.056-21.36 0-38.88-17.52-38.88-38.864 0-21.728 17.52-39.056 39.056-39.056 21.36 0 38.688 17.52 38.688 38.864z" fill="#3e4347"/><path d="M190.24 229.056c-3.28 3.296-9.312 2.736-13.504-1.456-4.016-4.192-4.752-10.224-1.456-13.504 3.472-3.28 9.488-2.736 13.696 1.456 4 4.208 4.72 10.224 1.264 13.504z" fill="#5a5f63"/><path d="M376.448 313.696c-8.416-6.56-40.56 66.608-105.312 85.024-32.72 11.552-64.416 5.664-88.16-1.376-17.568-6.768-20.864 8.624-2.928 23.904 25.648 16.736 61.472 37.68 102.32 24.448 81.28-25.488 104.272-128.688 94.08-132zm-93.168-166.64c21.04-11.92 64.928-31.552 111.072-20.656 4.88 1.152 8.592-5.376 4.48-8.24-48.784-33.904-90.016-29.168-122.176 22.416-2.496 4.016 2.512 8.8 6.624 6.48zm-54.56 0c-21.04-11.92-64.928-31.552-111.072-20.656-4.88 1.152-8.592-5.376-4.48-8.24 48.784-33.904 90.016-29.168 122.176 22.416 2.496 4.016-2.512 8.8-6.624 6.48z" fill="#3e4347"/></svg>