<svg xmlns="http://www.w3.org/2000/svg" viewBox="0 0 512 512" xmlns:v="https://vecta.io/nano"><circle cx="256" cy="256" r="256" fill="#ffd93b"/><path d="M512 256c0 141.44-114.64 256-256 256-80.48 0-152.32-37.12-199.28-95.28 43.92 35.52 99.84 56.72 160.72 56.72 141.36 0 256-114.56 256-256 0-60.88-21.2-116.8-56.72-160.72C474.8 103.68 512 175.52 512 256z" fill="#f4c534"/><path d="M419.328 127.664s-56.256-84.896-136.416-57.072c-.016 0 66.208-89.696 136.416 57.072zm-325.744 1.952S147.2 43.04 228.192 68.368c0 0-68.944-87.616-134.608 61.248z" fill="#3e4347"/><ellipse transform="matrix(-.9606 -.2779 .2779 -.9606 610.9869 502.6961)" cx="341.12" cy="208.046" rx="70.111" ry="70.159" fill="#f4c534"/><path d="M283.392 191.312c-7.088 32.576 13.008 66.512 44.96 75.76s63.568-9.728 70.656-42.304-13.024-66.416-44.976-75.664-63.536 9.632-70.64 42.208z" fill="#fff"/><ellipse transform="matrix(-.2779 -.9606 .9606 -.2779 18.417 429.8511)" cx="170.77" cy="208.003" rx="70.159" ry="70.111" fill="#f4c534"/><g fill="#fff"><path d="M228.608 191.312c7.088 32.576-13.008 66.512-44.96 75.76s-63.568-9.728-70.656-42.304 13.024-66.416 44.976-75.664 63.536 9.632 70.64 42.208zm-57.68 231.664c2.48-2.336 5.008-4.624 7.584-6.88l-.448 13.456c3.776-.928 7.568-1.792 11.376-2.56l-2.496 10.112c3.824-3.216 7.776-6.336 11.824-9.392-2.32 4.624-4.528 9.28-6.592 13.936 2.88.16 5.744.384 8.608.624 0 .048-.352 3.296-.704 6.048 2.432-3.184 5.312-6.624 5.36-6.896.112.096-.08 1.824-.288 4.016 37.984-37.168 90.848-66.912 154.464-80.288l6.432-9.424c-4.624-1.328-9.28-2.576-13.952-3.744l8.144-7.52c-6.272.656-12.464 1.488-18.592 2.448 4.784-3.168 9.68-6.24 14.688-9.216l-10.528-4.912c0-.048 2.016-2.848 3.824-5.072l-10.304 3.584c-.112-.144 4.64-6.88 6.736-10.064l-4.88.432 1.28-7.472c-76.048 18.16-138.224 56.912-181.184 104.288 3.072-1.872 6.176-3.696 9.328-5.472l.32 9.968z"/><path d="M164.352 329.84l11.824 2.832c-5.968 2.032-11.872 4.176-17.728 6.464l8.128 8.016c-4.608 1.072-9.216 2.224-13.808 3.472a380.86 380.86 0 0 1 17.2 4.528c-6.736.624-13.472 1.424-20.24 2.4l3.76 7.488c0-.016-4.128 1.712-7.536 3.008 5.152.096 10.752.448 11.072.304-.064.128-2.208 1.056-4.832 2.16 64.864 9.024 120.144 35.392 161.12 70.304 3.856.016 7.712.112 11.6.272l-2.48-10.336c3.6.784 7.2 1.632 10.784 2.528-3.28-3.776-6.672-7.488-10.192-11.152 5.168 2 10.288 4.16 15.312 6.432l.816-8.288c-.016.032 3.744.464 6.784 1.024l-7.728-5.696c.128-.176 9.008 1.088 13.248 1.68l-2.272-3.056 8.576-.912c-46.928-45.408-112.48-80.512-190.512-93.632a343.3 343.3 0 0 1 10.32 5.088 409.56 409.56 0 0 0-13.216 5.072z"/></g><ellipse transform="matrix(-.7071 -.7071 .7071 -.7071 424.8257 600.569)" cx="336.795" cy="212.3" rx="31.936" ry="31.984" fill="#3e4347"/><ellipse transform="matrix(-.7071 -.7071 .7071 -.7071 412.0432 569.8795)" cx="324.047" cy="199.603" rx="6.256" ry="9.936" fill="#5a5f63"/><ellipse transform="matrix(-.7071 -.7071 .7071 -.7071 148.9731 486.3392)" cx="175.211" cy="212.316" rx="31.968" ry="31.936" fill="#3e4347"/><ellipse transform="matrix(-.7071 -.7071 .7071 -.7071 179.7285 473.6386)" cx="187.958" cy="199.596" rx="9.936" ry="6.256" fill="#5a5f63"/></svg>