<svg xmlns="http://www.w3.org/2000/svg" viewBox="0 0 512.007 512.007" xmlns:v="https://vecta.io/nano"><circle cx="256.003" cy="244.352" r="244.352" fill="#ffd93b"/><g fill="#f4c534"><path d="M500.355 244.352c0 135.008-109.424 244.352-244.352 244.352-76.816 0-145.392-35.44-190.224-90.944 41.92 33.904 95.296 54.144 153.408 54.144 134.928 0 244.352-109.344 244.352-244.352 0-58.112-20.24-111.488-54.144-153.408 55.456 44.816 90.96 113.392 90.96 190.208z"/><ellipse transform="matrix(-.9606 -.2779 .2779 -.9606 590.4968 480.9002)" cx="329.331" cy="198.601" rx="66.911" ry="66.959"/></g><path d="M274.147 182.608c-6.768 31.104 12.416 63.488 42.912 72.304 30.496 8.832 60.672-9.28 67.44-40.384s-12.432-63.392-42.928-72.224c-30.496-8.8-60.656 9.216-67.424 40.304z" fill="#fff"/><ellipse transform="matrix(-.7071 -.7071 .7071 -.7071 400.7369 557.9452)" cx="315.923" cy="195.977" rx="30.48" ry="30.528" fill="#3e4347"/><ellipse transform="matrix(-.7071 -.7071 .7071 -.7071 388.5667 528.6067)" cx="303.761" cy="183.829" rx="5.968" ry="9.472" fill="#5a5f63"/><path d="M398.5 125.616s-68.336-50.24-123.04-5.504c0 .016 26.048-89.12 123.04 5.504z" fill="#3e4347"/><ellipse transform="matrix(-.2779 -.9606 .9606 -.2779 42.6492 429.2804)" cx="182.671" cy="198.61" rx="66.959" ry="66.911" fill="#f4c534"/><path d="M237.86 182.608c6.768 31.104-12.416 63.488-42.912 72.304-30.496 8.832-60.672-9.28-67.44-40.384s12.432-63.392 42.928-72.224c30.496-8.8 60.64 9.216 67.424 40.304z" fill="#fff"/><ellipse transform="matrix(-.7071 -.7071 .7071 -.7071 196.1503 473.2084)" cx="196.08" cy="195.98" rx="30.528" ry="30.48" fill="#3e4347"/><ellipse transform="matrix(-.7071 -.7071 .7071 -.7071 225.6254 461.0135)" cx="208.292" cy="183.778" rx="9.472" ry="5.968" fill="#5a5f63"/><path d="M113.507 125.616s68.336-50.24 123.04-5.504c0 .016-26.048-89.12-123.04 5.504zm241.856 219.456c14.576 15.44-25.36 68.384-98.192 68.624-72.848-.272-112.768-53.152-98.192-68.624 13.52-16.528 55.216-8.208 98.192-8.208 43.2 0 84.672-8.288 98.192 8.208z" fill="#3e4347"/><path d="M296.77 373.056c-10.464-3.12-21.344.72-32.72 3.04-2.48.64-5.248.912-8.256.864-3.216-.096-6.16-.576-8.752-1.328-10.096-2.752-20.672-5.36-30.416-2.208-11.232 3.808-23.632 14.688-23.616 32.48C200.74 450.72 233.283 512.688 257.17 512c23.856.752 56.416-61.312 64.16-106.096.016-18.208-13.056-29.344-24.56-32.848z" fill="#e24b4b"/><path d="M307.603 398.144c-1.392 5.392-8.176 6.208-10.448.656-2.032-4.272-1.2-10.176-6.736-10.912-2.032-.176-4.032.704-5.968 1.36-4.512 1.52-6.512.192-7.44-2.608-.448-1.344-.56-2.672-.032-4 1.248-2.736 4.816-4.688 12.4-3.648 11.984 1.792 20.336 13.072 18.224 19.152z" fill="#fff" opacity=".2"/></svg>