<svg xmlns="http://www.w3.org/2000/svg" viewBox="0 0 512 512" xmlns:v="https://vecta.io/nano"><circle cx="256" cy="256" r="256" fill="#ffd93b"/><path d="M512 256c0 141.44-114.64 256-256 256-80.48 0-152.32-37.12-199.28-95.28 43.92 35.52 99.84 56.72 160.72 56.72 141.36 0 256-114.56 256-256 0-60.88-21.2-116.8-56.72-160.72C474.8 103.68 512 175.52 512 256zm-242.496-23.024c2.08 55.552 48.928 100.56 104.672 100.56s99.216-45.008 97.136-100.56-48.928-100.688-104.672-100.688-99.216 45.136-97.136 100.688z" fill="#f4c534"/><path d="M285.984 227.792c-3.072 46.576 32.24 86.672 78.864 89.536s86.912-32.592 89.984-79.168c3.072-46.72-32.224-86.8-78.848-89.664-46.64-2.864-86.928 32.576-90 79.296z" fill="#fff"/><path d="M298.56 231.504c0 22.24 17.824 39.936 39.936 39.936 21.984 0 39.936-17.824 40.064-39.936-.128-22.112-17.952-39.936-40.064-39.936s-39.936 17.968-39.936 39.936z" fill="#3e4347"/><path d="M314.112 226.816c3.616 3.488 9.92 2.816 14.336-1.616 4.416-4.416 5.232-10.848 1.744-14.336s-9.92-2.816-14.336 1.6c-4.432 4.432-5.232 10.864-1.744 14.352z" fill="#5a5f63"/><path d="M280.768 140.784S329.76 94.72 415.2 102.256c0 0-113.072-43.136-134.432 38.528z" fill="#3e4347"/><path d="M235.728 232.976c-2.08 55.552-48.928 100.56-104.672 100.56S31.84 288.528 33.92 232.976s48.928-100.688 104.672-100.688 99.216 45.136 97.136 100.688z" fill="#f4c534"/><path d="M219.248 227.792c3.072 46.576-32.24 86.672-78.864 89.536S53.472 284.736 50.4 238.16c-3.088-46.72 32.224-86.8 78.848-89.664s86.912 32.576 90 79.296z" fill="#fff"/><path d="M206.656 231.504c0 22.24-17.824 39.936-39.936 39.936-21.984 0-39.936-17.824-40.064-39.936.128-22.112 17.952-39.936 40.064-39.936s39.936 17.968 39.936 39.936z" fill="#3e4347"/><path d="M191.12 226.816c-3.616 3.488-9.92 2.816-14.336-1.616-4.416-4.416-5.232-10.848-1.744-14.336s9.92-2.816 14.336 1.6c4.416 4.432 5.232 10.864 1.744 14.352z" fill="#5a5f63"/><g fill="#3e4347"><path d="M224.448 140.784S175.456 94.72 90.016 102.256c0 0 113.072-43.136 134.432 38.528zm153.648-17.248c-54.896 0-100.976 38.112-113.44 89.248a34.24 34.24 0 0 0-24.096.016c-12.464-51.136-58.544-89.264-113.456-89.264-64.448 0-116.88 52.448-116.88 116.88s52.448 116.88 116.88 116.88c64.448 0 116.88-52.448 116.88-116.88 0-8.176 6.592-8.832 8.624-8.832 2 0 8.608.656 8.608 8.832 0 64.448 52.448 116.88 116.88 116.88 64.448 0 116.88-52.448 116.88-116.88s-52.432-116.88-116.88-116.88zM127.104 335.424c-52.384 0-95.008-42.608-95.008-95.008s42.624-94.992 95.008-94.992 95.008 42.608 95.008 95.008-42.608 94.992-95.008 94.992zm250.992 0c-52.384 0-95.008-42.608-95.008-95.008s42.608-95.008 95.008-95.008 95.008 42.608 95.008 95.008-42.608 95.008-95.008 95.008z"/><ellipse cx="256" cy="413.728" rx="48.624" ry="44"/></g></svg>