<svg xmlns="http://www.w3.org/2000/svg" viewBox="0 0 512 512" xmlns:v="https://vecta.io/nano"><circle cx="256" cy="256" r="256" fill="#ffd93b"/><g fill="#f4c534"><path d="M512 256c0 141.44-114.64 256-256 256-80.48 0-152.32-37.12-199.28-95.28 43.92 35.52 99.84 56.72 160.72 56.72 141.36 0 256-114.56 256-256 0-60.88-21.2-116.8-56.72-160.72C474.8 103.68 512 175.52 512 256z"/><circle cx="338.88" cy="207.728" r="75.008"/></g><path d="M275.248 207.728c-1.84 34.24 25.168 62 60.336 62s65.168-27.76 67.008-62-25.168-62-60.336-62-65.168 27.744-67.008 62z" fill="#fff"/><path d="M285.664 220.224c0 18.72 13.12 34.08 29.44 34.08s29.44-15.36 29.44-34.08c0-18.88-13.12-34.24-29.44-34.24-16.32.016-29.44 15.36-29.44 34.24z" fill="#3e4347"/><path d="M297.488 211.104c2.4 2.4 7.2 1.44 10.88-2.24s4.64-8.48 2.24-10.88c-2.24-2.24-7.2-1.28-10.72 2.4-3.68 3.52-4.64 8.48-2.4 10.72z" fill="#5a5f63"/><path d="M295.488 118.848s73.984-27.648 128.096 41.84c0-.016-72.512-133.104-128.096-41.84z" fill="#3e4347"/><circle cx="173.088" cy="207.728" r="75.008" fill="#f4c534"/><path d="M236.752 207.728c1.84 34.24-25.168 62-60.336 62s-65.152-27.76-66.992-62 25.168-62 60.336-62c35.152 0 65.152 27.744 66.992 62z" fill="#fff"/><path d="M226.336 220.224c0 18.72-13.12 34.08-29.44 34.08s-29.44-15.36-29.44-34.08c0-18.88 13.12-34.24 29.44-34.24s29.44 15.36 29.44 34.24z" fill="#3e4347"/><path d="M214.512 211.104c-2.4 2.4-7.2 1.44-10.88-2.24s-4.64-8.48-2.24-10.88c2.24-2.24 7.2-1.28 10.72 2.4 3.68 3.52 4.64 8.48 2.4 10.72z" fill="#5a5f63"/><path d="M216.512 118.848S142.528 91.2 88.416 160.688c0-.016 72.512-133.104 128.096-41.84zM143.824 341.12c2.8 58.384 51.872 104.928 112.176 104.928S365.392 399.52 368.176 341.12c-75.968 34.864-150.736 34.32-224.352 0z" fill="#3e4347"/><path d="M271.888 402.496c-7.232 0-13.744 3.12-18.272 8.064-3.408-1.84-7.232-2.832-11.328-2.832-12.432 0-22.576 9.072-24.416 20.976 11.824 4.64 24.624 7.408 38.128 7.408 14.496 0 28.144-3.232 40.672-8.544 0-.08.016-.208.016-.288-.016-13.728-11.056-24.784-24.8-24.784z" fill="#e24b4b"/><path d="M352.544 327.536c12.976 12.384 24.16 14.4 36.432 20.992-16.48 5.072-36.176-8.704-36.432-20.992zm-193.072 0c-.272 12.32-19.984 26.064-36.448 20.992 12.448-6.672 23.408-8.544 36.448-20.992z" fill="#3e4347"/><path d="M321.888 368.208l-1.424 21.664-8.784 3.264-6.512-20.976c5.68-1.12 11.2-2.384 16.72-3.952zm-30.448 6.24l-1.984 19.696c-14.88.704-30.176.144-45.904-1.552l-2.128-16.016c4.672.288 9.488.432 14.16.432 11.904-.016 23.952-.864 35.856-2.56zm-10.064 58.512c-8.08 1.984-16.576 3.12-25.36 3.12-1.552 0-3.264 0-4.816-.288l.416-12.752a186.96 186.96 0 0 1 29.472.992l.288 8.928zm-58.656-58.224l-7.504 17.856-27.056-10.48-1.552-14.736c12.032 3.392 24.08 5.936 36.112 7.36z" fill="#fff"/></svg>