<svg xmlns="http://www.w3.org/2000/svg" viewBox="0 0 512 512" xmlns:v="https://vecta.io/nano"><circle cx="256" cy="256" r="256" fill="#ffd93b"/><path d="M512 256c0 141.44-114.64 256-256 256-80.48 0-152.32-37.12-199.28-95.28 43.92 35.52 99.84 56.72 160.72 56.72 141.36 0 256-114.56 256-256 0-60.88-21.2-116.8-56.72-160.72C474.8 103.68 512 175.52 512 256z" fill="#f4c534"/><path d="M340.304 432.224c-7.52.16-16.208-3.504-26.4-7.68-15.2-6.512-34.416-14.528-57.472-13.872-22.896.496-41.44 8.352-56.304 14.368-28.384 11.872-46.88 13.2-48.288-23.392-.688-44.224 47.808-99.232 102.08-100.912 47.616-.832 105.76 38.416 106.928 88.208.432 19.92-.768 42.384-20.544 43.28z" fill="#3e4347"/><path d="M326.432 420.864c-58.848-22.224-66.496-27.568-137.664.16 2.08-5.568 12.192-36.432 12.192-41.6 10.688-5.008 22.384-10.688 35.584-13.696-12.704 1.344-24.56 5.008-35.088 8.688.752-13.632-3.52-23.52-8.848-38.096 38.432-36.192 86.048-34.944 125.648-5.52-4.512 13.552-10.128 29.344-7.856 42.608-7.344-2.512-14.704-4.672-29.568-7.184 16.208 5.52 22.72 8.848 30.736 13.04 3.84 13.696 8.688 27.568 14.864 41.6z" fill="#fff"/><path d="M269.68 217.52c-3.376 37.792 29.328 61.472 66.784 75.168 37.952 12.24 78.304 13.632 98.88-18.256 20.576-31.168 2.672-96.944-52.736-116.064-55.456-19.008-110.016 21.92-112.928 59.152z" fill="#f4c534"/><path d="M284.912 212.736c-6.096 32.32 19.28 54.896 49.504 69.184 30.768 13.056 64.496 16.944 84.496-9.152 19.952-25.472 10.608-83.328-34.192-103.472-44.848-20.064-94.144 11.552-99.808 43.44z" fill="#fff"/><ellipse transform="matrix(-.7071 -.7071 .7071 -.7071 414.6197 620.3788)" cx="335.794" cy="224.319" rx="32.464" ry="32.528" fill="#3e4347"/><path d="M315.136 219.392c2.496 2.64 7.76 1.616 11.584-2.192 3.664-3.808 4.688-8.944 2.192-11.424-2.64-2.64-7.776-1.616-11.584 2.192s-4.832 8.928-2.192 11.424z" fill="#5a5f63"/><path d="M242.336 217.52c3.376 37.792-29.328 61.472-66.784 75.168-37.952 12.24-78.304 13.632-98.88-18.256-20.576-31.168-2.672-96.944 52.736-116.064 55.44-19.008 110 21.92 112.928 59.152z" fill="#f4c534"/><path d="M227.088 212.736c6.096 32.32-19.28 54.896-49.504 69.184-30.768 13.056-64.496 16.944-84.496-9.152-19.952-25.472-10.624-83.328 34.192-103.472 44.848-20.064 94.144 11.552 99.808 43.44z" fill="#fff"/><ellipse transform="matrix(-.7071 -.7071 .7071 -.7071 142.0711 507.5637)" cx="176.155" cy="224.358" rx="32.528" ry="32.464" fill="#3e4347"/><path d="M196.864 219.392c-2.496 2.64-7.76 1.616-11.584-2.192-3.664-3.808-4.688-8.944-2.192-11.424 2.64-2.64 7.76-1.616 11.584 2.192 3.808 3.808 4.832 8.928 2.192 11.424z" fill="#5a5f63"/><path d="M421.2 137.328c1.408 8.64-12.576-3.024-15.376-4.368-25.728-13.12-58.096-8.928-81.088 5.76-6.704 4.384-12.736 9.792-20.192 13.488-12.576 6.08-28.336 5.792-39.888 0 9.2 3.152 23.232.064 38.112-15.616 5.392-5.68 10.288-11.824 16.656-16.72 41.84-32.144 99.264 3.12 101.776 17.456zm-330.4 0c-1.408 8.64 12.576-3.024 15.376-4.368 25.728-13.12 58.096-8.928 81.088 5.76 6.704 4.384 12.736 9.792 20.192 13.488 12.576 6.08 28.336 5.792 39.888 0-9.2 3.152-23.232.064-38.128-15.616-5.392-5.68-10.288-11.824-16.656-16.72-41.824-32.144-99.248 3.12-101.76 17.456z" fill="#3e4347"/></svg>