<svg xmlns="http://www.w3.org/2000/svg" viewBox="0 0 512 512" xmlns:v="https://vecta.io/nano"><circle cx="256" cy="256" r="256" fill="#ffd93b"/><path d="M512 256c0 141.44-114.64 256-256 256-80.48 0-152.32-37.12-199.28-95.28 43.92 35.52 99.84 56.72 160.72 56.72 141.36 0 256-114.56 256-256 0-60.88-21.2-116.8-56.72-160.72C474.8 103.68 512 175.52 512 256z" fill="#f4c534"/><path d="M208.752 98.416c-34.176-13.184-66.928-8.4-87.536 14.928 13.424-37.904 50.032-54.096 84.096-45.872l3.44 30.944zm37.76 116.56c.144 49.84-31.872 90.256-71.504 90.256s-71.856-40.4-72-90.256c-.144-49.84 31.872-90.256 71.504-90.256 39.616 0 71.856 40.416 72 90.256z" fill="#3e4347"/><path d="M233.68 214.976c3.312 43.536-20.384 78.832-52.928 78.832s-61.616-35.296-64.928-78.832 20.384-78.832 52.928-78.832c32.544-.016 61.616 35.28 64.928 78.832z" fill="#fff"/><ellipse cx="196" cy="228.88" rx="30.832" ry="34.496" fill="#3e4347"/><path d="M212.768 223.376c-3.424 3.136-9.584 1.776-13.92-2.848-4.336-4.608-5.056-10.912-1.808-13.904 3.424-3.136 9.584-1.936 13.76 2.832 4.352 4.624 5.216 10.928 1.968 13.92z" fill="#5a5f63"/><path d="M303.232 98.416c34.176-13.184 66.928-8.4 87.536 14.928-13.424-37.904-50.032-54.096-84.096-45.872l-3.44 30.944zm-37.744 116.56c-.144 49.84 31.872 90.256 71.504 90.256s71.856-40.4 72-90.256c.144-49.84-31.872-90.256-71.504-90.256-39.616 0-71.856 40.416-72 90.256z" fill="#3e4347"/><path d="M278.32 214.976c-3.312 43.536 20.384 78.832 52.928 78.832s61.616-35.296 64.928-78.832-20.384-78.832-52.928-78.832c-32.544-.016-61.616 35.28-64.928 78.832z" fill="#fff"/><ellipse cx="316" cy="228.88" rx="30.832" ry="34.496" fill="#3e4347"/><path d="M299.232 223.376c3.408 3.136 9.584 1.776 13.92-2.848 4.336-4.608 5.04-10.912 1.808-13.904-3.408-3.136-9.584-1.936-13.76 2.832-4.352 4.624-5.216 10.928-1.968 13.92z" fill="#5a5f63"/><path d="M390.416 369.568s-7.552-9.824-16.64-16.32c-.96-.8-1.92-1.44-3.04-2.08-15.76 47.344-64.88 65.968-114.56 67.84-73.68-2.464-108.912-42.128-114.88-68-.96.8-2.08 1.44-3.2 2.24-8.512 6.08-16.48 16.32-16.48 16.32-1.056-5.28 2.784-16.336 11.84-22.72 7.632-5.84 19.136-7.376 25.12-5.28-5.248 2.624-11.392 5.6-16.32 8.8 10.352 20.688 47.296 51.296 113.44 52.64 64.368-1.136 102.224-28.8 114.08-52.48-6.656-4.32-9.456-5.328-16.32-8.96 5.984-2.096 17.488-.56 25.12 5.28 7.232 5.088 11.84 13.072 11.84 22.72z" fill="#3e4347"/><path d="M224.816 441.056c5.424.848 22.528 8.592 27.92 8.272 14.24.672 29.488-8.272 29.488-8.272-2.736 10.24-13.952 20.064-28.784 19.616-14.928-.624-26.416-10.736-28.624-19.616z" fill="#f4c534"/></svg>