<svg xmlns="http://www.w3.org/2000/svg" viewBox="0 0 512 512" xmlns:v="https://vecta.io/nano"><circle cx="256" cy="256" r="256" fill="#ffd93b"/><path d="M512 256c0 141.44-114.64 256-256 256-80.48 0-152.32-37.12-199.28-95.28 43.92 35.52 99.84 56.72 160.72 56.72 141.36 0 256-114.56 256-256 0-60.88-21.2-116.8-56.72-160.72C474.8 103.68 512 175.52 512 256z" fill="#f4c534"/><path d="M445.504 196.112l-7.232 37.872c-21.6-31.568-65.216-53.328-112.832-50.72-9.872.64-19.168 2.4-28.032 4.912l-12.592-57.52 15.936 35.616L295.808 128c5.824-1.168 12.08-1.872 18.304-2.224 30.144-1.936 59.456 5.168 82.672 18.336l-.816 33.824 5.952-30.816c6.096 3.824 11.664 7.856 16.672 12.432l-2.784 30.032 7.024-26.08c9.936 9.584 17.632 20.736 22.672 32.608z" fill="#3e4347"/><path d="M403.184 266.736c-5.04 28.896-35.44 47.664-68.096 44.368-32.656-3.424-58.464-28.064-57.504-57.344.944-29.184 31.632-51.904 68.384-48.096 36.752 3.76 62.256 32.272 57.216 61.072z" fill="#f4c534"/><path d="M397.44 265.808c-1.632 24.736-27.264 40.544-57.2 37.376-29.936-3.264-55.344-24.416-56.848-49.136-1.52-24.608 23.968-43.744 57.056-40.464 33.088 3.2 58.624 27.568 56.992 52.224z" fill="#fff"/><path d="M358.416 262.72c-1.76 13.968-16.384 23.712-32.704 22.224-16.16-1.552-28.752-13.728-27.952-27.776.816-14.16 15.504-24.816 32.608-23.248 17.296 1.584 29.808 14.72 28.048 28.8z" fill="#3e4347"/><path d="M316.816 253.888c-1.76 3.616-5.712 5.424-8.88 4.224-3.056-1.152-4.032-5.008-2.08-8.528 1.728-3.664 5.856-5.44 8.944-4.24 3.088 1.216 4.016 5.056 2.016 8.544z" fill="#5a5f63"/><path d="M66.496 196.112l7.232 37.872c21.6-31.568 65.216-53.328 112.848-50.72 9.856.64 19.168 2.4 28.032 4.912l12.592-57.52-15.936 35.616L216.176 128c-5.824-1.168-12.08-1.872-18.304-2.224-30.144-1.952-59.456 5.152-82.672 18.336l.8 33.824-5.952-30.816c-6.08 3.808-11.648 7.84-16.672 12.416l2.784 30.032-7.024-26.08c-9.904 9.6-17.6 20.752-22.64 32.624z" fill="#3e4347"/><path d="M108.8 266.736c5.04 28.896 35.44 47.664 68.096 44.368 32.656-3.424 58.464-28.064 57.504-57.344-.944-29.184-31.632-51.904-68.384-48.096-36.736 3.76-62.256 32.272-57.216 61.072z" fill="#f4c534"/><path d="M114.56 265.808c1.632 24.736 27.264 40.544 57.2 37.376 29.936-3.264 55.328-24.416 56.848-49.136 1.52-24.64-23.984-43.728-57.056-40.464-33.088 3.2-58.624 27.568-56.992 52.224z" fill="#fff"/><path d="M153.584 262.72c1.76 13.968 16.384 23.712 32.704 22.224 16.16-1.552 28.752-13.728 27.936-27.776-.816-14.16-15.504-24.816-32.608-23.248-17.264 1.584-29.808 14.72-28.032 28.8z" fill="#3e4347"/><path d="M195.184 253.888c1.76 3.616 5.712 5.424 8.88 4.224 3.056-1.152 4.032-5.008 2.08-8.528-1.728-3.664-5.856-5.44-8.944-4.24-3.088 1.216-4.016 5.056-2.016 8.544z" fill="#5a5f63"/><path d="M233.168 405.152c.48-.064 16.432 2.368 25.44 2.336 13.36.08 19.456-2.304 25.44-2.336-3.968 8-14.496 14.288-25.44 14.32-11.216-.064-21.792-6.72-25.44-14.32zm115.824-23.76c1.264 3.408-187.2 4.16-185.968.512.416-10.064 184.256-10.272 185.968-.512z" fill="#3e4347"/></svg>