<svg xmlns="http://www.w3.org/2000/svg" viewBox="0 0 512 512" xmlns:v="https://vecta.io/nano"><circle cx="256" cy="256" r="256" fill="#ffd93b"/><path d="M512 256c0 141.44-114.64 256-256 256-80.48 0-152.32-37.12-199.28-95.28 43.92 35.52 99.84 56.72 160.72 56.72 141.36 0 256-114.56 256-256 0-60.88-21.2-116.8-56.72-160.72C474.8 103.68 512 175.52 512 256zm-265.904-34.416c3.616 44.864-22.48 81.216-58.304 81.216-35.808 0-67.776-36.368-71.392-81.216-3.616-44.864 22.48-81.216 58.288-81.216s67.792 36.352 71.408 81.216z" fill="#f4c534"/><path d="M235.168 221.632c0 38.96-24.128 70.656-53.984 70.656-29.728 0-53.856-31.696-53.856-70.656 0-39.104 24.128-70.784 53.856-70.784 29.872-.016 53.984 31.68 53.984 70.784z" fill="#fff"/><ellipse cx="186.928" cy="223.216" rx="38.432" ry="44.432" fill="#3e4347"/><ellipse transform="matrix(-.8614 -.5079 .5079 -.8614 218.0139 468.4735)" cx="172.921" cy="204.493" rx="9.536" ry="13.648" fill="#5a5f63"/><path d="M101.84 166.272c-.976-.672 57.328-72.944 111.216-49.488-17.84-31.888-65.216-54.16-111.216 49.488z" fill="#3e4347"/><path d="M265.904 221.584c-3.616 44.864 22.48 81.216 58.304 81.216 35.808 0 67.776-36.368 71.392-81.216 3.616-44.864-22.48-81.216-58.288-81.216-35.824-.016-67.792 36.352-71.408 81.216z" fill="#f4c534"/><path d="M276.816 221.632c0 38.96 24.128 70.656 53.984 70.656 29.728 0 53.856-31.696 53.856-70.656 0-39.104-24.128-70.784-53.856-70.784-29.856-.016-53.984 31.68-53.984 70.784z" fill="#fff"/><ellipse cx="325.072" cy="223.216" rx="38.432" ry="44.432" fill="#3e4347"/><ellipse transform="matrix(-.5078 -.8615 .8615 -.5078 335.029 600.4662)" cx="339.054" cy="204.523" rx="13.648" ry="9.536" fill="#5a5f63"/><path d="M410.16 166.272c.976-.672-57.328-72.944-111.216-49.488 17.84-31.888 65.216-54.16 111.216 49.488zM307.792 462.368c-38.272 9.552-68.592 10.112-109.28-.64-4.736-41.472 1.28-88.8 11.52-128.48 38.32-7.424 59.056-5.552 86.56-.48 18.288 47.536 24.992 81.312 11.2 129.6z" fill="#3e4347"/><path d="M289.984 453.216c1.312-7.088 2.048-13.184 2.048-16.624a24.02 24.02 0 0 0-24.064-24.064c-5.744 0-10.944 2.064-15.072 5.424a23.43 23.43 0 0 0-11.6-3.024c-13.328 0-24.064 10.72-24.064 24.064 0 3.056.592 8.192 1.616 14.24l71.136-.016z" fill="#e24b4b"/><path d="M296.432 355.696c-1.744-5.216-3.648-10.512-5.728-15.888-24.704-4.768-49.392-4.688-74.096.24l-3.44 16.08c27.76 2.56 55.52 2.448 83.264-.432zm-91.248 88.928c.176 3.616.384 7.216.72 10.8 31.84 8.176 63.68 8.288 95.52.32 1.104-3.824 1.888-7.6 2.672-11.36-32.976-3.488-65.952-3.44-98.912.24z" fill="#fff"/></svg>