<svg xmlns="http://www.w3.org/2000/svg" viewBox="0 0 512 512" xmlns:v="https://vecta.io/nano"><circle cx="256" cy="256" r="256" fill="#ffd93b"/><path d="M512 256c0 141.44-114.64 256-256 256-80.48 0-152.32-37.12-199.28-95.28 43.92 35.52 99.84 56.72 160.72 56.72 141.36 0 256-114.56 256-256 0-60.88-21.2-116.8-56.72-160.72C474.8 103.68 512 175.52 512 256z" fill="#f4c534"/><path d="M120.8 233.824c2.144 48.8 31.568 85.392 65.856 81.168 33.872-4.176 59.808-47.6 57.664-96.4-2.16-49.232-31.568-85.392-65.44-81.216-34.288 4.224-60.224 47.2-58.08 96.448z" fill="#3e4347"/><path d="M129.28 232.768c4.208 43.456 31.552 76.128 61.136 72.48 29.216-3.6 49.648-42.16 45.44-85.616-4.256-43.84-31.552-76.112-60.768-72.512-29.584 3.632-50.048 41.824-45.808 85.648z" fill="#fff"/><path d="M180.416 194.048c13.2.688 23.152 7.36 34.192 12.464 4 7.008 6.864 15.2 7.984 24.272 3.552 28.768-10.976 54.256-32.448 56.896s-41.744-18.528-45.296-47.312c-2-16.272 2.064-31.088 9.616-41.696 8.736-3.136 17.648-5.056 25.952-4.624z" fill="#3e4347"/><path d="M158.512 197.296c7.408-2.304 14.88-3.616 21.904-3.248 8.384.432 15.44 3.312 22.32 6.64 7.408 7.648 13.248 18.224 15.664 30.624 5.056 25.984-6.368 48.976-25.504 51.344-19.152 2.368-38.784-16.784-43.84-42.784-3.392-17.376.72-33.184 9.456-42.576z" fill="#fff"/><path d="M227.952 221.264c-36.128-33.536-69.664-27.072-85.248-10.112-3.824 4.336-6.72 9.536-11.472 12.864-13.216 9.168-31.136-1.12-30.256-16.576 5.472 2.544 11.84 3.216 17.6 1.536-12.224-3.648-20.656-17.12-18.672-29.776 3.6 9.552 14.256 15.008 24.544 16 34.16 2.864 61.392-34.992 103.504 26.064zM163.264 244.4c2.176 17.632 14.592 30.768 27.776 29.136 13.024-1.6 21.872-17.36 19.696-34.992-2.192-17.776-14.592-30.768-27.616-29.152-13.184 1.616-22.048 17.232-19.856 35.008z" fill="#3e4347"/><path d="M173.952 238.256c3.056 1.232 7.2-1.696 9.344-6.64 2.128-4.944 1.344-10-1.552-11.248-3.056-1.232-7.2 1.696-9.36 6.48-2.144 4.928-1.52 10 1.568 11.408z" fill="#5a5f63"/><path d="M245.264 138.576s-54.128-55.424-121.136-42.752c0 0 117.6-34.496 121.136 42.752zM391.2 233.824c-2.144 48.8-31.568 85.392-65.856 81.168-33.872-4.176-59.808-47.6-57.664-96.4 2.16-49.232 31.568-85.392 65.44-81.216 34.288 4.224 60.224 47.2 58.08 96.448z" fill="#3e4347"/><path d="M382.72 232.768c-4.208 43.456-31.552 76.128-61.136 72.48-29.216-3.6-49.648-42.16-45.44-85.616 4.256-43.84 31.552-76.112 60.768-72.512 29.584 3.632 50.048 41.824 45.808 85.648z" fill="#fff"/><path d="M331.584 194.048c-13.2.688-23.152 7.36-34.192 12.464-4 7.008-6.864 15.2-7.984 24.272-3.552 28.768 10.976 54.256 32.448 56.896s41.744-18.528 45.296-47.312c2-16.272-2.064-31.088-9.616-41.696-8.72-3.136-17.648-5.056-25.952-4.624z" fill="#3e4347"/><path d="M353.488 197.296c-7.408-2.304-14.88-3.616-21.904-3.248-8.384.432-15.44 3.312-22.32 6.64-7.408 7.648-13.248 18.224-15.664 30.624-5.056 25.984 6.368 48.976 25.52 51.344s38.784-16.784 43.84-42.784c3.376-17.376-.736-33.184-9.472-42.576z" fill="#fff"/><path d="M387.536 195.184c10.272-.992 20.944-6.448 24.544-16 1.984 12.656-6.448 26.128-18.672 29.776 5.76 1.68 12.128 1.008 17.6-1.536.88 15.456-17.04 25.744-30.256 16.576-4.752-3.328-7.648-8.528-11.472-12.864-15.584-16.96-49.104-23.424-85.248 10.112 42.128-61.04 69.36-23.184 103.504-26.064zm-38.8 49.216c-2.176 17.632-14.592 30.768-27.776 29.136-13.024-1.6-21.872-17.36-19.712-34.992 2.192-17.776 14.592-30.768 27.616-29.152 13.2 1.616 22.064 17.232 19.872 35.008z" fill="#3e4347"/><path d="M338.048 238.256c-3.056 1.232-7.2-1.696-9.344-6.64-2.128-4.944-1.344-10 1.552-11.248 3.056-1.232 7.2 1.696 9.36 6.48 2.144 4.928 1.504 10-1.568 11.408z" fill="#5a5f63"/><path d="M266.736 138.576s54.128-55.424 121.136-42.752c0 0-117.6-34.496-121.136 42.752z" fill="#3e4347"/><path d="M340.368 365.696c-3.52 110.992-162.416 113.008-168.752 0 51.696 27.328 117.072 27.296 168.752 0z" fill="#e24b4b"/><path d="M271.92 404.944c-.048.144 28.24-5.2 52.896-25.344l2.256-1.84c2.736-3.408 5.12-6.56 6.608-8.72-48.304 22.816-107.072 22.816-155.36 0 2.256 3.632 4.576 7.088 6.912 10.336.576.496 1.136.928 1.712 1.392 12.416 9.696 25.808 16.432 36.096 19.904 10.288 3.616 17.328 4.56 17.328 4.656 0-.048-7.056-.304-17.52-2.928-8.08-1.968-18.176-5.632-28.352-11.344 36.112 41.728 80.144 39.92 113.392 8.208.048-.048.08-.016.112-.032.736-.752 3.984-4.064 7.968-8.48-22.64 12.752-44.096 14.224-44.048 14.192z" fill="#fff"/><path d="M340.384 365.808c-18.864 15.12-38.944 24.528-59.088 28.784-6.08 1.312-12 3.232-17.856 5.088-2.48.784-5.568 1.312-8.896 1.264-3.328-.064-6.416-.576-8.912-1.408-5.952-1.968-11.952-4.048-18.096-5.504-19.456-4.608-38.336-13.968-55.872-28.224C202.048 370.8 207.92 349.84 230 352.96c10.208 1.072 20.56 2.8 26.032 9.84 5.584-6.352 15.968-8.72 26.16-9.856 21.936-3.152 27.696 17.92 58.192 12.864z" fill="#d03f3f"/><path d="M319.408 373.088c-.72 1.744-2.752 2.896-4.336 3.472-13.808 5.36-28.096 9.056-42.56 10.672-4.368.496-8.416 2.16-12.24 4.32-1.632.928-3.84 1.504-6.304 1.504-2.96 0-5.568-.832-7.232-2.112-3.296-2.528-7.392-3.76-11.488-4.432-10.384-1.664-20.688-4.608-30.64-8.816-3.328-1.456-6.944-3.184-9.84-5.792-4.192-3.616 2.032-2.32 4.048-2.608 5.936-.72 11.008-3.76 16.496-6.224 7.232-3.472 16.496-6.512 25.92-3.76 7.824 2.32 13.904 8.832 14.192 16.064 2.608-7.232 10.56-12.304 18.96-14.336 8.544-2.176 17.088-1.6 24.176.432 7.232 1.744 13.168 5.072 18.816 7.968 1.312.608 2.752 1.776 2.032 3.648z" fill="#e24b4b"/><path d="M293.04 366.896c-.592 2.688-5.584 5.216-11.328 5.216-5.728.016-10.128-2.224-9.712-4.896.416-2.608 5.664-4.512 11.44-4.624 5.808-.064 10.064 1.568 9.6 4.304zm-74.592 59.456c6.656 4.4 2.512 9.84-2.544 6.864-14.528-8.624-25.552-22.4-30.912-36.512-.752-2.016-1.2-7.136 2.016-5.088 1.696 1.056 3.664 4.4 4.56 5.984 4.944 8.848 19.184 23.76 26.88 28.752z" opacity=".2" fill="#fff"/><path d="M334.864 339.28c1.792 1.792 11.12 12.192 15.376 16.672 8.672 9.568 10.816 9.072 17.424 13.088-5.008 1.904-14.224.304-22.624-8.064-6.24-6.384-10.032-15.92-10.176-21.696zm-157.728 0c-.144 5.776-3.936 15.296-10.176 21.712-8.56 8.528-17.984 9.824-22.624 8.064 6.528-3.968 9.264-4.064 17.424-13.088l15.376-16.688z" fill="#f4c534"/></svg>