<svg xmlns="http://www.w3.org/2000/svg" viewBox="0 0 512 512" xmlns:v="https://vecta.io/nano"><circle cx="256" cy="256" r="256" fill="#ffd93b"/><path d="M512 256c0 141.44-114.64 256-256 256-80.48 0-152.32-37.12-199.28-95.28 43.92 35.52 99.84 56.72 160.72 56.72 141.36 0 256-114.56 256-256 0-60.88-21.2-116.8-56.72-160.72C474.8 103.68 512 175.52 512 256z" fill="#f4c534"/><path d="M232.208 204.992c0 49.6-40.32 89.92-89.92 89.92-49.76 0-90.08-40.32-90.08-89.92 0-49.76 40.32-90.08 90.08-90.08 49.6 0 89.92 40.32 89.92 90.08z" fill="#fff"/><circle cx="158.256" cy="204.944" r="74" fill="#3e4347"/><circle cx="174.256" cy="204.944" r="58" fill="#fff"/><circle cx="190.256" cy="204.944" r="42" fill="#3e4347"/><g fill="#fff"><circle cx="206.256" cy="204.944" r="26"/><path d="M369.712 114.912c49.76 0 90.08 40.32 90.08 90.08 0 49.6-40.32 89.92-90.08 89.92-49.6 0-89.92-40.32-89.92-89.92 0-49.76 40.32-90.08 89.92-90.08z"/></g><circle cx="353.76" cy="204.944" r="74" fill="#3e4347"/><circle cx="337.76" cy="204.944" r="58" fill="#fff"/><circle cx="321.76" cy="204.944" r="42" fill="#3e4347"/><circle cx="305.76" cy="204.944" r="26" fill="#fff"/><path d="M375.216 419.344c-78.048-26.608-157.552-27.008-238.496.208-11.456 4-20.928-9.808-14.736-21.008 27.84-49.216 77.504-82.048 134.08-82.048s106.064 32.608 133.904 81.84c6.352 11.008-3.296 25.024-14.752 21.008z" fill="#3e4347"/><path d="M331.424 407.52c-1.328-15.664-7.488-31.312-19.84-44.624-11.968-12.88-31.2-16.672-46.656-8.256-10.704 5.808-23.888 7.792-34.544 6.816-31.568-2.288-47.92 19.84-49.872 46.336 50.896-10.912 101.2-10.896 150.912-.272z" fill="#e24b4b"/></svg>