<svg xmlns="http://www.w3.org/2000/svg" viewBox="0 0 512 512" xmlns:v="https://vecta.io/nano"><circle cx="256" cy="256" r="256" fill="#ffd93b"/><path d="M416.992 337.968c-26.432 62.896-88.544 107.088-161.008 107.088-72.48 0-134.432-44.192-160.864-107.088-5.408-12.672 4.176-26.576 18.08-25.808 95.024 6.032 190.224 6.032 285.552 0 13.904-.768 23.488 13.136 18.24 25.808z" fill="#3e4347"/><path d="M512 256c0 141.44-114.64 256-256 256-80.48 0-152.32-37.12-199.28-95.28 43.92 35.52 99.84 56.72 160.72 56.72 141.36 0 256-114.56 256-256 0-60.88-21.2-116.8-56.72-160.72C474.8 103.68 512 175.52 512 256z" fill="#f4c534"/><ellipse cx="150.464" cy="185.52" rx="92.96" ry="93.04" fill="#fff"/><path d="M217.024 179.632c0 26.08-21.12 47.2-47.2 47.04-25.92 0-47.04-20.96-47.04-47.04 0-25.92 21.12-47.04 47.2-47.04 25.92.016 47.04 21.12 47.04 47.04z" fill="#3e4347"/><g fill="#fff"><path d="M197.024 170.672c-3.2 3.36-9.92 1.76-14.88-3.36-4.96-4.96-6.56-11.52-3.36-14.88 3.36-3.2 9.92-1.6 14.88 3.36 5.12 4.96 6.72 11.68 3.36 14.88z"/><ellipse cx="361.536" cy="185.52" rx="92.96" ry="93.04"/></g><path d="M290.368 179.632c0 26.08 21.12 47.2 47.2 47.04 25.92 0 47.04-20.96 47.04-47.04 0-25.92-21.12-47.04-47.2-47.04-25.92.016-47.04 21.12-47.04 47.04z" fill="#3e4347"/><path d="M310.368 170.672c3.2 3.36 9.92 1.76 14.88-3.36 4.96-4.96 6.56-11.52 3.36-14.88-3.36-3.2-9.92-1.6-14.88 3.36-5.12 4.96-6.72 11.68-3.36 14.88zM113.184 312.16c-1.12-.064-2.16.112-3.216.24 29.712 40.224 83.904 42.448 146.032 42.448s116.32-2.224 146.032-42.448c-1.088-.128-2.144-.304-3.28-.24-95.344 6.032-190.528 6.032-285.568 0z" fill="#fff"/><path d="M255.968 445.056c26.608 0 51.808-6 74.368-16.656-1.104-18.576-8.624-35.424-21.008-47.968-9.904-9.872-24.992-13.568-38.128-8.736-11.952 4.288-24.976 6.496-39.072 6.64-23.968 0-44.912 17.568-49.248 41.072-.544 2.976-.672 6.08-.832 9.184 22.432 10.512 47.456 16.464 73.92 16.464z" fill="#e24b4b"/></svg>