<svg xmlns="http://www.w3.org/2000/svg" viewBox="0 0 512 512" xmlns:v="https://vecta.io/nano"><circle cx="256" cy="225.6" r="225.6" fill="#ffd93b"/><path d="M372.32 315.472c-19.168 45.376-64 77.104-116.288 77.104-52.72 0-97.824-32.272-116.704-78.08-3.664-9.008 4.368-18.32 14.096-16.768 68.368 11.136 136.72 11.136 205.232.144 10-1.712 17.616 8.288 13.664 17.6z" fill="#3e4347"/><path d="M481.52 225.52c0 124.608-100.992 225.52-225.52 225.52-70.896 0-134.192-32.704-175.552-83.936 38.688 31.296 87.952 49.968 141.584 49.968 124.528 0 225.52-100.928 225.52-225.52 0-53.632-18.672-102.896-49.968-141.584 51.168 41.376 83.936 104.656 83.936 175.552z" fill="#f4c534"/><path d="M294.016 96.672c-4.016-4.24-3.824-10.928.432-14.944 15.248-14.432 58.928-38.768 115.264-27.44 5.728 1.152 9.424 6.72 8.288 12.448-1.136 5.712-6.736 9.36-12.448 8.288-44.288-8.864-82.064 8.336-96.608 22.064-4.192 3.984-10.88 3.856-14.928-.416zm-90.976.416c-14.528-13.728-52.288-30.944-96.608-22.064-5.76 1.056-11.296-2.576-12.448-8.288-1.136-5.728 2.56-11.296 8.288-12.448 56.336-11.264 100.016 13.008 115.264 27.44 4.256 4 4.448 10.688.432 14.944a10.54 10.54 0 0 1-14.928.416z" fill="#3e4347"/><path d="M244.96 196.448c-3.248 43.536-41.84 75.6-86.176 71.44s-77.776-42.96-74.528-86.496c3.232-43.552 41.952-75.472 86.288-71.312 44.336 4.144 77.664 42.816 74.416 86.368z" fill="#fff"/><ellipse cx="185.056" cy="193.12" rx="38.944" ry="38.976" fill="#3e4347"/><g fill="#fff"><ellipse transform="matrix(-.7071 -.7071 .7071 -.7071 215.4718 445.6105)" cx="200.025" cy="178.18" rx="9.952" ry="6.784"/><path d="M267.056 196.448c3.248 43.536 41.84 75.6 86.176 71.44s77.776-42.96 74.528-86.496-41.968-75.472-86.304-71.312c-44.336 4.144-77.648 42.816-74.4 86.368z"/></g><ellipse cx="326.992" cy="193.12" rx="38.944" ry="38.976" fill="#3e4347"/><ellipse transform="matrix(-.7071 -.7071 .7071 -.7071 457.7142 546.0887)" cx="341.956" cy="178.249" rx="9.952" ry="6.784" fill="#fff"/><path d="M211.184 362.704c-8.192-1.584-17.312 2.56-19.312 14.816C184.544 467.392 217.728 512.016 256 512c38.304.08 71.44-44.704 64.144-134.48-1.984-12.208-11.12-16.4-19.312-14.816-28.816 5.6-60.848 5.6-89.648 0z" fill="#e24b4b"/></svg>