<svg xmlns="http://www.w3.org/2000/svg" viewBox="0 0 512 512" xmlns:v="https://vecta.io/nano"><circle cx="256" cy="256" r="256" fill="#ffd93b"/><path d="M512 256c0 141.44-114.64 256-256 256-80.48 0-152.32-37.12-199.28-95.28 43.92 35.52 99.84 56.72 160.72 56.72 141.36 0 256-114.56 256-256 0-60.88-21.2-116.8-56.72-160.72C474.8 103.68 512 175.52 512 256z" fill="#f4c534"/><path d="M381.712 359.856c0 74.352-73.408 99.312-125.744 99.312-52.208 0-125.616-24.96-125.616-99.312 0-32.192 43.856-57.632 93.408-51.808 21.472 2.688 43.216 2.688 64.544 0 50.512-5.776 93.408 19.984 93.408 51.808z" fill="#3e4347"/><path d="M256.032 350.48c46.672 0 88.416-3.728 116.688-14.816-15.12-19.328-47.712-31.808-84.4-27.6-21.344 2.688-43.072 2.688-64.544 0-36.096-4.256-69.104 8.144-84.384 27.616 28.24 11.072 69.968 14.8 116.64 14.8z" fill="#fff"/><path d="M261.392 381.696c-27.488 14-53.808-4.784-68.08 25.6-5.776 12.544-7.344 25.36-5.792 37.44 22.032 10.112 47.008 14.432 68.448 14.432 21.504 0 46.512-4.304 68.576-14.432 5.28-41.216-28.288-80.912-63.152-63.04z" fill="#e24b4b"/><path d="M231.008 201.984c-19.696-19.088-47.504-30.944-78.288-30.944-30.864 0-58.576 11.856-78.192 30.864-2.624 2.528-6.896-.432-5.584-3.92 12.72-33.824 45.424-57.888 83.776-57.888 38.272 0 71.04 24.064 83.856 57.968 1.312 3.488-2.96 6.448-5.568 3.92zm206.464 0c-19.696-19.088-47.504-30.944-78.288-30.944-30.864 0-58.576 11.856-78.192 30.864-2.608 2.528-6.896-.432-5.584-3.92 12.72-33.824 45.424-57.888 83.776-57.888 38.272 0 71.056 24.064 83.856 57.968 1.312 3.488-2.96 6.448-5.568 3.92zm57.536 174.544c-10.64-4.864-31.536-13.824-43.776-14.928l-9.136 64c-1.696 11.872-16.528 19.552-33.152 17.184-16.688-2.384-28.784-13.904-27.088-25.776 1.68-11.824 16.528-19.472 33.2-17.088 4.704.672 9.088 2.096 12.848 4.064l9.184-64.352c1.152-8.08 9.536-12.896 17.088-9.872 14.048 5.632 34.368 17.76 44.928 42.736 1.104 2.608-1.568 5.216-4.096 4.032zm-1.328-121.456c-7.344-3.024-21.76-8.544-30.096-8.976l-4.48 43.664c-.832 8.112-10.688 13.712-22.032 12.544-11.376-1.168-19.888-8.672-19.072-16.784.832-8.064 10.688-13.648 22.064-12.48 3.216.336 6.224 1.184 8.816 2.416l4.496-43.904c.56-5.504 6.128-8.992 11.328-7.152 9.68 3.456 23.792 11.136 31.632 27.808.832 1.76-.896 3.6-2.656 2.864z" fill="#3e4347"/></svg>