<svg xmlns="http://www.w3.org/2000/svg" viewBox="0 0 512 512" xmlns:v="https://vecta.io/nano"><circle cx="256" cy="256" r="256" fill="#ffd93b"/><path d="M510.784 256c0 141.44-114.64 256-256 256-80.48 0-152.32-37.12-199.28-95.28 43.92 35.52 99.84 56.72 160.72 56.72 141.36 0 256-114.56 256-256 0-60.88-21.2-116.8-56.72-160.72 58.08 46.96 95.28 118.8 95.28 199.28z" fill="#f4c534"/><path d="M235.408 208.688c0 43.808-35.424 79.376-79.376 79.376-43.808 0-79.376-35.584-79.376-79.376 0-43.952 35.568-79.52 79.376-79.52 43.952 0 79.376 35.584 79.376 79.52zm199.936 0c0 43.808-35.424 79.376-79.376 79.376-43.792 0-79.376-35.584-79.376-79.376 0-43.952 35.584-79.52 79.376-79.52 43.952 0 79.376 35.584 79.376 79.52z" fill="#fff"/><path d="M485.232 196.624h-39.504c-5.92-44.336-43.888-78.656-89.76-78.656-33.952 0-63.552 18.816-79.04 46.56-4.208 7.536-12.16 11.92-20.784 11.872h-.16c-.08 0-.144 0-.224.016-8.592.064-16.512-4.352-20.688-11.84-15.488-27.76-45.088-46.592-79.04-46.592-45.856 0-83.744 34.336-89.68 78.656H26.72v24h39.92c5.568 41.408 39.216 74.736 81.6 78.32 53.632 4.544 99.44-38.224 98.304-92.144.912-4.512 4.72-7.968 9.472-7.968 4.864 0 9.376 3.504 9.376 9.872 0 52.288 44.544 94.384 97.696 90.304 42.528-3.264 76.832-36.528 82.368-78.384h39.776v-24.016zm-329.2 80.224c-37.584 0-68.176-30.592-68.176-68.16 0-37.664 30.576-68.304 68.176-68.304 37.584 0 68.16 30.64 68.16 68.304 0 37.584-30.576 68.16-68.16 68.16zm199.936 0c-37.584 0-68.176-30.592-68.176-68.16 0-37.664 30.576-68.304 68.176-68.304 37.584 0 68.16 30.64 68.16 68.304 0 37.584-30.576 68.16-68.16 68.16zm10.352-68.192c0 16.688-13.424 30.432-30.32 30.432-16.688 0-30.32-13.744-30.32-30.432 0-16.784 13.648-30.544 30.32-30.544 16.896.016 30.32 13.76 30.32 30.544z" fill="#3e4347"/><ellipse transform="matrix(-.7071 -.7071 .7071 -.7071 451.4867 583.1661)" cx="346.521" cy="198.077" rx="10" ry="6.912" fill="#fff"/><path d="M206.32 208.656c0 16.688-13.44 30.432-30.32 30.432-16.688 0-30.32-13.744-30.32-30.432 0-16.784 13.648-30.544 30.32-30.544 16.896.016 30.32 13.76 30.32 30.544z" fill="#3e4347"/><ellipse transform="matrix(-.7071 -.7071 .7071 -.7071 178.3882 470.013)" cx="186.537" cy="198.061" rx="10" ry="6.912" fill="#fff"/><path d="M207.872 68.832c0 6.224-5.408 11.872-12.624 10.256-17.952-4.016-36.176-3.936-54.64-.08-6.768 1.408-12.96-3.216-12.96-10.176 0-5.84 4.672-10.704 10.512-10.704 19.152-3.808 38.816-3.856 58.992 0 6.048 0 10.72 4.88 10.72 10.704zm176.48 0c0 6.224-5.408 11.872-12.608 10.256-17.952-4.016-36.176-3.936-54.656-.08-6.768 1.408-12.96-3.216-12.96-10.176 0-5.84 4.672-10.704 10.512-10.704 19.152-3.808 38.816-3.856 58.992 0 6.048 0 10.72 4.88 10.72 10.704zm-34.416 317.344c.736 99.12-188.592 99.424-187.856-.144-.736-99.136 188.592-99.136 187.856.144z" fill="#3e4347"/><path d="M330.8 367.824c-11.84-24.688-37.952-41.68-74.784-41.312-36.832-.368-62.944 16.624-74.784 41.312 49.632-7.12 99.472-7.136 149.568 0z" fill="#fff"/></svg>