<svg xmlns="http://www.w3.org/2000/svg" xmlns:xlink="http://www.w3.org/1999/xlink" viewBox="0 0 512 512" xmlns:v="https://vecta.io/nano"><circle cx="256" cy="278.8" r="233.2" fill="#ffd93b"/><path d="M488.096 278.8c0 128.848-104.432 233.2-233.2 233.2-73.312 0-138.752-33.808-181.536-86.8 40.016 32.352 90.944 51.664 146.416 51.664 128.768 0 233.2-104.352 233.2-233.2 0-55.456-19.312-106.4-51.664-146.416 52.896 42.784 86.784 108.24 86.784 181.552z" fill="#f4c534"/><g fill="#fff"><use xlink:href="#B"/><use xlink:href="#B" x="182.128"/></g><path d="M464.816 224.704h-35.984c-5.392-40.384-39.984-71.648-81.76-71.648-30.928 0-57.888 17.136-72 42.416-3.824 6.864-11.072 10.864-18.928 10.816h-.352c-7.824.048-15.04-3.952-18.848-10.784-14.112-25.296-41.072-42.448-72-42.448-41.776 0-76.288 31.28-81.696 71.648H47.136v21.856h36.352c5.072 37.728 35.728 68.08 74.336 71.344 48.864 4.144 90.592-34.816 89.536-83.952.832-4.112 4.288-7.264 8.64-7.264 4.432 0 8.544 3.2 8.544 8.992 0 47.632 40.592 85.984 89.008 82.272 38.736-2.976 69.984-33.28 75.04-71.408h36.24v-21.84h-.016zm-299.872 73.088c-34.24 0-62.096-27.856-62.096-62.08 0-34.304 27.856-62.224 62.096-62.224s62.096 27.92 62.096 62.224c-.016 34.208-27.856 62.08-62.096 62.08zm182.128 0c-34.24 0-62.096-27.856-62.096-62.08 0-34.304 27.856-62.224 62.096-62.224s62.096 27.92 62.096 62.224c0 34.208-27.856 62.08-62.096 62.08zm9.424-62.128c0 15.2-12.24 27.728-27.632 27.728-15.2 0-27.632-12.528-27.632-27.728 0-15.296 12.432-27.824 27.632-27.824 15.408.016 27.632 12.528 27.632 27.824z" fill="#3e4347"/><ellipse transform="matrix(-.7071 -.7071 .7071 -.7071 418.1482 625.3335)" cx="338.585" cy="226.065" rx="9.104" ry="6.304" fill="#fff"/><path d="M210.752 235.664c0 15.2-12.24 27.728-27.632 27.728-15.2 0-27.632-12.528-27.632-27.728 0-15.296 12.432-27.824 27.632-27.824 15.392.016 27.632 12.528 27.632 27.824z" fill="#3e4347"/><ellipse transform="matrix(-.7071 -.7071 .7071 -.7071 169.0662 522.2803)" cx="192.701" cy="226.125" rx="9.104" ry="6.304" fill="#fff"/><path d="M299.936 48.4c0-12.432-22.512-48.4-22.512-48.4s-22.512 35.968-22.512 48.4 10.08 22.512 22.512 22.512 22.512-10.08 22.512-22.512z" fill="#65b1ef"/><path d="M288.08 59.824c-3.408 3.056-7.504 3.872-9.152 2s-.24-5.744 3.056-8.8c3.408-2.944 7.632-3.872 9.28-2 1.632 1.872.224 5.744-3.184 8.8z" fill="#fff"/><path d="M257.104 105.2c0-10.544-19.088-41.024-19.088-41.024s-19.088 30.496-19.088 41.024a19.09 19.09 0 0 0 19.088 19.088 19.09 19.09 0 0 0 19.088-19.088z" fill="#65b1ef"/><path d="M247.056 114.88c-2.88 2.592-6.368 3.28-7.76 1.696s-.192-4.88 2.592-7.456c2.88-2.48 6.464-3.28 7.856-1.696s.208 4.864-2.688 7.456z" fill="#fff"/><path d="M384.864 121.072s-56.176 5.616-88.912-45.056c.016 0 13.12 94.192 88.912 45.056zm-257.728 0s56.176 5.616 88.912-45.056c-.016 0-13.12 94.192-88.912 45.056zM346.544 433.92c-1.264 10.272-12.576 15.92-21.92 11.648-45.472-21.232-91.168-20.768-137.2.224-9.456 4.272-20.544-1.504-21.92-11.648C158.576 381.056 200 331.44 256.08 331.44c55.952.016 97.264 49.408 90.464 102.48z" fill="#3e4347"/><path d="M309.424 439.392c-.416-14.928-6.784-28.336-17.104-37.744-6.272-5.808-15.536-6.592-23.376-3.136-5.648 2.352-11.936 3.76-19.152 3.76-2.352 0-4.544-.16-6.752-.464-14.912-1.872-30.288 4.08-36.256 17.744-2.688 6.272-4.08 13.088-4.256 20.208 35.808-12.848 71.424-13.152 106.896-.368z" fill="#e24b4b"/><defs ><path id="B" d="M237.248 235.696c0 39.904-32.272 72.304-72.304 72.304-39.904 0-72.304-32.4-72.304-72.304 0-40.032 32.416-72.448 72.304-72.448 40.032.016 72.304 32.416 72.304 72.448z"/></defs></svg>