<svg xmlns="http://www.w3.org/2000/svg" viewBox="0 0 512.002 512.002" xmlns:v="https://vecta.io/nano"><path d="M509.94 223.06C530.805 390.45 390.02 530.98 222.71 509.89 108.66 495.523 16.55 403.443 2.117 289.38-19.083 121.81 122.005-19.18 289.59 2.147 403.685 16.66 495.717 108.93 509.94 223.06z" fill="#ffd93b"/><g fill="#f4c534"><path d="M510.277 286.1C496.917 402.995 402.34 497.33 285.413 510.355c-92.24 10.272-176.08-28.48-228.688-93.632 50.864 41.136 117.824 63.072 189.936 55.104C364.005 458.867 458.87 364.02 471.83 246.66c7.968-72.112-13.968-139.072-55.104-189.936 65.232 52.752 104.128 136.88 93.552 229.376z"/><ellipse cx="124.981" cy="210.627" rx="120.992" ry="121.072"/></g><path d="M221.877 210.66c0 53.472-43.248 96.88-96.88 96.88s-96.88-43.408-96.88-96.88c0-53.632 43.248-97.056 96.88-97.056s96.88 43.424 96.88 97.056z" fill="#fff"/><path d="M183.493 210.675c0 32.256-26.096 58.496-58.496 58.496S66.5 242.915 66.5 210.675c0-32.4 26.096-58.656 58.496-58.656s58.496 26.256 58.496 58.656z" fill="#3e4347"/><ellipse transform="matrix(-.7071 -.7071 .7071 -.7071 115.7161 426.6364)" cx="146.217" cy="189.353" rx="17.936" ry="11.712" fill="#fff"/><ellipse cx="387.045" cy="210.627" rx="120.992" ry="121.072" fill="#f4c534"/><path d="M483.91 210.66c0 53.472-43.264 96.88-96.896 96.88s-96.896-43.408-96.896-96.88c0-53.632 43.248-97.056 96.896-97.056 53.648.016 96.896 43.424 96.896 97.056z" fill="#fff"/><path d="M445.525 210.675c0 32.256-26.096 58.496-58.496 58.496s-58.496-26.256-58.496-58.496c0-32.4 26.096-58.656 58.496-58.656s58.496 26.256 58.496 58.656z" fill="#3e4347"/><ellipse transform="matrix(-.7071 -.7071 .7071 -.7071 563.0282 611.9229)" cx="408.247" cy="189.355" rx="17.936" ry="11.712" fill="#fff"/><path d="M354.405 373.683c-16.832 28.24-52.08 59.504-103.856 61.584-45.456-2.656-81.152-26.272-104.192-61.728 27.856 14.576 57.52 35.136 104.352 37.424 53.36-1.376 87.488-30.64 103.696-37.28z" fill="#3e4347"/></svg>