<svg xmlns="http://www.w3.org/2000/svg" viewBox="0 0 505.581 505.581" xmlns:v="https://vecta.io/nano"><path d="M503.545 220.26c20.608 165.296-118.416 304.064-283.632 283.232C107.29 489.3 16.345 398.373 2.09 285.75-18.84 120.277 120.473-18.94 285.96 2.117c112.656 14.336 203.536 105.44 217.584 218.144z" fill="#ffd93b"/><path d="M503.88 282.517c-13.184 115.424-106.576 208.576-222.048 221.44C190.76 514.1 107.96 475.845 56 411.493c50.224 40.624 116.336 62.272 187.552 54.416 115.872-12.8 209.552-106.464 222.336-222.336 7.856-71.216-13.792-137.328-54.416-187.552 64.432 52.08 102.832 135.152 92.4 226.496zM198.84 170.26c16.32 17.6 26.4 41.12 26.4 67.04 0 61.44-55.84 109.6-119.52 96.48-37.12-7.52-67.36-37.6-75.36-74.72-7.36-34.4 3.36-66.4 24.32-88.8 2.72-3.04 6.72-4.48 10.88-4.48h122.4c4 0 8 1.44 10.88 4.48zm250.56 67.057c0 61.44-55.84 109.6-119.52 96.48-37.28-7.52-67.36-37.6-75.36-74.72-7.36-34.4 3.36-66.4 24.16-88.8 2.88-3.04 6.88-4.48 10.88-4.48h122.4c4.096 0 8.144 1.552 10.944 4.544 16.448 17.584 26.496 41.088 26.496 66.976z" fill="#f4c534"/><path d="M113.513 312.757c-29.312-4.912-53.76-27.504-60.944-56.352-6.32-25.408.352-51.152 17.088-69.888h114.24c12.56 14.032 19.44 32.032 19.44 50.864 0 46.496-41.792 83.44-89.824 75.376zm224 0c-29.312-4.912-53.744-27.504-60.928-56.352-6.32-25.392.352-51.12 17.088-69.888h114.24c12.56 14.032 19.44 32.032 19.44 50.864-.016 46.496-41.808 83.44-89.84 75.376z" fill="#fff"/><path d="M180.745 257.43c-16.224 26.352-53.504 26.464-70.048.16-7.808-12.416-7.968-28.928-.464-41.52 16.192-27.184 54.544-27.184 70.752-.032 7.456 12.528 7.408 28.96-.24 41.392z" fill="#3e4347"/><path d="M168.52 231.22c-3.216 3.36-9.792 1.904-14.752-2.928-4.816-4.96-6.144-11.536-2.928-14.752 3.36-3.216 9.936-1.904 14.752 2.912s6.288 11.408 2.928 14.768z" fill="#fff"/><path d="M404.76 257.43c-16.224 26.352-53.504 26.464-70.048.16-7.808-12.416-7.984-28.928-.464-41.52 16.192-27.184 54.528-27.184 70.752-.032 7.456 12.528 7.408 28.96-.24 41.392z" fill="#3e4347"/><path d="M392.52 231.22c-3.216 3.36-9.792 1.904-14.752-2.928-4.816-4.96-6.144-11.536-2.928-14.752 3.36-3.216 9.936-1.904 14.752 2.912 4.832 4.832 6.288 11.408 2.928 14.768z" fill="#fff"/><path d="M418.2 119.717c-87.472-2.032-125.632 28.672-175.2 32.48-78.832 5.2-82.48-60.512-89.12-82.24-7.248-22.672-15.616-35.712-39.84-32.8-19.807 2.368-43.8 13.873-62.08 23.023 6.096-8.16 38.048-30.992 59.36-36.64 30.816-8.864 51.312 8.896 62.56 39.52 11.376 29.952 11.6 68.288 67.84 66.08 47.968-1.856 96.528-31.44 176.48-9.424zm-56.48 269.6c-58.656-9.392-106.944 36.128-165.6 32.64-38.992-3.12-60.8-25.328-64.48-47.36 13.936 20.448 39.488 27.456 64.48 26.24 50.352-3.696 121.152-47.12 165.6-11.52z" fill="#3e4347"/></svg>