<svg xmlns="http://www.w3.org/2000/svg" viewBox="0 0 512.005 512.005" xmlns:v="https://vecta.io/nano"><circle cx="266.181" cy="259.124" r="245.824" fill="#ffd93b"/><g fill="#f4c534"><path d="M512.005 259.124c0 135.808-110.08 245.824-245.824 245.824-77.28 0-146.256-35.648-191.36-91.488 42.176 34.112 95.872 54.464 154.336 54.464 135.744 0 245.824-110 245.824-245.824 0-58.464-20.352-112.16-54.464-154.336 55.776 45.104 91.488 114.08 91.488 191.36z"/><circle cx="104.343" cy="189.314" r="104.324"/></g><circle cx="104.343" cy="189.314" r="84.163" fill="#fff"/><circle cx="104.343" cy="189.314" r="46.706" fill="#3e4347"/><path d="M130.517 179.78c-3.056 4.496-11.6 3.936-18.976-1.072s-11.04-12.752-7.984-17.248 11.456-3.904 18.976 1.072c7.408 5.152 11.04 12.752 7.984 17.248z" fill="#fff"/><ellipse transform="matrix(-.1875 -.9823 .9823 -.1875 287.959 519.6617)" cx="358.905" cy="140.735" rx="133.653" ry="133.637" fill="#f4c534"/><circle cx="358.905" cy="140.735" r="107.812" fill="#fff"/><circle cx="358.905" cy="140.735" r="59.842" fill="#3e4347"/><path d="M392.42 128.516c-3.904 5.76-14.864 5.04-24.304-1.376s-14.144-16.336-10.224-22.096c3.904-5.76 14.672-5.008 24.304 1.376 9.472 6.608 14.13 16.352 10.224 22.096z" fill="#fff"/><path d="M68.357 287.124c56.816 20.976 119.472-10.56 136.24-69.264-55.616-5.184-116.928 24.976-136.24 69.264z" fill="#f4c534"/><path d="M154.34 234.34c-42.368 14.848-73.152 47.088-80.304 79.696L77.94 334.5l156.576-29.888-14.56-76.256c-19.584-3.824-42.448-2.208-65.616 5.984z" fill="#ffd93b"/><path d="M454.965 290.564c-10.768 87.984-59.552 177.952-138.8 178.24-82.288.304-191.744-71.52-218.704-143.664-3.2-8.544 5.68-17.488 14.928-15.104 117.968 30.032 229.376 32.384 325.104-30.832 8.945-5.952 18.72 1.264 17.472 11.36z" fill="#3e4347"/><path d="M334.917 433.012c33.008-10.464 66.016-27.088 91.28-48.048-30.464-27.984-79.552-31.808-113.216-4.656-12.336 10.016-27.552 14.944-43.232 13.392-28.656-3.056-55.968 8.928-74.016 29.472 40.016 27.568 91.152 18.784 139.184 9.84z" fill="#e24b4b"/><path d="M316.18 468.804c54.752-.208 94.944-43.232 118.128-98.816-96.944 88.912-228.896 51.696-278.64 31.36 45.984 39.152 108.624 67.648 160.512 67.456zm133.777-149.232c2.096-9.616 3.824-19.312 5.008-29.008 1.232-10.096-8.528-17.312-17.488-11.376-95.712 63.216-207.136 60.864-325.088 30.832-9.248-2.384-18.112 6.576-14.928 15.104 2.384 6.368 5.616 12.72 9.2 19.04 119.392 33.104 234.16 27.44 343.296-24.592z" fill="#fff"/></svg>