<svg xmlns="http://www.w3.org/2000/svg" viewBox="0 0 512 512" xmlns:v="https://vecta.io/nano"><circle cx="256" cy="256" r="255.088" fill="#ffd93b"/><path d="M511.088 256c0 140.928-114.224 255.088-255.088 255.088-80.192 0-151.776-36.992-198.576-94.944 43.76 35.392 99.488 56.512 160.144 56.512 140.848 0 255.088-114.144 255.088-255.088 0-60.656-21.12-116.384-56.512-160.144 57.872 46.8 94.944 118.384 94.944 198.576z" fill="#f4c534"/><g fill="#fff"><circle cx="135.552" cy="212.048" r="91.856"/><circle cx="376.448" cy="212.048" r="91.856"/></g><path d="M130.528 246.016v-30.128c-9.392-2.688-16.288-6.752-20.672-12.192s-6.576-12.048-6.576-19.808c0-7.856 2.48-14.464 7.44-19.808s11.568-8.432 19.808-9.248v-7.12h10.432v7.12c7.616.912 13.68 3.504 18.192 7.808 4.512 4.288 7.376 10.032 8.624 17.216l-18.192 2.384c-1.104-5.664-3.984-9.504-8.64-11.52v28.112c11.504 3.12 19.344 7.152 23.52 12.112s6.256 11.328 6.256 19.088c0 8.672-2.624 15.984-7.872 21.936s-12.544 9.584-21.904 10.928v13.44h-10.416v-13.088c-8.288-1.008-15.024-4.096-20.208-9.28s-8.48-12.496-9.92-21.936l18.768-2.016c.768 3.84 2.208 7.136 4.32 9.92 2.096 2.816 4.448 4.832 7.04 6.08zm0-75.504c-2.832.96-5.088 2.592-6.752 4.896-1.68 2.304-2.512 4.848-2.512 7.616 0 2.544.768 4.896 2.304 7.088 1.536 2.176 3.856 3.936 6.976 5.28l-.016-24.88zm10.416 76.512c3.6-.672 6.528-2.336 8.768-4.992s3.376-5.792 3.376-9.376c0-3.216-.944-5.984-2.848-8.304-1.888-2.32-4.992-4.112-9.312-5.36v28.032h.016zm230.464-1.008v-30.128c-9.392-2.688-16.288-6.752-20.672-12.192s-6.576-12.048-6.576-19.808c0-7.856 2.48-14.464 7.44-19.808s11.568-8.432 19.808-9.248v-7.12h10.432v7.12c7.616.912 13.68 3.504 18.192 7.808 4.512 4.288 7.376 10.032 8.624 17.216l-18.192 2.368c-1.104-5.664-3.984-9.488-8.624-11.504v28.112c11.504 3.12 19.344 7.152 23.52 12.112s6.256 11.328 6.256 19.088c0 8.672-2.624 15.984-7.872 21.936s-12.544 9.584-21.904 10.928v13.44h-10.432v-13.088c-8.288-1.008-15.024-4.096-20.208-9.28s-8.48-12.496-9.92-21.936l18.768-2.016c.768 3.84 2.208 7.136 4.32 9.92 2.112 2.816 4.464 4.832 7.04 6.08zm0-75.504c-2.832.96-5.088 2.592-6.752 4.896-1.68 2.304-2.512 4.848-2.512 7.616 0 2.544.768 4.896 2.304 7.088 1.536 2.176 3.856 3.936 6.976 5.28l-.016-24.88zm10.432 76.512c3.6-.672 6.528-2.336 8.768-4.992 2.256-2.656 3.376-5.792 3.376-9.376 0-3.216-.944-5.984-2.848-8.304-1.888-2.32-4.992-4.112-9.312-5.36v28.032h.016z" fill="#8cc63e"/><path d="M512 196.784h-31.664c-11.776-83.44-111.168-117.936-172.96-63.952-31.568 27.568-75.232 23.904-103.008-.224C142.64 79.024 43.44 113.312 31.664 196.784H0v30.496h31.504c7.408 50.784 51.248 89.904 104.048 89.904 50.576 0 92.912-35.904 102.896-83.552h.016v-.064c.496-2.336.8-4.736 1.136-7.136 5.456-16.272 27.408-15.696 32.784.016.336 2.384.64 4.784 1.12 7.104v.096h.032c10 47.648 52.336 83.536 102.912 83.536 52.8 0 96.64-39.12 104.048-89.904H512v-30.496zM135.552 292.4c-44.32 0-80.368-36.048-80.368-80.368s36.064-80.352 80.368-80.352 80.352 36.048 80.352 80.368-36.032 80.352-80.352 80.352zm240.896 0c-44.32 0-80.368-36.048-80.368-80.368s36.048-80.368 80.368-80.368c44.304 0 80.352 36.048 80.352 80.368S420.752 292.4 376.448 292.4zm47.12-190.688c.384-3.008-8.8-16.896-10.192-18.8-9.504-13.376-20.976-23.408-34.544-32.864-18.384-12.112-50.688-24.464-67.408-10.272-.512.336-.512 1.008-.16 1.344 12.192 14.448 32.048 16.624 58.816 25.952 34.896 12.704 35.744 20 52.384 34.864.4.368.768.832 1.104-.224zm-335.136 0c-.4-3.008 8.784-16.912 10.192-18.8 9.504-13.376 20.976-23.408 34.544-32.864 18.384-12.112 50.688-24.464 67.408-10.272.512.336.512 1.008.16 1.344-12.192 14.448-32.048 16.624-58.816 25.952-34.88 12.688-35.728 20-52.368 34.864-.416.368-.784.832-1.12-.224zm298.16 264.4c-18.016 54.88-69.616 94.48-130.64 94.48-60.896 0-112.496-39.6-130.64-94.624-2.576-7.856 4.144-15.584 12.288-14.72 79.472 9.008 158.24 9.296 236.704.144 8.288-1.008 14.864 6.848 12.288 14.72z" fill="#3e4347"/><path d="M334.224 415.952c-21.2 18.176-48.784 28.688-78.272 28.688-29.328 0-56.752-10.528-78.128-28.544 52.144-12.592 104.272-12.592 156.4-.144zm34.752-48a112.85 112.85 0 0 1-11.168 21.36c-68.88 18.336-136.784 18.016-203.904-.32-4.304-6.688-7.968-13.712-11.008-21.2a1071.95 1071.95 0 0 0 114.784 6.224c37.168 0 74.64-1.904 111.296-6.064z" fill="#fff"/></svg>