<svg xmlns="http://www.w3.org/2000/svg" viewBox="0 0 512 512" xmlns:v="https://vecta.io/nano"><circle cx="256" cy="256" r="256" fill="#ffd93b"/><path d="M512 256c0 141.44-114.64 256-256 256-80.48 0-152.32-37.12-199.28-95.28 43.92 35.52 99.84 56.72 160.72 56.72 141.36 0 256-114.56 256-256 0-60.88-21.2-116.8-56.72-160.72C474.8 103.68 512 175.52 512 256z" fill="#f4c534"/><path d="M425.52 340.864c3.952 54.352-65.856 123.584-169.648 123.52-103.792.624-173.792-68.608-169.344-124.048.112-5.2 6.96-7.728 13.536-5.68 105.056 33.104 206.832 33.504 312.016.688 6.576-2.064 13.376.384 13.44 5.52z" fill="#3e4347"/><path d="M103.856 335.952c5.136 30.432 71.856 62.176 155.056 60.896 82.096.176 148.624-32.128 154.944-61.776-.608.128-1.168.112-1.776.256-103.904 32.48-204.48 32.368-308.224.624z" fill="#fff"/><path d="M512 192.272c0 70.448-57.312 127.76-127.776 127.76-70.624 0-127.936-57.328-127.936-127.76 0-70.624 57.312-127.936 127.936-127.936C454.688 64.336 512 121.648 512 192.272z" fill="#f4c534"/><path d="M486.864 192.272c0 56.608-46.032 102.64-102.64 102.64-56.768 0-102.8-46.032-102.8-102.64 0-56.768 46.032-102.8 102.8-102.8 56.608 0 102.64 46.032 102.64 102.8z" fill="#fff"/><circle cx="384.16" cy="192.16" r="55.232" fill="#3e4347"/><ellipse transform="matrix(-.7071 -.7071 .7071 -.7071 565.4333 580.9167)" cx="403.028" cy="173.353" rx="18.176" ry="12.256" fill="#fff"/><path d="M311.2 164.544c0 85.728-69.76 155.488-155.504 155.488C69.76 320.032 0 250.272 0 164.544 0 78.592 69.76 8.848 155.696 8.848c85.744 0 155.504 69.744 155.504 155.696z" fill="#f4c534"/><path d="M280.608 164.544c0 68.896-56.016 124.912-124.912 124.912-69.088 0-125.104-56.016-125.104-124.912 0-69.088 56.016-125.104 125.104-125.104 68.896 0 124.912 56.016 124.912 125.104z" fill="#fff"/><circle cx="155.632" cy="164.48" r="67.216" fill="#3e4347"/><ellipse transform="matrix(-.7071 -.7071 .7071 -.7071 204.7651 367.8905)" cx="178.575" cy="141.537" rx="22.128" ry="14.928" fill="#fff"/><path d="M255.872 464.384c42.384.016 78.96-11.616 107.296-28.976-19.856-25.504-56.432-36.576-87.376-21.76-12.656 5.936-26.688 6.176-39.376.304-30.416-13.968-67.36-4.304-87.28 22.208 28.272 17.152 64.64 28.48 106.736 28.224z" fill="#e24b4b"/></svg>