<svg xmlns="http://www.w3.org/2000/svg" viewBox="0 0 512 512" xmlns:v="https://vecta.io/nano"><circle cx="256" cy="256" r="256" fill="#ffd93b"/><path d="M512 256c0 141.44-114.64 256-256 256-80.48 0-152.32-37.12-199.28-95.28 43.92 35.52 99.84 56.72 160.72 56.72 141.36 0 256-114.56 256-256 0-60.88-21.2-116.8-56.72-160.72C474.8 103.68 512 175.52 512 256z" fill="#f4c534"/><path d="M304.48 217.904c6.048 48.384 49.136 87.744 96.208 87.744s80.176-39.36 74.128-87.744c-6.064-48.544-49.008-87.888-96.08-87.888-47.072-.016-80.32 39.344-74.256 87.888z" fill="#65b1ef"/><path d="M399.296 347.424c-21.808 54.992-71.152 97.264-133.696 107.168-109.328 17.28-202.512-70.528-200-174.528.32-12.112 15.808-16.64 23.184-7.104 63.504 82.176 200.176 108.128 292.304 58.56 10.496-5.632 22.656 4.848 18.208 15.904z" fill="#3e4347"/><path d="M126.352 309.2l-.624 43.44c.112 1.76.864 3.424 2.336 4.496 4.32 2.72 13.68 8.688 23.824 13.408 3.152 1.44 6.72-.576 7.312-3.904l5.904-34.224c-13.808-6.48-26.752-14.304-38.752-23.216zm126.432 46.288l2.16 48.928c.208 3.792 4.912 7.168 9.712 6.656 15.44-1.68 30.016-4.992 36.736-6.48 2.304-.656 3.712-2.208 4.224-4.064l7.632-46.976c-19.808 3.072-40.176 3.68-60.464 1.936z" fill="#fff"/><path d="M274.624 165.008c0 53.12-43.2 96.32-96.48 96.32s-96.32-43.2-96.32-96.32c0-53.28 43.04-96.48 96.32-96.48s96.48 43.184 96.48 96.48z" fill="#f4c534"/><path d="M257.712 165.008c0 43.776-35.648 79.408-79.584 79.408s-79.424-35.648-79.424-79.408c0-43.936 35.488-79.584 79.424-79.584s79.584 35.648 79.584 79.584z" fill="#fff"/><path d="M106.896,211.328C122.88,233.44,148.704,248,178.128,248s55.312-14.56,71.344-36.672H106.896z" fill="#f4c534"/><circle cx="178.192" cy="164.944" r="34.832" fill="#3e4347"/><ellipse transform="matrix(-.7071 -.7071 .7071 -.7071 216.4692 395.6389)" cx="190.174" cy="152.987" rx="10.912" ry="8.352" fill="#fff"/><path d="M265.664 89.008s-44.48-51.04-177.6-32.48c12.16-4 184.16-57.776 177.6 32.48z" fill="#3e4347"/><path d="M291.504 184.256c0 48.032 39.056 87.104 87.248 87.104s87.104-39.072 87.104-87.104c0-48.176-38.928-87.248-87.104-87.248s-87.248 39.056-87.248 87.248z" fill="#f4c534"/><path d="M306.784 184.24c0 39.584 32.24 71.808 71.952 71.808 39.728 0 71.824-32.24 71.824-71.808 0-39.728-32.096-71.952-71.824-71.952-39.712 0-71.952 32.24-71.952 71.952z" fill="#fff"/><path d="M299.6 115.52s40.224-46.16 160.592-29.376C449.2 82.544 293.664 33.92 299.6 115.52z" fill="#3e4347"/><path d="M447.584 238.928l-1.12 1.28c-16.8 20.32-41.44 32-67.68 32-26.4 0-51.04-11.664-67.84-32l-1.12-1.28h137.76z" fill="#4e99d2"/><circle cx="378.64" cy="184.208" r="34.832" fill="#3e4347"/><ellipse transform="matrix(-.7071 -.7071 .7071 -.7071 545.0377 570.2674)" cx="390.625" cy="172.253" rx="10.912" ry="8.352" fill="#fff"/></svg>