<svg xmlns="http://www.w3.org/2000/svg" xmlns:xlink="http://www.w3.org/1999/xlink" viewBox="0 0 512 512" xmlns:v="https://vecta.io/nano"><circle cx="256" cy="256" r="256" fill="#ffd93b"/><path d="M512 256c0 141.44-114.64 256-256 256-80.48 0-152.32-37.12-199.28-95.28 43.92 35.52 99.84 56.72 160.72 56.72 141.36 0 256-114.56 256-256 0-60.88-21.2-116.8-56.72-160.72C474.8 103.68 512 175.52 512 256z" fill="#f4c534"/><g fill="#fff"><use xlink:href="#B"/><use xlink:href="#B" x="199.936"/></g><g fill="#3e4347"><path d="M485.264 209.552H445.76c-5.92-44.336-43.888-78.64-89.744-78.64-33.952 0-63.552 18.816-79.04 46.56-4.208 7.536-12.16 11.92-20.784 11.872h-.16c-.08 0-.144 0-.224.016-8.592.064-16.512-4.352-20.688-11.84-15.488-27.76-45.088-46.592-79.04-46.592-45.856 0-83.744 34.32-89.68 78.64H26.736v24H66.64c5.568 41.408 39.216 74.736 81.6 78.32 53.632 4.544 99.44-38.224 98.304-92.144.912-4.512 4.704-7.968 9.472-7.968 4.864 0 9.376 3.504 9.376 9.872 0 52.288 44.56 94.384 97.696 90.304 42.528-3.264 76.832-36.528 82.368-78.384h39.776v-24.016h.032zm-329.2 80.24c-37.584 0-68.176-30.592-68.176-68.16 0-37.664 30.576-68.304 68.176-68.304 37.584 0 68.16 30.64 68.16 68.304 0 37.568-30.576 68.16-68.16 68.16zm199.936 0c-37.584 0-68.176-30.592-68.176-68.16 0-37.664 30.576-68.304 68.176-68.304 37.584 0 68.16 30.64 68.16 68.304 0 37.568-30.576 68.16-68.16 68.16z"/><use xlink:href="#C"/></g><ellipse transform="matrix(-.7071 -.7071 .7071 -.7071 433.3604 627.0373)" cx="346.544" cy="223.767" rx="10" ry="6.912" fill="#fff"/><use xlink:href="#C" x="-160" fill="#3e4347"/><ellipse transform="matrix(-.7071 -.7071 .7071 -.7071 160.2394 513.9388)" cx="186.56" cy="223.783" rx="10" ry="6.912" fill="#fff"/><path d="M276.16 135.904c42.624-23.808 92.128-39.6 146.24-43.616-7.232-12.56-15.04-24.976-23.424-37.12-47.392 19.648-88.752 47.584-122.816 80.736zm-40.208.16c-42.672-23.6-92.176-39.6-146.512-44.256 7.184-12.704 14.96-25.216 23.328-37.456 47.632 20.4 89.056 48.672 123.184 81.712zM132.656 396.496c-3.28-2.976-3.536-8.016-.576-11.296 1.76-1.952 17.664-18.976 35.472-18.976 10.944 0 16.592 6.256 20.72 10.816 3.552 3.936 5.152 5.536 8.832 5.536 3.664 0 5.248-1.6 8.8-5.536 12.688-14.048 27.552-15.296 41.36 0 6.352 7.024 10.272 8.144 17.6 0 12.688-14.048 27.568-15.296 41.36 0 6.4 7.088 10.304 8.096 17.616 0 17.472-19.36 40.16-9.472 56.096 8.176 2.96 3.28 2.688 8.336-.576 11.28-3.28 2.976-8.336 2.704-11.296-.544-3.472-3.808-14.464-13.712-23.552-13.712-3.664 0-5.248 1.6-8.8 5.536-12.688 14.048-27.552 15.296-41.36 0-6.4-7.088-10.304-8.096-17.6 0-12.48 13.856-27.408 15.456-41.36 0-6.4-7.088-10.304-8.096-17.616 0-4.112 4.56-9.744 10.816-20.688 10.816s-16.576-6.256-20.704-10.816c-3.552-3.936-5.152-5.536-8.832-5.536-9.152 0-20.384 10.16-23.6 13.696-2.96 3.264-8.016 3.52-11.296.56z" fill="#3e4347"/><defs ><path id="B" d="M235.44 221.632c0 43.808-35.424 79.376-79.376 79.376-43.792 0-79.376-35.568-79.376-79.376 0-43.952 35.584-79.52 79.376-79.52 43.952 0 79.376 35.568 79.376 79.52z"/><path id="C" d="M366.352 234.4c0 16.688-13.424 30.432-30.32 30.432-16.688 0-30.32-13.744-30.32-30.432 0-16.784 13.648-30.544 30.32-30.544 16.896 0 30.32 13.744 30.32 30.544z"/></defs></svg>