<svg xmlns="http://www.w3.org/2000/svg" viewBox="0 0 512 512" xmlns:v="https://vecta.io/nano"><circle cx="256" cy="256" r="256" fill="#ffd93b"/><g fill="#f4c534"><path d="M512 256c0 141.44-114.64 256-256 256-80.48 0-152.32-37.12-199.28-95.28 43.92 35.52 99.84 56.72 160.72 56.72 141.36 0 256-114.56 256-256 0-60.88-21.2-116.8-56.72-160.72C474.8 103.68 512 175.52 512 256z"/><circle cx="140.528" cy="239.296" r="98.448"/></g><path d="M224.8 239.328c-2.592 46.832-42.4 84.768-88.944 84.768-46.528 0-82.288-37.952-79.696-84.768 2.592-46.832 42.56-84.912 89.088-84.912s82.144 38.08 79.552 84.912z" fill="#fff"/><path d="M180.432 215.984c.096 22.064-17.872 40.032-39.936 39.936-22.064.096-40.032-17.888-39.936-39.952-.096-22.064 17.872-40.032 39.936-39.936 22.064-.08 40.032 17.888 39.936 39.952z" fill="#3e4347"/><ellipse transform="matrix(-.7071 -.7071 .7071 -.7071 122.4659 453.3731)" cx="155.13" cy="201.323" rx="11.92" ry="7.648" fill="#fff"/><path d="M155.152 72.928s-52.016-7.312-106.624 55.904c0 0 35.312-113.232 106.624-55.904z" fill="#3e4347"/><circle cx="371.52" cy="239.296" r="98.448" fill="#f4c534"/><path d="M287.2 239.328c2.592 46.832 42.4 84.768 88.944 84.768 46.528 0 82.288-37.952 79.696-84.768-2.592-46.832-42.56-84.912-89.088-84.912s-82.144 38.08-79.552 84.912z" fill="#fff"/><path d="M331.568 215.984c-.096 22.064 17.872 40.032 39.936 39.936 22.064.096 40.048-17.888 39.952-39.952.096-22.064-17.872-40.032-39.936-39.936-22.08-.08-40.048 17.888-39.952 39.952z" fill="#3e4347"/><ellipse transform="matrix(-.7071 -.7071 .7071 -.7071 466.7711 596.0438)" cx="356.83" cy="201.35" rx="7.648" ry="11.92" fill="#fff"/><path d="M356.848 72.928s52.016-7.312 106.624 55.904c0 0-35.312-113.232-106.624-55.904zM315.472 403.28c-4.528 32.848-12.736 47.472-40.496 52.256-27.184 4.768-44.32-11.12-53.712-52.24-8.768-38.432 15.12-53.344 40.464-52.384 24.96.96 55.088 8.56 53.744 52.368z" fill="#3e4347"/><path d="M406.608 392.464v55.552c0 8.96-7.808 16.192-17.472 16.192s-17.472-7.216-17.472-16.192c0-8.848 7.808-16.064 17.472-16.064 2.208 0 4.432.352 6.4 1.168v-23.056l-39.712 4.896v41.808c0 8.976-7.808 16.192-17.472 16.192s-17.472-7.216-17.472-16.192c0-8.848 7.808-16.064 17.472-16.064 2.208 0 4.432.352 6.4 1.168V398.4c0-3.264 2.448-6.048 5.712-6.4l48.912-5.936a6.38 6.38 0 0 1 7.232 6.4zm62.656-72.736v40.608c0 6.56-5.696 11.84-12.768 11.84s-12.768-5.28-12.768-11.84c0-6.48 5.696-11.744 12.768-11.744 1.616 0 3.232.256 4.688.848v-16.864l-29.024 3.584v30.56c0 6.56-5.712 11.84-12.768 11.84s-12.768-5.28-12.768-11.84c0-6.464 5.712-11.744 12.768-11.744 1.616 0 3.232.256 4.688.848v-31.76c0-2.384 1.792-4.416 4.176-4.688l35.76-4.336c2.784-.32 5.248 1.808 5.248 4.688z" fill="#e24b4b"/></svg>