<svg xmlns="http://www.w3.org/2000/svg" viewBox="0 0 511.995 511.995" xmlns:v="https://vecta.io/nano"><circle cx="255.998" cy="259.387" r="252.608" fill="#ffd93b"/><path d="M419.3 321.835c-14.688 76.896-82.256 134.832-163.248 134.832-81.152 0-148.72-57.936-163.248-134.832-1.424-7.424 5.52-13.744 12.784-11.68 100.096 27.632 200.352 27.472 300.928-.16 7.264-1.904 14.208 4.416 12.784 11.84z" fill="#3e4347"/><path d="M122.782 314.283c24.048 46.16 71.728 59.728 132.624 59.728 60.672 0 108.144-13.52 132.288-59.36-88.448 21.248-176.768 21.184-264.912-.368z" fill="#fff"/><path d="M508.606 259.387c0 139.568-113.12 252.608-252.608 252.608-79.408 0-150.304-36.624-196.64-94.016 43.344 35.056 98.512 55.968 158.592 55.968 139.488 0 252.608-113.04 252.608-252.608 0-60.08-20.912-115.264-55.968-158.592 57.312 46.336 94.016 117.216 94.016 196.64z" fill="#f4c534"/><path d="M232.094 160.65c0 54.848-65.008 122.944-131.52 97.36-30.4-11.84-52.432-40.608-55.872-73.248C41.55 148.8 59.838 114.8 91.294 97.882c51.392-26.096 140.8 1.552 140.8 62.768zM411.55 258c-32.576 12.528-65.52 3.552-91.824-19.632-42.224-36.88-60.416-99.968-5.088-133.76 31.6-19.168 76.096-22.016 105.76-6.736 66.4 35.392 62.144 132.496-8.848 160.128z" fill="#fff"/><g fill="#3e4347"><path d="M488.702 82.795h-8.384c-23.216 0-46.736-1.344-69.2-7.04-41.488-10.64-90.48 2.096-117.888 30.56-8.832 8.992-21.264 13.328-33.856 13.328h-6.288c-12.736 0-25.312-4.352-34.144-13.472-27.872-28.464-77.168-41.056-118.208-30.416-22.32 5.696-45.536 7.04-68.448 7.04h-8.992c-5.536 0-10.032 4.496-10.032 10.192V124.3c0 4.048 2.688 7.184 6.288 8.992 4.64 2.384 7.792 7.184 7.792 12.736 0 1.168-.144 2.528-.608 3.728-27.408 101.552 92.128 183.04 176.752 101.408C221.3 233.5 234.2 213.115 240.03 190.06c1.792-7.184 8.544-11.84 16.032-11.84 7.344 0 14.224 4.64 15.872 11.84 5.84 23.072 18.72 43.44 36.544 61.104 84.192 81.344 204.16.896 176.752-101.552-1.792-6.736 1.504-13.328 7.184-16.32 3.6-1.808 6.288-5.104 6.288-9.136V92.987c.032-5.712-4.464-10.192-10-10.192zM187.326 232.73C129.214 284.107 58.5 243.21 52.222 183.9c-2.992-32.96 13.936-63.952 42.688-79.392 45.696-23.376 129.728.592 129.728 56.176-.016 27.712-16.8 54.224-37.312 72.048zM459.8 183.9c-6.288 59.312-76.848 100.208-135.12 48.832-20.368-17.84-37.152-44.352-37.152-72.048 0-55.584 84.032-79.536 129.424-56.176 28.912 15.44 45.84 46.432 42.848 79.392z"/><circle cx="363.486" cy="178.891" r="38.848"/></g><ellipse transform="matrix(-.7071 -.7071 .7071 -.7071 529.241 547.6993)" cx="378.053" cy="164.24" rx="11.92" ry="8.32" fill="#fff"/><circle cx="152.222" cy="178.891" r="38.848" fill="#3e4347"/><ellipse transform="matrix(-.7071 -.7071 .7071 -.7071 168.6083 398.3059)" cx="166.796" cy="164.233" rx="11.92" ry="8.32" fill="#fff"/><path d="M194.5 25.93c.624-1.984-91.616.48-119.024 51.728-6.96-.096 60.576-132.064 119.024-51.728zm122.986 0c-.624-1.984 91.616.48 119.024 51.728 6.96-.096-60.576-132.064-119.024-51.728z" fill="#3e4347"/><path d="M242.03 402.3c-52.784 0-75.6-28.608-86.144 1.696-2.032 5.824-2.592 11.664-2.112 17.408 28.208 22.048 63.664 35.264 102.288 35.264 38.608 0 74.064-13.264 102.304-35.376.464-5.712-.112-11.52-2.128-17.312-10.544-30.288-61.424-1.68-114.208-1.68z" fill="#e24b4b"/></svg>