<?xml version="1.0" encoding="iso-8859-1"?>
<!-- Generator: Adobe Illustrator 19.0.0, SVG Export Plug-In . SVG Version: 6.00 Build 0)  -->
<svg version="1.1" id="Capa_1" xmlns="http://www.w3.org/2000/svg" xmlns:xlink="http://www.w3.org/1999/xlink" x="0px" y="0px"
	 viewBox="0 0 512 512" style="enable-background:new 0 0 512 512;" xml:space="preserve">
<path style="fill:#00A6FF;" d="M428.12,239.3v20.76h-30V239.3c0-77.9-63.37-141.27-141.27-141.27H256
	c-77.51,0.46-140.43,63.65-140.43,141.27v20.76h-30V239.3c0-94.16,76.38-170.81,170.43-171.27h0.85
	C351.29,68.03,428.12,144.86,428.12,239.3z"/>
<path style="fill:#006EF5;" d="M428.12,239.3v20.76h-30V239.3c0-77.9-63.37-141.27-141.27-141.27H256v-30h0.85
	C351.29,68.03,428.12,144.86,428.12,239.3z"/>
<g>
	<path style="fill:#FF9A00;" d="M89.12,259.07v169.84H66.1c-36.45,0-66.1-29.65-66.1-66.1v-37.64c0-36.45,29.65-66.1,66.1-66.1
		L89.12,259.07L89.12,259.07z"/>
	<path style="fill:#FF9A00;" d="M512,325.17v37.64c0,36.45-29.65,66.1-66.1,66.1h-23.02V259.07h23.02
		C482.35,259.07,512,288.72,512,325.17z"/>
</g>
<g>
	<path style="fill:#FF4F19;" d="M0,343.99h89.12v84.92H66.1c-36.45,0-66.1-29.65-66.1-66.1V343.99z"/>
	<path style="fill:#FF4F19;" d="M512,343.99v18.82c0,36.45-29.65,66.1-66.1,66.1h-23.02v-84.92H512z"/>
</g>
<g>
	<rect x="59.12" y="246.55" style="fill:#004EB1;" width="81.49" height="197.42"/>
	<rect x="371.39" y="246.55" style="fill:#004EB1;" width="81.49" height="197.42"/>
</g>
<g>
	<rect x="59.12" y="343.99" style="fill:#002D6B;" width="81.49" height="99.98"/>
	<rect x="371.39" y="343.99" style="fill:#002D6B;" width="81.49" height="99.98"/>
</g>
<g>
</g>
<g>
</g>
<g>
</g>
<g>
</g>
<g>
</g>
<g>
</g>
<g>
</g>
<g>
</g>
<g>
</g>
<g>
</g>
<g>
</g>
<g>
</g>
<g>
</g>
<g>
</g>
<g>
</g>
</svg>
