<svg id="Capa_1" enable-background="new 0 0 512 512" height="512" viewBox="0 0 512 512" width="512" xmlns="http://www.w3.org/2000/svg"><g><path d="m497 161h-482c-8.284 0-15 6.716-15 15v220l115 115h382c8.284 0 15-6.716 15-15v-320c0-8.284-6.716-15-15-15z" fill="#e7f1f9"/><path d="m497 161h-241v350h241c8.284 0 15-6.716 15-15v-320c0-8.284-6.716-15-15-15z" fill="#d5e7f6"/><path d="m497 41h-482c-8.284 0-15 6.716-15 15v120h512v-120c0-8.284-6.716-15-15-15z" fill="#ffea98"/><path d="m256 441c-3.978 0-7.793-1.58-10.606-4.394l-80.268-80.269c-13.871-13.858-21.512-32.299-21.512-51.92 0-19.62 7.641-38.061 21.516-51.925 24.561-24.496 62.396-28.15 90.862-10.337 28.471-17.854 66.321-14.199 90.878 10.337 13.875 13.864 21.517 32.305 21.517 51.925 0 19.621-7.641 38.062-21.517 51.925l-80.264 80.264c-2.813 2.814-6.628 4.394-10.606 4.394z" fill="#e789da"/><path d="m100 396h-100c0 3.979 1.581 7.794 4.394 10.606l100 100c2.813 2.814 6.628 4.394 10.606 4.394v-100c0-8.284-6.716-15-15-15z" fill="#d5e7f6"/><path d="m512 56c0-8.284-6.716-15-15-15h-241v135h256z" fill="#ffdd54"/><path d="m346.87 252.493c-24.555-24.534-62.4-28.189-90.87-10.342v198.849c3.978 0 7.793-1.58 10.606-4.394l80.264-80.264c13.875-13.863 21.517-32.304 21.517-51.925 0-19.619-7.641-38.06-21.517-51.924z" fill="#da45c6"/><path d="m256 111c-8.284 0-15-6.716-15-15v-80c0-8.284 6.716-15 15-15s15 6.716 15 15v80c0 8.284-6.716 15-15 15z" fill="#453d81"/><path d="m436.667 111c-8.284 0-15-6.716-15-15v-80c0-8.284 6.716-15 15-15s15 6.716 15 15v80c0 8.284-6.716 15-15 15z" fill="#38336b"/><path d="m346.333 111c-8.284 0-15-6.716-15-15v-80c0-8.284 6.716-15 15-15s15 6.716 15 15v80c0 8.284-6.715 15-15 15z" fill="#38336b"/><path d="m75.333 111c-8.284 0-15-6.716-15-15v-80c0-8.284 6.716-15 15-15s15 6.716 15 15v80c0 8.284-6.715 15-15 15z" fill="#453d81"/><path d="m165.667 111c-8.284 0-15-6.716-15-15v-80c0-8.284 6.716-15 15-15s15 6.716 15 15v80c0 8.284-6.716 15-15 15z" fill="#453d81"/><path d="m271 96v-80c0-8.284-6.716-15-15-15v110c8.284 0 15-6.716 15-15z" fill="#38336b"/></g></svg>