<?xml version="1.0"?>
<svg xmlns="http://www.w3.org/2000/svg" height="512px" viewBox="0 -24 512 512" width="512px" class=""><g><path d="m352.398438 192.800781c-88.003907 0-159.597657 71.59375-159.597657 159.597657v56.234374c0 30.417969 24.746094 55.164063 55.164063 55.164063h208.867187c30.417969 0 55.167969-24.746094 55.167969-55.164063v-56.234374c0-88.003907-71.597656-159.597657-159.601562-159.597657zm0 0" fill="#ff4949" data-original="#FF4949" class="active-path" style="fill:#C7EBFF" data-old_color="#ff4949"/><path d="m352.398438 192.800781v270.996094h104.433593c30.421875 0 55.167969-24.746094 55.167969-55.164063v-56.234374c0-88.003907-71.597656-159.597657-159.601562-159.597657zm0 0" fill="#f30051" data-original="#F30051" class="" style="fill:#1273EB" data-old_color="#f30051"/><path d="m352.398438 0c-61.425782 0-111.398438 49.972656-111.398438 111.398438 0 61.425781 49.976562 111.402343 111.398438 111.402343 61.425781 0 111.398437-49.976562 111.398437-111.402343 0-61.425782-49.972656-111.398438-111.398437-111.398438zm0 0" fill="#e7f0ef" data-original="#E7F0EF" class=""/><path d="m352.398438 0v222.800781c61.425781 0 111.398437-49.972656 111.398437-111.398437 0-61.425782-49.972656-111.402344-111.398437-111.402344zm0 0" fill="#c5e1e6" data-original="#C5E1E6" class=""/><path d="m159.601562 192.800781c-88.003906 0-159.601562 71.59375-159.601562 159.597657v56.234374c0 30.417969 24.746094 55.164063 55.167969 55.164063h208.863281c30.421875 0 55.167969-24.746094 55.167969-55.164063v-56.234374c0-88.003907-71.597657-159.597657-159.597657-159.597657zm0 0" fill="#0065a3" data-original="#0065A3" class="" style="fill:#54E360" data-old_color="#0065a3"/><path d="m159.601562 192.800781v270.996094h104.429688c30.421875 0 55.167969-24.746094 55.167969-55.164063v-56.234374c0-88.003907-71.597657-159.597657-159.597657-159.597657zm0 0" fill="#005183" data-original="#005183" class="" style="fill:#1FBF66" data-old_color="#005183"/><path d="m159.601562 0c-61.425781 0-111.402343 49.972656-111.402343 111.398438 0 61.425781 49.976562 111.402343 111.402343 111.402343 61.421876 0 111.398438-49.972656 111.398438-111.402343 0-61.425782-49.976562-111.398438-111.398438-111.398438zm0 0" fill="#e7f0ef" data-original="#E7F0EF" class=""/><path d="m159.601562 0v222.800781c61.425782 0 111.398438-49.972656 111.398438-111.398437 0-61.425782-49.976562-111.402344-111.398438-111.402344zm0 0" fill="#c5e1e6" data-original="#C5E1E6" class=""/></g> </svg>
