<?xml version="1.0" encoding="iso-8859-1"?>
<!-- Generator: Adobe Illustrator 19.0.0, SVG Export Plug-In . SVG Version: 6.00 Build 0)  -->
<svg version="1.1" id="Capa_1" xmlns="http://www.w3.org/2000/svg" xmlns:xlink="http://www.w3.org/1999/xlink" x="0px" y="0px"
	 viewBox="0 0 512 512" style="enable-background:new 0 0 512 512;" xml:space="preserve">
<path style="fill:#C8C6CD;" d="M451.09,1.83v150.25c0,33.01-26.85,59.86-59.86,59.86c-33,0-59.85-26.85-59.85-59.86v-33.25
	c0-16.63-13.53-30.16-30.16-30.16s-30.16,13.53-30.16,30.16v116h-30v-116c0-15.16,5.64-29.03,14.94-39.63
	c11.03-12.58,27.21-20.53,45.22-20.53c33.17,0,60.16,26.99,60.16,60.16v33.25c0,16.47,13.39,29.86,29.85,29.86
	s29.86-13.39,29.86-29.86V1.83H451.09z"/>
<path style="fill:#AEADB3;" d="M451.09,1.83v150.25c0,33.01-26.85,59.86-59.86,59.86c-33,0-59.85-26.85-59.85-59.86v-33.25
	c0-16.63-13.53-30.16-30.16-30.16s-30.16,13.53-30.16,30.16v116H256V79.2c11.03-12.58,27.21-20.53,45.22-20.53
	c33.17,0,60.16,26.99,60.16,60.16v33.25c0,16.47,13.39,29.86,29.85,29.86s29.86-13.39,29.86-29.86V1.83H451.09z"/>
<rect x="206.44" y="223.83" style="fill:#78777F;" width="99.12" height="79.4"/>
<rect x="256" y="223.83" style="fill:#3C3A41;" width="49.56" height="79.4"/>
<path style="fill:#00A6FF;" d="M512,391.7c0,65.33-53.15,118.47-118.47,118.47c-25.87,0-50.45-8.19-71.08-23.68
	c-16.92-12.71-30.28-29.99-38.38-49.43h-56.14c-8.1,19.44-21.46,36.72-38.38,49.43c-20.63,15.49-45.21,23.68-71.08,23.68
	C53.15,510.17,0,457.03,0,391.7s53.15-118.47,118.47-118.47h275.06C458.85,273.23,512,326.37,512,391.7z"/>
<path style="fill:#006EF5;" d="M512,391.7c0,65.33-53.15,118.47-118.47,118.47c-25.87,0-50.45-8.19-71.08-23.68
	c-16.92-12.71-30.28-29.99-38.38-49.43H256V273.23h137.53C458.85,273.23,512,326.37,512,391.7z"/>
<rect x="207.265" y="340.25" transform="matrix(-0.7706 -0.6374 0.6374 -0.7706 165.3654 775.5033)" style="fill:#B6FFFF;" width="30.002" height="35.475"/>
<rect x="266.35" y="340.216" transform="matrix(-0.7705 -0.6374 0.6374 -0.7705 269.9713 813.0982)" style="fill:#00E8F2;" width="29.999" height="35.472"/>
<polygon style="fill:#004EB1;" points="160.708,376.701 131.504,376.701 131.504,347.496 101.504,347.496 101.504,376.701 
	72.301,376.701 72.301,406.701 101.504,406.701 101.504,435.904 131.504,435.904 131.504,406.701 160.708,406.701 "/>
<g>
	<rect x="377.67" y="343.63" style="fill:#002D6B;" width="28.667" height="28.667"/>
	<rect x="377.67" y="411.1" style="fill:#002D6B;" width="28.667" height="28.667"/>
	<rect x="343.93" y="377.37" style="fill:#002D6B;" width="28.667" height="28.667"/>
	<rect x="411.4" y="377.37" style="fill:#002D6B;" width="28.667" height="28.667"/>
</g>
<g>
</g>
<g>
</g>
<g>
</g>
<g>
</g>
<g>
</g>
<g>
</g>
<g>
</g>
<g>
</g>
<g>
</g>
<g>
</g>
<g>
</g>
<g>
</g>
<g>
</g>
<g>
</g>
<g>
</g>
</svg>
