<svg id="Capa_1" enable-background="new 0 0 511.071 511.071" height="512" viewBox="0 0 511.071 511.071" width="512" xmlns="http://www.w3.org/2000/svg"><g><path d="m329.82 230.098h-10.294v-111.46h10.294c30.729 0 55.73 25.001 55.73 55.73s-25 55.73-55.73 55.73z" fill="#7fc0fd"/><path d="m324.455 139.971h-55.73l-13.198 31.821 13.198 36.973h55.73z" fill="#28485e"/><path d="m191.527 139.971h77.199v68.794h-77.199z" fill="#36607d"/><g><path d="m268.725 200.098-23.865 151.428 23.865 159.545h80.726c42.364 0 76.829-34.466 76.829-76.829v-234.144z" fill="#fdae02"/><g><path d="m378.434 44.959c-17.572-38.548-63.229-55.613-101.777-38.041l-7.932 3.652-13.199 84.457 13.199 71.875 136.743-62.636z" fill="#fdae02"/><path d="m209.698 37.743 3.162 80.121 55.865 49.038v-156.332z" fill="#fdcb02"/></g><path d="m268.725 166.902-59.027-129.159-79.948 36.142c-38.548 17.572-55.613 63.228-38.042 101.776l19.462 42.694v215.886c0 42.364 34.466 76.829 76.829 76.829h80.726v-310.972h-73.486z" fill="#0dca71"/></g><g><path d="m268.725 254.033-13.199 105.16 13.199 97.942c55.996 0 101.551-45.556 101.551-101.551s-45.555-101.551-101.551-101.551zm15 171.508v-40.809l33.181 23.701c-9.193 8.39-20.578 14.409-33.181 17.108zm50.637-41.507-50.637-36.169v-62.237c32.275 6.914 56.551 35.648 56.551 69.957.001 10.106-2.118 19.724-5.914 28.449z" fill="#f7f0eb"/><path d="m167.174 355.584c0 55.996 45.556 101.551 101.551 101.551v-203.102c-55.995 0-101.551 45.556-101.551 101.551zm86.551 69.957c-12.603-2.7-23.988-8.719-33.181-17.108l33.181-23.701zm0-77.676-50.636 36.169c-3.797-8.725-5.915-18.343-5.915-28.45 0-34.309 24.277-63.043 56.551-69.957z" fill="#fffbf5"/></g></g></svg>