<svg viewBox="0 -11 511.99877 511" xmlns="http://www.w3.org/2000/svg"><path d="m510.640625 185.511719c-3.875-11.933594-15.421875-20.132813-31.683594-22.496094l-132.511719-19.257813-59.261718-120.074218c-7.269532-14.730469-18.636719-23.183594-31.183594-23.183594s-23.914062 8.449219-31.183594 23.183594l-59.257812 120.074218-132.519532 19.257813c-16.257812 2.363281-27.808593 10.558594-31.683593 22.492187-3.875 11.933594.648437 25.355469 12.414062 36.824219l95.890625 93.464844-22.640625 131.980469c-2.894531 16.878906 2.039063 26.992187 6.6875 32.507812 5.453125 6.46875 13.40625 10.03125 22.394531 10.03125 6.761719 0 13.953126-1.980468 21.375-5.882812l118.523438-62.308594 118.527344 62.3125c7.421875 3.902344 14.613281 5.878906 21.378906 5.878906h.003906c8.984375 0 16.933594-3.5625 22.386719-10.03125 4.652344-5.511718 9.585937-15.628906 6.6875-32.507812l-22.632813-131.980469 95.882813-93.464844c11.761719-11.464843 16.285156-24.886719 12.40625-36.820312zm0 0" fill="#ffd400"/><path d="m510.640625 185.511719c-3.875-11.933594-15.421875-20.132813-31.683594-22.496094l-132.511719-19.257813-59.261718-120.074218c-7.269532-14.730469-18.636719-23.183594-31.183594-23.183594v421.621094l118.527344 62.316406c7.421875 3.898438 14.613281 5.878906 21.375 5.878906h.003906c8.988281 0 16.9375-3.5625 22.390625-10.03125 4.648437-5.511718 9.585937-15.628906 6.6875-32.507812l-22.636719-131.980469 95.886719-93.464844c11.761719-11.464843 16.285156-24.886719 12.40625-36.820312zm0 0" fill="#ff9f04"/></svg>