<svg height="512pt" viewBox="0 -48 512 512" width="512pt" xmlns="http://www.w3.org/2000/svg"><path d="m456.835938 0h-401.671876c-30.417968 0-55.164062 24.746094-55.164062 55.164062v305.269532c0 30.417968 24.746094 55.167968 55.164062 55.167968h401.671876c30.417968 0 55.164062-24.75 55.164062-55.167968v-305.269532c0-30.417968-24.746094-55.164062-55.164062-55.164062zm0 0" fill="#ff4949"/><path d="m456.835938 0h-200.835938v415.601562h200.835938c30.417968 0 55.164062-24.75 55.164062-55.167968v-305.269532c0-30.417968-24.746094-55.164062-55.164062-55.164062zm0 0" fill="#f30051"/><path d="m347.28125 176.421875-120.945312-60.476563c-7.164063-3.582031-14.320313-5.398437-21.273438-5.398437-21.410156 0-36.363281 16.867187-36.363281 41.019531v112.464844c0 24.152344 14.953125 41.019531 36.363281 41.019531 6.953125 0 14.109375-1.816406 21.273438-5.398437l120.945312-60.472656c14.6875-7.34375 23.109375-18.78125 23.109375-31.382813 0-12.597656-8.421875-24.03125-23.109375-31.375zm0 0" fill="#e7f0ef"/><path d="m347.28125 176.421875-91.28125-45.644531v154.042968l91.28125-45.640624c14.6875-7.34375 23.109375-18.78125 23.109375-31.378907 0-12.601562-8.421875-24.035156-23.109375-31.378906zm0 0" fill="#c5e1e6"/></svg>