<svg id="Speech_Bubble" data-name="Speech Bubble" xmlns="http://www.w3.org/2000/svg" viewBox="0 0 51.46 58.61"><defs><style>.cls-1{fill:#1fa9ff;}</style></defs><title>Image7_svg</title><path class="cls-1" d="M122.47,168.68l-.47,0-1.36.1a15.43,15.43,0,0,0-2.19.29,13.53,13.53,0,0,0-1.39.27l-1.55.43a25.47,25.47,0,0,0-7.37,3.65,25.94,25.94,0,0,0-7.26,8.08,27.08,27.08,0,0,0-2.54,5.81,27.94,27.94,0,0,0-1.11,6.78,27.48,27.48,0,0,0,.06,3.62c0,.61.17,1.22.25,1.84a11.82,11.82,0,0,0,.35,1.85,26.39,26.39,0,0,0,15,18.33,23.76,23.76,0,0,0,8.59,1.93,23.19,23.19,0,0,0,9-1.29l.88-.33.12,0,.1.06,12.61,6.4-.37.32c-1.35-4.18-2.65-8.23-3.91-12.12l0-.15.11-.11a27,27,0,0,0,6.62-11,27.7,27.7,0,0,0,1-11.72,27.38,27.38,0,0,0-3.31-9.94,27,27,0,0,0-5.7-7,27.85,27.85,0,0,0-6.19-3.94,26.94,26.94,0,0,0-5.24-1.65l-2-.33-1.45-.11-.88-.06-.3,0a1.36,1.36,0,0,1,.3,0l.89,0,1.45.06,2,.29a26.5,26.5,0,0,1,5.31,1.59,27.79,27.79,0,0,1,6.3,3.93,27.07,27.07,0,0,1,5.82,7,27.45,27.45,0,0,1,3.41,10.07,28,28,0,0,1-.93,11.92,27.36,27.36,0,0,1-6.72,11.23l.06-.26c1.26,3.89,2.57,7.94,3.93,12.11l.19.61-.57-.29-12.61-6.39h.22l-.9.33a23.86,23.86,0,0,1-9.17,1.32,24.3,24.3,0,0,1-8.77-2A26.31,26.31,0,0,1,100.25,209a26.7,26.7,0,0,1-2.83-7.4,15.32,15.32,0,0,1-.35-1.89c-.08-.63-.21-1.25-.24-1.87a29.55,29.55,0,0,1,1.11-10.56,26.89,26.89,0,0,1,2.61-5.88,26.17,26.17,0,0,1,7.41-8.13,25.28,25.28,0,0,1,7.49-3.62l1.57-.4a13.89,13.89,0,0,1,1.4-.25,14.85,14.85,0,0,1,2.21-.24l1.37-.05A3.36,3.36,0,0,1,122.47,168.68Z" transform="translate(-96.73 -168.67)"/><path class="cls-1" d="M128.17,192h-1.85l-4-5.62v-3.69s-2.86-.18-2.52,4.65,0,3.6,0,3.6-6.07,0-6.57.55-.53,6.41-.6,9.68a3.54,3.54,0,0,0,2.51,3.56,2.48,2.48,0,0,0,.65.09c1.52,0,9.25-1.23,9.25-1.23h3.19Z" transform="translate(-96.73 -168.67)"/><polygon class="cls-1" points="36.73 22.34 35.59 34.98 32.42 34.98 32.42 22.6 36.73 22.34"/></svg>